<?xml version="1.0" encoding="UTF-8"?>
<svg id="svg58" width="350.03mm" height="79.989mm" version="1.1" viewBox="0 0 350.03 79.989" xmlns="http://www.w3.org/2000/svg" xmlns:cc="http://creativecommons.org/ns#" xmlns:dc="http://purl.org/dc/elements/1.1/" xmlns:rdf="http://www.w3.org/1999/02/22-rdf-syntax-ns#">
 <metadata id="metadata64">
  <rdf:RDF>
   <cc:Work rdf:about="">
    <dc:format>image/svg+xml</dc:format>
    <dc:type rdf:resource="http://purl.org/dc/dcmitype/StillImage"/>
    <dc:title/>
   </cc:Work>
  </rdf:RDF>
 </metadata>
 <g id="g56" transform="translate(190.89 -73.309)" fill="none" stroke="#000" stroke-width=".26458">
  <path id="path2" d="m-190.76 73.441v79.724h65.726v-8.7493h284.04v-26.598h-3.0096v0.87488h-60.755v-1.2072h-2.3797v1.2072h-60.615v-1.2072h-2.3802v1.2072h-21.873v-3.0313h-1.4702v1.8242h-4.5496v1.2072h-26.493v22.468h-34.359v-55.715h60.572v23.445h4.8292v2.2221h1.4702v-3.0313h21.873v0.80925h2.3802v-0.97617h60.615v0.97617h2.3797v-0.97617h60.755v0.97617h3.0096v-26.7h-284.04v-8.7493z"/>
  <rect id="b00" x="-187.5" y="76.696" width="43.677" height="73.215">
   <title id="title4">Б-00</title>
  </rect>
  <rect id="rect7" x="-141.45" y="76.696" width="13.159" height="29.748"/>
  <rect id="b01a" x="-141.45" y="107.91" width="13.159" height="41.997">
   <title id="title9">Б-01А</title>
  </rect>
  <rect id="rect12" x="-121.9" y="85.446" width="13.037" height="15.626"/>
  <rect id="rect14" x="-107.85" y="85.446" width="15.469" height="15.626"/>
  <rect id="rect16" x="-121.9" y="102.09" width="29.52" height="4.3572"/>
  <rect id="rect18" x="-91.364" y="85.446" width="30.107" height="20.998"/>
  <rect id="rect20" x="-73.909" y="107.91" width="12.652" height="23.168"/>
  <rect id="rect22" x="-73.909" y="132.1" width="12.652" height="9.0643"/>
  <rect id="rect24" x="-121.9" y="107.91" width="46.975" height="33.248"/>
  <rect id="rect26" x="-23.049" y="120.16" width="10.779" height="20.998"/>
  <rect id="rect28" x="-10.8" y="120.16" width="12.774" height="20.998"/>
  <rect id="rect30" x="7.9935" y="85.446" width="21.873" height="21.166"/>
  <rect id="b03" x="8.2735" y="120.16" width="21.593" height="20.998">
   <title id="title32">Б-03</title>
  </rect>
  <rect id="b05" x="32.247" y="120.16" width="46.599" height="20.998">
   <title id="title35">Б-05</title>
  </rect>
  <rect id="rect38" x="32.247" y="85.446" width="8.8018" height="20.998"/>
  <rect id="b04" x="42.063" y="85.446" width="50.799" height="20.998">
   <title id="title40">Б-04</title>
  </rect>
  <rect id="b07" x="79.861" y="120.16" width="13.002" height="20.998">
   <title id="title43">Б-07</title>
  </rect>
  <rect id="rect46" x="95.242" y="85.446" width="21.751" height="20.998"/>
  <rect id="b010" x="118.01" y="85.446" width="17.534" height="20.998">
   <title id="title48">Б-010</title>
  </rect>
  <rect id="rect51" x="136.56" y="85.446" width="19.476" height="20.998"/>
  <rect id="b09" x="95.242" y="120.16" width="60.79" height="20.998">
   <title id="title53">Б-09</title>
  </rect>
 </g>
 <circle id="pointB" cx="-.00229" cy="-.00029087" r="1.2772" fill="#f00" stroke="#000" stroke-width=".09136"/>
</svg>
