<svg width="352.77mm" height="79.734mm" version="1.1" viewBox="0 0 352.77 79.734" xmlns="http://www.w3.org/2000/svg">
 <g transform="translate(256.52 -84.776)" fill="none" stroke="#000" stroke-width=".26458">
  <path d="m-256.39 84.908v79.469h65.354v-8.8222h287.15v-26.36h-3.2964v0.88211h-61.295v-1.2165h-2.3998v1.2165h-61.119v-1.2165h-2.3998v1.2165h-22.055v-1.2165h-6.0694v1.2165h-61.357v-1.2165h-2.3993v1.2165h-61.146v-1.1886h-1.7487v-0.0145h-4.6912v5.0674h-29.89v-16.833h16.621v-29.378h13.268v32.462h4.6912v-2e-3h1.7487v-0.98289h61.146v0.98444h2.3993v-0.98444h61.357v0.98444h6.0694v-0.81598h22.055v0.81598h2.3998v-0.98444h61.119v0.98444h2.3998v-0.98444h61.295v0.98444h3.2964v-26.462h-287.15v-8.8222z"/>
  <rect id="b102" x="-253.56" y="87.731" width="44.04" height="27.896"/>
  <rect id="b100" x="-253.56" y="117.11" width="29.254" height="16.832"/>
  <rect id="b101" x="-253.56" y="135.42" width="44.957" height="26.131"/>
  <rect id="b103" x="-208.04" y="135.42" width="14.186" height="26.131"/>
  <rect id="b104" x="-187.41" y="96.553" width="10.551" height="21.173"/>
  <rect x="-176.3" y="96.553" width="12.174" height="21.173"/>
  <rect id="b108" x="-163.56" y="96.553" width="11.433" height="21.173"/>
  <rect id="b110" x="-151.56" y="96.553" width="25.293" height="21.173"/>
  <rect id="b112" x="-123.87" y="96.553" width="22.867" height="21.173"/>
  <rect id="b114" x="-100.44" y="96.553" width="24.534" height="21.173"/>
  <rect id="b114a" x="-75.339" y="96.553" width="12.545" height="21.173"/>
  <rect id="b116" x="-56.442" y="96.553" width="22.055" height="21.342"/>
  <rect id="b105" x="-187.5" y="131.56" width="10.639" height="21.173"/>
  <rect id="b107" x="-176.3" y="131.56" width="12.174" height="21.173"/>
  <rect id="b109" x="-163.56" y="131.56" width="11.433" height="21.173"/>
  <rect id="b111" x="-151.56" y="131.56" width="12.492" height="21.173"/>
  <rect id="b113" x="-138.5" y="131.56" width="12.236" height="21.173"/>
  <rect id="b115a" x="-123.87" y="131.56" width="11.575" height="21.173"/>
  <path id="b115" d="m-111.73 131.56v21.173h23.476v-16.884h12.351v-4.2886h-12.351z"/>
  <rect x="-87.69" y="136.41" width="11.786" height="16.32"/>
  <rect x="-75.339" y="131.56" width="12.827" height="21.173"/>
  <rect x="-56.16" y="131.56" width="21.773" height="21.173"/>
  <rect id="b119" x="-31.988" y="131.56" width="11.045" height="21.173"/>
  <rect id="b121b" x="-20.378" y="131.56" width="10.022" height="21.173"/>
  <rect id="b121" x="-9.7912" y="131.56" width="38.923" height="21.173"/>
  <rect id="b123" x="31.531" y="131.56" width="10.198" height="21.173"/>
  <rect id="b125" x="42.294" y="131.56" width="12.174" height="21.173"/>
  <rect id="b127" x="55.033" y="131.56" width="12.174" height="21.173"/>
  <rect id="b129" x="67.772" y="131.56" width="25.055" height="21.173"/>
  <rect id="b118" x="-31.989" y="96.552" width="47.836" height="21.176"/>
  <rect id="b120" x="16.41" y="96.553" width="12.721" height="21.173"/>
  <rect id="b122" x="31.531" y="96.553" width="10.181" height="21.173"/>
  <rect id="b124" x="42.276" y="96.553" width="13.057" height="21.173"/>
  <rect x="55.898" y="96.553" width="36.929" height="21.173"/>
 </g>
</svg>
