<svg width="354.05mm" height="80.001mm" version="1.1" viewBox="0 0 354.05 80.001" xmlns="http://www.w3.org/2000/svg">
 <g transform="translate(62.367 -167.22)" fill="none" stroke="#000" stroke-width=".26458">
  <path d="m-62.235 167.35v79.737h65.574v-8.8516h288.21v-26.449h-3.3905v0.88522h-61.502v-1.2206h-2.4076v1.2206h-61.325v-1.2206h-2.4076v23.952h-21.847v-23.952h-6.3732v1.2206h-61.564v-1.2206h-2.4076v1.2206h-61.441v-1.2072h-6.3733v13.689h-13.313v-54.952h13.313v32.553h6.3733v-0.98857h61.441v0.98857h2.4076v-0.98857h61.281v0.98857h6.3733v-0.81907h22.13v0.81907h2.4076v-0.98857h61.325v0.98857h2.4076v-0.98857h61.502v0.98857h3.3905v-26.552h-288.21v-8.8516z"/>
  <rect x="-59.402" y="170.18" width="44.188" height="74.072"/>
  <rect id="b200" x="-12.807" y="225.72" width="13.313" height="18.535"/>
  <rect id="b201" x="6.8799" y="214.16" width="10.959" height="21.244"/>
  <rect id="b203" x="18.405" y="214.16" width="38.842" height="21.244"/>
  <rect id="b202" x="6.9684" y="179.04" width="49.57" height="21.244"/>
  <rect id="b204" x="57.105" y="179.04" width="11.215" height="21.244"/>
  <rect id="b205" x="57.813" y="214.16" width="10.507" height="21.244"/>
  <rect id="b207" x="70.728" y="214.16" width="11.614" height="21.244"/>
  <rect id="b206" x="70.728" y="179.04" width="49.19" height="21.244"/>
  <rect id="b208" x="120.48" y="179.04" width="11.525" height="21.244"/>
  <rect x="82.908" y="214.16" width="49.384" height="21.244"/>
  <rect id="b210" x="138.38" y="179.04" width="22.13" height="21.414"/>
  <rect id="b212" x="162.92" y="179.04" width="22.413" height="21.244"/>
  <rect id="b214" x="185.9" y="179.04" width="38.346" height="21.244"/>
  <rect id="b216" x="226.65" y="179.04" width="23.829" height="21.244"/>
  <rect x="251.05" y="179.04" width="37.107" height="21.244"/>
  <rect x="275" y="214.16" width="13.154" height="21.244"/>
  <rect x="248.11" y="214.16" width="26.325" height="21.244"/>
  <path id="b215" d="m226.65 214.16v21.245h9.1524v-14.871h0.5669v14.871h11.171v-21.245h-11.171v3.1512h-0.5669v-3.1512z"/>
  <rect id="b213" x="210.42" y="214.16" width="13.827" height="21.244"/>
  <rect id="b211" x="198.73" y="214.16" width="11.118" height="21.244"/>
  <rect id="b209" x="162.92" y="214.16" width="35.248" height="21.244"/>
 </g>
</svg>
