<svg width="353.71mm" height="79.923mm" version="1.1" viewBox="0 0 353.71 79.923" xmlns="http://www.w3.org/2000/svg">
 <g transform="translate(24.911 -260.93)" fill="none" stroke="#000" stroke-width=".26458">
  <path d="m-24.779 261.07v79.658h65.509v-8.8429h287.94v-26.423h-3.4044v0.88418h-61.442v-1.2191h-2.4055v1.2191h-61.264v-1.2191h-2.4055v23.928h-21.825v-23.928h-6.367v1.2191h-61.504v-1.2191h-2.405v1.2191h-61.38v-1.2056h-6.3671v4.7429h-13.3v-45.966h13.3v32.521h6.3671v-0.98703h61.38v0.98703h2.405v-0.98703h61.221v0.98703h6.367v-0.81804h22.108v0.81804h2.4055v-0.98703h61.264v0.98703h2.4055v-0.98703h61.442v0.98703h3.4044v-26.526h-287.94v-8.8429z"/>
  <rect x="-21.949" y="263.89" width="44.144" height="73.999"/>
  <rect id="b301" x="24.6" y="311.36" width="13.3" height="26.529"/>
  <rect id="b302" x="44.356" y="272.74" width="10.965" height="21.223"/>
  <rect id="b304" x="55.887" y="272.74" width="49.76" height="21.223"/>
  <rect id="b306" x="108.05" y="272.74" width="61.221" height="21.223"/>
  <rect id="b308" x="175.64" y="272.74" width="22.108" height="21.392"/>
  <rect id="b310" x="200.15" y="272.74" width="61.265" height="21.223"/>
  <rect id="b312" x="263.82" y="272.74" width="23.735" height="21.223"/>
  <rect x="288.12" y="272.74" width="37.141" height="21.223"/>
  <rect id="b309a" x="310.76" y="307.83" width="14.503" height="21.223"/>
  <rect id="b309" x="263.82" y="307.83" width="46.373" height="21.223"/>
  <rect id="b307" x="200.15" y="307.83" width="61.265" height="21.223"/>
  <rect id="b305" x="108.05" y="307.83" width="61.504" height="21.223"/>
  <rect id="b303" x="44.267" y="307.83" width="61.38" height="21.223"/>
 </g>
</svg>
