<svg width="661.91mm" height="264.58mm" version="1.1" viewBox="0 0 661.91 264.58" xmlns="http://www.w3.org/2000/svg">
 <rect id="aud-b217" x="187.58" y="248.17" width="16.826" height="14.826" style="fill:none;stroke-width:.079375;stroke:#000"/>
 <rect id="aud-b217a" x="193.5" y="239.67" width="10.907" height="7.2972" style="fill:none;stroke-width:.079375;stroke:#000" ref="aud-k101a"/>
 <rect id="aud-gamf" x="1.8178" y="4.4756" width="22.565" height="37.939" style="fill:none;stroke-width:.079375;stroke:#000"/>
 <rect id="aud-g201" x="25.127" y="26.819" width="6.6951" height="15.596" style="fill:none;stroke-width:.079375;stroke:#000" ref="aud-g101"/>
 <rect x="194.24" y="1.8194" width="22.566" height="42.367" style="fill:none;stroke-width:.079375;stroke:#000"/>
 <rect x="445.33" y="18.681" width="11.796" height="8.3684" style="fill:none;stroke-width:.079375;stroke:#000"/>
 <path d="m445.33 27.563v7.573h11.628v-7.0846h-0.27447v-0.48848z" style="fill:none;stroke-width:.079375;stroke:#000"/>
 <rect x="445.33" y="36.339" width="22.904" height="7.8108" style="fill:none;stroke-width:.079375;stroke:#000"/>
 <path id="aud-v202" d="m1.8174 115.56v14.1h22.105v-14.1h-16.478z" style="fill:none;stroke-width:.079375;stroke:#000"/>
 <path id="aud-v201" d="m1.8174 138.63v14.877h22.885v-14.877h-15.589z" style="fill:none;stroke-width:.079375;stroke:#000"/>
 <rect id="aud-v201a" x="24.985" y="139.51" width="6.8013" height="13.993" style="fill:none;stroke-width:.079375;stroke:#000"/>
 <path transform="scale(.26458)" d="m94.98 16.914v83.381h25.301v-5.7227h11.918v2.6758h116.28v-2.6758h4.5469v2.6758h116.28v-2.6758h12.051v2.6758h41.303v-2.6758h4.5527v2.6758h115.94v-2.6758h4.5508v2.6758h116.28v-2.6758h11.916v8.4629h0.1543v63.951h35.73v12.064h-1.4688v213.35h1.2012v4.5527h-1.2012v95.023h-34.416v6.0703h-11.92v-1.5488h-116.85v1.5488h-4.5566v-1.5488h-116.05v1.5488h-4.5566v-1.5488h-40.871v1.5488h-12.066v-1.5488h-116.92v3.5449h-4.5566v-3.5449h-115.86v3.5449h-12.061v-63.262h-25.193v56.139h-27.084v28.176h27.084v3.3848h25.193v-8.1738h12.061v0.8086h115.86v-0.8086h4.5566v0.8086h116.92v-0.8086h12.066v0.8086h40.871v-0.8086h4.5566v0.8086h116.05v-0.8086h4.5566v0.8086h116.85v-0.8086h11.92v6.6348h35.83v4.5527h-5.3359v52.678h3.752v12.051h-1.1758v92.846h1.1758v4.5566h-1.1758v44.316h1.1758v4.5508h-1.1758v90.504h1.1758v4.5547h-1.1758v67.742h1.1758v4.5566h-34.107v9.748h-5.4883v-0.0742h-6.2539v-1.8672h-116.32v1.8672h-4.5508v-1.8672h-115.99v1.8672h-4.5547v-1.5488h-41.855v1.5488h-11.514v-1.8672h-116.44v1.8672h-4.5527v-1.8672h-116.04v1.8672h-12.221v-61.662h-25.178v87.783h25.178v-9.5996h12.221v2.2598h116.04v-2.3144h4.5527v2.3144h116.44v-2.3144h11.514v2.3144h0.38281v42.951h41.473v-45.266h4.5547v2.3144h115.99v-2.3144h4.5508v2.3144h116.32v-1.6777h6.2539v-0.0801h5.4883v0.87891h-0.13868v1.0273h2.6152v2.8086h-2.6152v56.744h30.262v-56.035h-1.8066v-4.5449h25.916v-27.58h-2.377v-4.5566h1.6973v-67.742h-1.6973v-4.5566h1.6973v-90.498h-1.6973v-4.5508h44.674v-19.953h5.7812v2.0703h79.217v-1.7324h2.8144v1.7324h156.98v-3.6074h8.3027v9.9062h-8.3027v-3.4805h-70.959v40.162h70.959v-6.416h13.678v-35.242h0.5449v-21.398h-9.6718v1.6074h-4.5508v-1.3242h-244.79v-6.6406h-44.674v-4.5566h1.6973v-92.846h-2.0547v-12.051h2.0547v-52.684h-2.8672v-4.5527h2.8672v-125.99h-2.5449v-4.5527h2.5449v-213.34h-1.3945v-12.051h1.3945v-95.396h-53.691v6.3633h-11.916v-1.3398h-116.28v1.2051h-4.5508v-1.2051h-115.94v1.2051h-4.5527v-44.178h-41.303v44.58h-12.051v-1.6074h-116.28v1.4727h-4.5469v-1.4727h-116.28v1.4727h-11.918v-61.186zm2287.4 0v51.508h-0.129v9.6777h-11.916v-1.4727h-116.28v1.4727h-4.5469v-1.4727h-116.29v1.6074h-12.051v-1.584h-41.303v1.1816h-4.5508v-1.2051h-115.95v1.2051h-4.5508v-1.2051h-116.28v1.3398h-12.186v-9.709h-53.557v3.1133h-4.5508v-1.1016h-39.264v62.52h40.678v-32.404h3.1367v-0.35157h1.4199v79.018h-1.2852v92.842h1.2051v4.5566s-0.9992 4e-3 -1.1953 4e-3v115.76h2.5352v4.7344h-2.545v95.02h0.5352v16.598h-19.664v14.367h19.664v4.5567h-0.5352v52.678h2.0547v12.051h-2.0547v92.846h1.6973v4.5566h-44.674v6.3633h-244.81v1.6074h-4.5508v-1.6074h-8.7598v21.398h0.627v35.238h12.686v5.4883h68.865v-39.625h-68.865v3.8711h-8.3027v-9.9062h8.3027v3.2207h231.42v-1.5488h13.391v19.812h44.674v4.5527h-1.6973v90.502h1.6973v4.5566h-1.6973v67.742h1.6973v4.5566h-2.3789v27.58h54.232v-0.80469h12.057v1.6738h116.68v-2.3086h4.1503v2.3086h115.94v-2.3086h4.5527v2.3086h41.303v-2.3086h12.051v2.3086h116.4v-2.3086h4.5508v2.3086h115.99v-2.2832h12.219v8.7441h25.168v-33.873h-3.7461v-2.8144h3.8105v-50.135h-25.232v50.133h1.3399v2.8145h-1.3399v8.6602h-12.219v-1.8711h-115.99v1.8711h-4.5547v-1.8711h-116.4v1.8711h-12.051v-1.5469h-41.309v1.5469h-4.5508v-1.8711h-115.95v0.45312h-4.1485v-0.45312h-116.68v1.8711h-12.055v-9.6973h-34.108v-4.5566h1.1758v-67.742h-1.1758v-4.5547h1.1758v-90.504h-1.1758v-4.5508h1.1758v-44.312h-1.1758v-4.5547h1.1758v-92.846h-1.1758v-12.051h33.979v-52.684h-34.488v-4.5527h34.488v-6.6348h12.184v0.80859h116.74v-0.80859h4.5566v0.80859h115.94v-0.80859h4.5469v0.80859h40.836v-0.80859h12.051v0.80859h116.81v-0.80859h4.5508v1.291h115.75v-1.291h11.916v7.5039h51.781v-30.926h-26.478v-54.928h-25.303v62.086h-11.916v-3.5449h-115.75v1.877h-4.5508v-1.877h-116.81v1.5488h-12.051v-1.5391h-40.836v1.5391h-4.5469v-1.5488h-115.94v1.5488h-4.5566v-1.5488h-116.74v1.5488h-12.184v-6.0703h-34.146v-95.02h-1.2012v-4.7305h1.1953v-115.76l-1.3301-4e-3v-4.5566h1.336v-92.846h-1.4688v-12.051h35.615v-62.412h-34.146v-4.5508h34.146v-5.4688h12.184v2.6758h116.28v-2.6758h4.5508v2.6758h115.95v-2.6758h4.5508v2.6758h41.303v-2.6758h12.051v2.6758h116.28v-2.6758h4.5528v2.6758h116.28v-2.6758h11.918v9.6035h25.301v-32.936h-2.6093v-2.8145h2.6093v-51.508zm-1169.6 673.71v5.3555h-27.877v-3.0371h-25.506v3.0371h-14.662v-3.0371h-25.506v3.0371h-13.32v-3.0371h-25.506v3.0371h-4.4493v21.398h0.3282v1.502h350.27v-1.502h0.4805v-21.398h-4.8535v-3.0371h-25.51v3.0371h-13.322v-3.0371h-25.506v3.0371h-14.66v-3.0371h-25.506v3.0371h-27.506v-5.3555z" style="fill-rule:evenodd;fill:#fff6d5;stroke-width:.3;stroke:#f00"/>
 <path d="m177.25 0.1706v7.0858h-143.79v-4.428h-33.299v41.233h33.299v-5.3144h143.79v7.0488h0.16022v72.781h-143.64v-4.428h-33.374v40.77h33.374v-5.3131h143.64v79.35h-144.21v-4.428h-32.802v39.887h32.802v-4.428h144.21v4.428h28.409v-62.414h65.711v15.3h118.61v-15.3h66.169v62.414h28.534v-4.4609h143.57v4.4609h33.319v-40.187h-33.319v4.6539h-143.57v-79.276h143.4v5.3131h33.483v-40.773h-33.483v4.428h-143.4v-80.062h143.82v5.5455h33.073v-41.235h-33.073v4.6591h-143.82v-7.3158h-41.163v45.613h12.629v136.71h-250.49v-136.7h12.629v-45.626h-41.198z" style="fill:none;stroke-width:.079375;stroke:#000"/>
 <rect id="aud-g219" x="144.91" y="26.474" width="11.504" height="10.627" style="fill:none;stroke-width:.079375;stroke:#000" ref="aud-g121"/>
 <rect x="156.7" y="26.474" width="3.4361" height="2.1336" style="fill:none;stroke-width:.079375;stroke:#000"/>
 <rect x="160.42" y="26.474" width="5.5616" height="2.1336" style="fill:none;stroke-width:.079375;stroke:#000"/>
 <rect x="166.26" y="26.474" width="5.5616" height="2.1336" style="fill:none;stroke-width:.079375;stroke:#000"/>
 <path d="m172.11 26.474v2.4162h-15.41v8.2112h18.978v-10.627z" style="fill:none;stroke-width:.079375;stroke:#000"/>
 <rect id="aud-g215a" x="131.66" y="26.474" width="5.9331" height="10.627" style="fill:#fff;stroke-width:.079375;stroke:#000"/>
 <rect id="aud-g217" x="137.87" y="26.474" width="5.9331" height="10.627" style="fill:#fff;stroke-width:.079375;stroke:#000"/>
 <rect id="aud-g211" x="100.9" y="26.474" width="5.3403" height="10.627" style="fill:#fff;stroke-width:.079375;stroke:#000"/>
 <rect id="aud-g213" x="106.49" y="26.474" width="5.3403" height="10.627" style="fill:#fff;stroke-width:.079375;stroke:#000"/>
 <rect x="137.87" y="8.9039" width="5.9331" height="10.627" style="fill:#fff;stroke-width:.079375;stroke:#000"/>
 <rect x="156.46" y="137.56" width="3.4361" height="2.1336" style="fill:none;stroke-width:.079375;stroke:#000"/>
 <rect x="160.18" y="137.56" width="5.5616" height="2.1336" style="fill:none;stroke-width:.079375;stroke:#000"/>
 <rect x="166.02" y="137.56" width="5.5616" height="2.1336" style="fill:none;stroke-width:.079375;stroke:#000"/>
 <path d="m171.87 137.56v2.4162h-15.41v8.2112h18.978v-10.627z" style="fill:none;stroke-width:.079375;stroke:#000"/>
 <rect id="aud-v203" x="34.736" y="137.56" width="5.9331" height="10.627" style="fill:#fff;stroke-width:.079375;stroke:#000"/>
 <rect id="aud-v205" x="40.944" y="137.56" width="5.9331" height="10.627" style="fill:#fff;stroke-width:.079375;stroke:#000"/>
 <rect id="aud-v207" x="47.152" y="137.56" width="5.9331" height="10.627" style="fill:#fff;stroke-width:.079375;stroke:#000"/>
 <rect id="aud-v209" x="53.36" y="137.56" width="5.9331" height="10.627" style="fill:#fff;stroke-width:.079375;stroke:#000"/>
 <rect id="aud-v209a" x="59.568" y="137.56" width="5.9331" height="10.627" style="fill:#fff;stroke-width:.079375;stroke:#000"/>
 <rect id="aud-v213" x="85.329" y="137.56" width="5.9331" height="10.627" style="fill:#fff;stroke-width:.079375;stroke:#000"/>
 <rect id="aud-v215" x="91.538" y="137.56" width="5.9331" height="10.627" style="fill:#fff;stroke-width:.079375;stroke:#000"/>
 <rect id="aud-v212a" x="112.79" y="119.99" width="5.9331" height="10.627" style="fill:#fff;stroke-width:.079375;stroke:#000"/>
 <rect transform="scale(-1)" x="-175.7" y="-240.99" width="3.4361" height="2.1336" style="fill:none;stroke-width:.079375;stroke:#000"/>
 <rect transform="scale(-1)" x="-171.98" y="-240.99" width="5.5616" height="2.1336" style="fill:none;stroke-width:.079375;stroke:#000"/>
 <rect transform="scale(-1)" x="-166.13" y="-240.99" width="5.5616" height="2.1336" style="fill:none;stroke-width:.079375;stroke:#000"/>
 <path d="m160.29 240.99v-2.4163h15.41v-8.2112h-18.978v10.627z" style="fill:none;stroke-width:.079375;stroke:#000"/>
 <rect id="aud-b203" x="59.826" y="247.94" width="5.9331" height="10.627" style="fill:#fff;stroke-width:.079375;stroke:#000"/>
 <rect id="aud-b205" x="66.962" y="247.94" width="5.9331" height="10.627" style="fill:#fff;stroke-width:.079375;stroke:#000"/>
 <rect id="aud-b209a" x="113.05" y="247.94" width="5.9331" height="10.627" style="fill:#fff;stroke-width:.079375;stroke:#000"/>
 <rect id="aud-b204" x="59.825" y="230.37" width="5.9331" height="10.627" style="fill:#fff;stroke-width:.079375;stroke:#000"/>
 <rect id="aud-b206" x="85.586" y="230.37" width="5.9331" height="10.627" style="fill:#fff;stroke-width:.079375;stroke:#000"/>
 <rect x="91.794" y="230.37" width="5.9331" height="10.627" style="fill:#fff;stroke-width:.079375;stroke:#000"/>
 <rect transform="scale(-1,1)" x="-505.44" y="26.473" width="3.4361" height="2.1336" style="fill:none;stroke-width:.079375;stroke:#000"/>
 <rect transform="scale(-1,1)" x="-501.72" y="26.473" width="5.5616" height="2.1336" style="fill:none;stroke-width:.079375;stroke:#000"/>
 <rect transform="scale(-1,1)" x="-495.87" y="26.473" width="5.5616" height="2.1336" style="fill:none;stroke-width:.079375;stroke:#000"/>
 <path d="m490.03 26.473v2.4162h15.41v8.2112h-18.978v-10.627z" style="fill:none;stroke-width:.079375;stroke:#000"/>
 <rect id="aud-j202a" x="621.22" y="26.473" width="5.9331" height="10.627" style="fill:#fff;stroke-width:.079375;stroke:#000"/>
 <rect id="aud-j202b" x="615.02" y="26.473" width="5.9331" height="10.627" style="fill:#fff;stroke-width:.079375;stroke:#000"/>
 <rect id="aud-j202v" x="608.81" y="26.473" width="5.9331" height="10.627" style="fill:#fff;stroke-width:.079375;stroke:#000"/>
 <rect id="aud-j202g" x="602.6" y="26.473" width="5.9331" height="10.627" style="fill:#fff;stroke-width:.079375;stroke:#000"/>
 <rect id="aud-j204" x="596.39" y="26.473" width="5.9331" height="10.627" style="fill:#fff;stroke-width:.079375;stroke:#000"/>
 <rect id="aud-j214" x="543.17" y="26.473" width="5.9331" height="10.627" style="fill:#fff;stroke-width:.079375;stroke:#000"/>
 <rect id="aud-j210" x="555.89" y="26.473" width="5.3403" height="10.627" style="fill:#fff;stroke-width:.079375;stroke:#000"/>
 <rect id="aud-j212" x="550.31" y="26.473" width="5.3403" height="10.627" style="fill:#fff;stroke-width:.079375;stroke:#000"/>
 <rect id="aud-j205a" x="602.6" y="8.9033" width="5.9331" height="10.627" style="fill:#fff;stroke-width:.079375;stroke:#000"/>
 <rect id="aud-j207" x="596.39" y="8.9033" width="5.9331" height="10.627" style="fill:#fff;stroke-width:.079375;stroke:#000"/>
 <rect id="aud-e228" x="505.86" y="137.56" width="11.504" height="10.627" style="fill:none;stroke-width:.079375;stroke:#000" ref="aud-g121"/>
 <rect transform="scale(-1,1)" x="-505.58" y="137.56" width="3.4361" height="2.1336" style="fill:none;stroke-width:.079375;stroke:#000"/>
 <rect transform="scale(-1,1)" x="-501.86" y="137.56" width="5.5616" height="2.1336" style="fill:none;stroke-width:.079375;stroke:#000"/>
 <rect transform="scale(-1,1)" x="-496.01" y="137.56" width="5.5616" height="2.1336" style="fill:none;stroke-width:.079375;stroke:#000"/>
 <path d="m490.17 137.56v2.4162h15.41v8.2112h-18.978v-10.627z" style="fill:none;stroke-width:.079375;stroke:#000"/>
 <rect id="aud-e222" x="524.69" y="137.56" width="5.9331" height="10.627" style="fill:#fff;stroke-width:.079375;stroke:#000"/>
 <rect id="aud-e224" x="518.48" y="137.56" width="5.9331" height="10.627" style="fill:#fff;stroke-width:.079375;stroke:#000"/>
 <rect id="aud-e216" x="556.03" y="137.56" width="5.3403" height="10.627" style="fill:#fff;stroke-width:.079375;stroke:#000"/>
 <rect id="aud-e218" x="550.45" y="137.56" width="5.3403" height="10.627" style="fill:#fff;stroke-width:.079375;stroke:#000"/>
 <rect id="aud-e203" x="621.37" y="119.99" width="5.9331" height="10.627" style="fill:#fff;stroke-width:.079375;stroke:#000"/>
 <rect x="615.16" y="119.99" width="5.9331" height="10.627" style="fill:#fff;stroke-width:.079375;stroke:#000"/>
 <rect id="aud-e209" x="589.4" y="119.99" width="5.9331" height="10.627" style="fill:#fff;stroke-width:.079375;stroke:#000"/>
 <rect id="aud-e211" x="583.19" y="119.99" width="5.9331" height="10.627" style="fill:#fff;stroke-width:.079375;stroke:#000"/>
 <rect id="aud-e215b" x="543.31" y="119.99" width="5.9331" height="10.627" style="fill:#fff;stroke-width:.079375;stroke:#000"/>
 <rect id="aud-e217" x="524.69" y="119.99" width="5.9331" height="10.627" style="fill:#fff;stroke-width:.079375;stroke:#000"/>
 <rect id="aud-e219" x="518.48" y="119.99" width="5.9331" height="10.627" style="fill:#fff;stroke-width:.079375;stroke:#000"/>
 <rect id="aud-e223a" x="499.01" y="119.99" width="5.9331" height="10.627" style="fill:#fff;stroke-width:.079375;stroke:#000"/>
 <rect id="aud-d218" x="505.75" y="247.94" width="11.504" height="10.627" style="fill:none;stroke-width:.079375;stroke:#000" ref="aud-g121"/>
 <g transform="matrix(2.5411 0 0 2.5411 84.435 -246.2)" style="stroke-width:.031236">
  <rect transform="scale(-1)" x="-165.44" y="-191.72" width="1.3522" height=".83961" style="fill:none;stroke-width:.031236;stroke:#000"/>
  <rect transform="scale(-1)" x="-163.97" y="-191.72" width="2.1886" height=".83961" style="fill:none;stroke-width:.031236;stroke:#000"/>
  <rect transform="scale(-1)" x="-161.67" y="-191.72" width="2.1886" height=".83961" style="fill:none;stroke-width:.031236;stroke:#000"/>
  <path d="m159.37 191.72v-0.95085h6.0642v-3.2313h-7.4683v4.1822z" style="fill:none;stroke-width:.031236;stroke:#000"/>
 </g>
 <rect id="aud-d204" x="596.42" y="247.94" width="5.9331" height="10.627" style="fill:#fff;stroke-width:.079375;stroke:#000"/>
 <rect id="aud-d206" x="589.29" y="247.94" width="5.9331" height="10.627" style="fill:#fff;stroke-width:.079375;stroke:#000"/>
 <rect id="aud-d212" x="530.78" y="247.94" width="5.9331" height="10.627" style="fill:#fff;stroke-width:.079375;stroke:#000"/>
 <rect id="aud-d214" x="524.58" y="247.94" width="5.9331" height="10.627" style="fill:#fff;stroke-width:.079375;stroke:#000"/>
 <rect id="aud-d216" x="518.37" y="247.94" width="5.9331" height="10.627" style="fill:#fff;stroke-width:.079375;stroke:#000"/>
 <rect id="aud-d203" x="596.42" y="230.37" width="5.9331" height="10.627" style="fill:#fff;stroke-width:.079375;stroke:#000"/>
 <rect id="aud-d205" x="589.29" y="230.37" width="5.9331" height="10.627" style="fill:#fff;stroke-width:.079375;stroke:#000"/>
 <rect id="aud-d215" x="518.37" y="230.37" width="5.9331" height="10.627" style="fill:#fff;stroke-width:.079375;stroke:#000"/>
 <rect id="aud-v200" x="1.818" y="130.41" width="15.275" height="7.4746" style="fill:none;stroke-width:.079375;stroke:#000"/>
 <rect id="aud-v211" x="66.705" y="137.56" width="18.349" height="10.627" style="fill:none;stroke-width:.079375;stroke:#000"/>
 <rect id="aud-v217" x="100.67" y="137.58" width="10.917" height="10.616" style="fill:none;stroke-width:.079375;stroke:#000"/>
 <rect id="aud-v219" x="112.79" y="137.56" width="12.141" height="10.627" style="fill:none;stroke-width:.079375;stroke:#000"/>
 <rect id="aud-v221" x="125.21" y="137.56" width="18.349" height="10.627" style="fill:none;stroke-width:.079375;stroke:#000"/>
 <rect id="aud-v223" x="144.67" y="137.56" width="5.5956" height="10.63" style="fill:#fff;stroke-width:.079375;stroke:#000"/>
 <rect id="aud-v225" x="150.52" y="137.56" width="5.5956" height="10.63" style="fill:#fff;stroke-width:.079375;stroke:#000"/>
 <rect id="aud-v204" x="34.735" y="119.99" width="18.349" height="10.627" style="fill:none;stroke-width:.079375;stroke:#000"/>
 <rect id="aud-v206" x="53.36" y="119.99" width="12.141" height="10.627" style="fill:none;stroke-width:.079375;stroke:#000"/>
 <rect id="aud-v208" x="66.704" y="119.99" width="18.349" height="10.627" style="fill:none;stroke-width:.079375;stroke:#000"/>
 <rect id="aud-v210" x="85.329" y="119.99" width="12.141" height="10.627" style="fill:none;stroke-width:.079375;stroke:#000"/>
 <rect id="aud-v210a" x="100.66" y="119.99" width="10.928" height="10.627" style="fill:none;stroke-width:.079375;stroke:#000"/>
 <rect id="aud-v212" x="119" y="119.99" width="24.558" height="10.627" style="fill:none;stroke-width:.079375;stroke:#000"/>
 <rect id="aud-v214" x="144.67" y="119.99" width="18.349" height="10.627" style="fill:none;stroke-width:.079375;stroke:#000"/>
 <rect id="aud-v216" x="163.3" y="119.99" width="12.141" height="10.627" style="fill:none;stroke-width:.079375;stroke:#000"/>
 <rect id="aud-g203" x="34.979" y="26.474" width="18.349" height="10.628" style="fill:none;stroke-width:.079375;stroke:#000"/>
 <rect id="aud-g205" x="53.603" y="26.474" width="12.141" height="10.628" style="fill:none;stroke-width:.079375;stroke:#000"/>
 <rect id="aud-g207" x="66.947" y="26.474" width="18.35" height="10.628" style="fill:none;stroke-width:.079375;stroke:#000"/>
 <rect id="aud-g209" x="85.572" y="26.474" width="12.141" height="10.628" style="fill:none;stroke-width:.079375;stroke:#000"/>
 <rect id="aud-g215" x="113.03" y="26.474" width="18.349" height="10.628" style="fill:none;stroke-width:.079375;stroke:#000"/>
 <rect id="aud-g204" x="34.978" y="8.9039" width="12.141" height="10.628" style="fill:none;stroke-width:.079375;stroke:#000"/>
 <rect id="aud-g206" x="47.394" y="8.9039" width="18.349" height="10.628" style="fill:none;stroke-width:.079375;stroke:#000"/>
 <rect id="aud-g208" x="66.947" y="8.9039" width="12.141" height="10.628" style="fill:none;stroke-width:.079375;stroke:#000"/>
 <rect id="aud-g210" x="79.364" y="8.9039" width="18.349" height="10.628" style="fill:none;stroke-width:.079375;stroke:#000"/>
 <rect x="113.03" y="8.9039" width="12.141" height="10.628" style="fill:none;stroke-width:.079375;stroke:#000"/>
 <rect id="aud-g212" x="125.45" y="8.9039" width="12.141" height="10.628" style="fill:none;stroke-width:.079375;stroke:#000"/>
 <rect id="aud-g216" x="144.92" y="8.9039" width="18.349" height="10.628" style="fill:none;stroke-width:.079375;stroke:#000"/>
 <rect id="aud-g218" x="163.54" y="8.9039" width="12.141" height="10.628" style="fill:none;stroke-width:.079375;stroke:#000"/>
 <rect id="aud-g220" x="178.84" y="1.7888" width="6.8447" height="16.905" style="fill:none;stroke-width:.079375;stroke:#000"/>
 <rect id="aud-g220b" x="186.19" y="1.8194" width="6.8447" height="16.905" style="fill:none;stroke-width:.079375;stroke:#000"/>
 <rect id="aud-bamf" x="1.8193" y="225.64" width="22.565" height="37.939" style="fill:none;stroke-width:.079375;stroke:#000"/>
 <rect id="aud-g201-6" x="25.128" y="249.51" width="6.6951" height="14.07" style="fill-rule:evenodd;fill:none;stroke-width:.079375;stroke:#000" ref="aud-g101">
  <title>Научное общество карбон</title>
 </rect>
 <rect id="aud-b201a" x="34.993" y="247.94" width="24.558" height="10.627" style="fill:none;stroke-width:.079375;stroke:#000"/>
 <rect id="aud-b207" x="73.17" y="247.94" width="24.558" height="10.627" style="fill:none;stroke-width:.079375;stroke:#000"/>
 <rect id="aud-b209" x="119.26" y="247.94" width="24.558" height="10.627" style="fill:none;stroke-width:.079375;stroke:#000"/>
 <rect id="aud-b216" x="150.83" y="230.37" width="5.3429" height="10.638" style="fill:#fff;stroke-width:.079375;stroke:#000"/>
 <rect id="aud-b211" x="144.93" y="247.94" width="5.9331" height="10.627" style="fill:#fff;stroke-width:.079375;stroke:#000"/>
 <rect id="aud-b213" x="151.13" y="247.94" width="5.9331" height="10.627" style="fill:#fff;stroke-width:.079375;stroke:#000"/>
 <rect id="aud-b215" x="169.76" y="247.94" width="5.9331" height="10.627" style="fill:#fff;stroke-width:.079375;stroke:#000"/>
 <rect id="aud-b215a" x="157.34" y="247.94" width="12.141" height="10.627" style="fill:none;stroke-width:.079375;stroke:#000"/>
 <rect id="aud-b202" x="34.993" y="230.37" width="24.558" height="10.627" style="fill:none;stroke-width:.079375;stroke:#000"/>
 <rect x="66.962" y="230.37" width="18.349" height="10.627" style="fill:none;stroke-width:.079375;stroke:#000"/>
 <rect id="aud-b210" x="100.92" y="230.37" width="10.928" height="10.627" style="fill:none;stroke-width:.079375;stroke:#000"/>
 <rect id="aud-b212" x="113.05" y="230.37" width="24.558" height="10.627" style="fill:none;stroke-width:.079375;stroke:#000"/>
 <rect id="aud-b214" x="137.88" y="230.37" width="12.392" height="10.627" style="fill:none;stroke-width:.079375;stroke:#000"/>
 <rect id="aud-d210" x="536.99" y="247.94" width="12.141" height="10.627" style="fill:none;stroke-width:.079375;stroke:#000"/>
 <rect id="aud-d208a" x="550.34" y="247.94" width="10.928" height="10.627" style="fill:none;stroke-width:.079375;stroke:#000"/>
 <rect id="aud-d208" x="564.45" y="247.94" width="24.558" height="10.627" style="fill:none;stroke-width:.079375;stroke:#000"/>
 <rect id="aud-d202" x="602.63" y="247.94" width="24.558" height="10.627" style="fill:none;stroke-width:.079375;stroke:#000"/>
 <rect id="aud-damf" x="637.75" y="225.96" width="22.565" height="37.939" style="fill:none;stroke-width:.079375;stroke:#000"/>
 <rect id="aud-d200" x="630.31" y="249.83" width="6.6951" height="14.07" style="fill-rule:evenodd;fill:none;stroke-width:.079375;stroke:#000" ref="aud-g101">
  <title>Научное общество карбон</title>
 </rect>
 <rect id="aud-d201" x="602.63" y="230.37" width="24.558" height="10.627" style="fill:none;stroke-width:.079375;stroke:#000"/>
 <rect id="aud-d207" x="564.46" y="230.37" width="24.558" height="10.627" style="fill:none;stroke-width:.079375;stroke:#000"/>
 <rect id="aud-d209" x="550.34" y="230.37" width="10.928" height="10.627" style="fill:none;stroke-width:.079375;stroke:#000"/>
 <rect id="aud-d213" x="536.99" y="230.37" width="12.141" height="10.627" style="fill:none;stroke-width:.079375;stroke:#000"/>
 <rect id="aud-d213a" x="524.58" y="230.37" width="12.141" height="10.627" style="fill:none;stroke-width:.079375;stroke:#000"/>
 <rect id="aud-d217" x="505.11" y="230.37" width="12.141" height="10.627" style="fill:none;stroke-width:.079375;stroke:#000"/>
 <rect x="486.06" y="247.94" width="18.349" height="10.627" style="fill:none;stroke-width:.079375;stroke:#000"/>
 <rect id="aud-jamf" x="637.75" y="4.4753" width="22.565" height="37.939" style="fill:none;stroke-width:.079375;stroke:#000"/>
 <rect id="aud-j200" x="630.31" y="28.345" width="6.6951" height="14.07" style="fill:none;stroke-width:.079375;stroke:#000" ref="aud-g101"/>
 <rect id="aud-j205" x="608.81" y="8.9033" width="18.349" height="10.628" style="fill:none;stroke-width:.079375;stroke:#000"/>
 <rect id="aud-j209" x="583.05" y="8.9033" width="12.141" height="10.628" style="fill:none;stroke-width:.079375;stroke:#000"/>
 <rect id="aud-j211" x="564.42" y="8.9033" width="18.349" height="10.628" style="fill:none;stroke-width:.079375;stroke:#000"/>
 <rect id="aud-j211a" x="550.31" y="8.9033" width="10.928" height="10.628" style="fill:none;stroke-width:.079375;stroke:#000"/>
 <rect id="aud-j213" x="536.96" y="8.9033" width="12.141" height="10.628" style="fill:none;stroke-width:.079375;stroke:#000"/>
 <rect id="aud-j215" x="518.34" y="8.9033" width="18.349" height="10.628" style="fill:none;stroke-width:.079375;stroke:#000"/>
 <rect id="aud-j217" x="498.87" y="8.9033" width="18.349" height="10.628" style="fill:none;stroke-width:.079375;stroke:#000"/>
 <rect id="aud-j217a" x="486.46" y="8.9033" width="12.141" height="10.628" style="fill:none;stroke-width:.079375;stroke:#000"/>
 <rect id="aud-j218" x="511.65" y="26.473" width="5.5711" height="10.627" style="fill:#fff;stroke-width:.079375;stroke:#000"/>
 <rect id="aud-j220" x="505.72" y="26.473" width="5.5711" height="10.627" style="fill:#fff;stroke-width:.079375;stroke:#000"/>
 <rect id="aud-j216" x="518.34" y="26.473" width="24.558" height="10.628" style="fill:none;stroke-width:.079375;stroke:#000"/>
 <rect id="aud-j208" x="564.42" y="26.473" width="18.349" height="10.628" style="fill:none;stroke-width:.079375;stroke:#000"/>
 <rect id="aud-j206" x="583.05" y="26.473" width="12.141" height="10.628" style="fill:none;stroke-width:.079375;stroke:#000"/>
 <rect id="aud-e223" x="486.6" y="119.99" width="12.141" height="10.627" style="fill:none;stroke-width:.079375;stroke:#000"/>
 <rect id="aud-e221" x="505.22" y="119.99" width="12.141" height="10.627" style="fill:none;stroke-width:.079375;stroke:#000"/>
 <rect id="aud-e215" x="530.89" y="119.99" width="12.141" height="10.627" style="fill:none;stroke-width:.079375;stroke:#000"/>
 <rect id="aud-e215a" x="550.43" y="119.99" width="10.805" height="10.627" style="fill:none;stroke-width:.079375;stroke:#000"/>
 <rect id="aud-e213" x="564.56" y="119.99" width="18.349" height="10.627" style="fill:none;stroke-width:.079375;stroke:#000"/>
 <rect id="aud-e207" x="596.53" y="119.99" width="18.349" height="10.627" style="fill:none;stroke-width:.079375;stroke:#000"/>
 <rect id="aud-e220" x="530.89" y="137.56" width="18.349" height="10.627" style="fill:none;stroke-width:.079375;stroke:#000"/>
 <rect id="aud-e214" x="564.56" y="137.56" width="18.349" height="10.627" style="fill:none;stroke-width:.079375;stroke:#000"/>
 <rect id="aud-e210" x="583.19" y="137.56" width="12.141" height="10.627" style="fill:none;stroke-width:.079375;stroke:#000"/>
 <rect id="aud-e208" x="596.53" y="137.56" width="18.349" height="10.627" style="fill:none;stroke-width:.079375;stroke:#000"/>
 <rect id="aud-e206" x="615.16" y="137.56" width="12.141" height="10.627" style="fill:none;stroke-width:.079375;stroke:#000"/>
 <rect id="aud-e204" x="630.31" y="139.74" width="6.6951" height="14.07" style="fill-rule:evenodd;fill:none;stroke-width:.079375;stroke:#000" ref="aud-g101">
  <title>Научное общество карбон</title>
 </rect>
 <rect id="aud-e200" x="637.75" y="139.74" width="22.565" height="14.069" style="fill:none;stroke-width:.079375;stroke:#000"/>
 <rect id="aud-e201" x="637.75" y="115.87" width="22.57" height="13.384" style="fill:none;stroke-width:.079375;stroke:#000"/>
 <rect id="aud-e202a" x="645.04" y="130.41" width="15.279" height="8.1824" style="fill:none;stroke-width:.079375;stroke:#000"/>
 <rect id="aud-j219" x="445.33" y="1.8194" width="37.939" height="15.958" style="fill:none;stroke-width:.079375;stroke:#000"/>
 <rect id="aud-k207b" x="193.78" y="139.56" width="10.627" height="13.939" style="fill:none;stroke-width:.079375;stroke:#000" ref="aud-k109a"/>
 <rect id="aud-k221" x="193.78" y="47.374" width="10.646" height="5.8992" style="fill:none;stroke-width:.079375;stroke:#000" ref="aud-k125"/>
 <rect id="aud-k219" x="193.78" y="53.598" width="10.646" height="5.8992" style="fill:none;stroke-width:.079375;stroke:#000" ref="aud-k125"/>
 <rect id="aud-k215" x="193.76" y="73.281" width="10.646" height="5.8992" style="fill:none;stroke-width:.079375;stroke:#000" ref="aud-k125"/>
 <rect id="aud-k213" x="193.76" y="79.441" width="10.646" height="5.8992" style="fill:none;stroke-width:.079375;stroke:#000" ref="aud-k125"/>
 <rect id="aud-k209" x="193.78" y="105.03" width="10.646" height="5.8992" style="fill:none;stroke-width:.079375;stroke:#000" ref="aud-k125"/>
 <rect id="aud-k201" x="193.76" y="232.68" width="10.646" height="5.7507" style="fill:none;stroke-width:.079375;stroke:#000" ref="aud-k125"/>
 <rect id="aud-k125-4-3-4-3" x="178.87" y="47.357" width="8.3245" height="5.8992" style="fill:none;stroke-width:.079375;stroke:#000" ref="aud-k125"/>
 <rect id="aud-k218" x="178.87" y="156.69" width="7.9704" height="5.8992" style="fill:none;stroke-width:.079375;stroke:#000" ref="aud-k125"/>
 <rect id="aud-k216" x="178.87" y="162.91" width="7.9704" height="5.8992" style="fill:none;stroke-width:.079375;stroke:#000" ref="aud-k125"/>
 <rect id="aud-k206" x="178.87" y="213.62" width="7.9704" height="5.7596" style="fill:none;stroke-width:.079375;stroke:#000" ref="aud-k125"/>
 <rect id="aud-k212" x="178.87" y="195.39" width="7.9704" height="5.7596" style="fill:none;stroke-width:.079375;stroke:#000" ref="aud-k125"/>
 <rect id="aud-k210" x="178.87" y="201.47" width="7.9704" height="5.7596" style="fill:none;stroke-width:.079375;stroke:#000" ref="aud-k125"/>
 <rect id="aud-k208" x="178.87" y="207.54" width="7.9704" height="5.7596" style="fill:none;stroke-width:.079375;stroke:#000" ref="aud-k125"/>
 <rect id="aud-k202" x="178.87" y="232.68" width="7.9704" height="5.7507" style="fill:none;stroke-width:.079375;stroke:#000" ref="aud-k125"/>
 <rect id="aud-i221a" x="457.73" y="239.67" width="10.907" height="7.2972" style="fill:none;stroke-width:.079375;stroke:#000" ref="aud-i131a"/>
 <path id="aud-i213a" d="m457.73 130.31v8.1981h5.6453v-4.5593h4.9803v-3.6388z" style="fill:none;stroke-width:.079375;stroke:#000"/>
 <rect id="aud-i213" transform="scale(-1,1)" x="-468.35" y="139.71" width="10.627" height="13.939" style="fill:none;stroke-width:.079375;stroke:#000" ref="aud-k109a"/>
 <rect id="aud-i207" x="457.71" y="98.07" width="10.646" height="5.8992" style="fill:none;stroke-width:.079375;stroke:#000" ref="aud-k125"/>
 <path id="aud-i209" d="m457.71 105.17v5.8988h6.73v0.32436h-6.73v5.9001h10.646v-5.9001h-2.1076v-0.32436h2.1076v-5.8988z" style="fill:none;stroke-width:.079375;stroke:#000"/>
 <path id="aud-i215" d="m457.71 156.84v5.8988h4.2783v0.32435h-4.2783v5.9001h10.646v-5.9001h-4.4057v-0.32435h4.4057v-5.8988z" style="fill:none;stroke-width:.079375;stroke:#000"/>
 <rect id="aud-i219" x="457.73" y="213.72" width="10.646" height="5.7596" style="fill:none;stroke-width:.079375;stroke:#000" ref="aud-k125"/>
 <rect id="aud-i216" x="474.94" y="123.84" width="8.3095" height="5.8992" style="fill:none;stroke-width:.079375;stroke:#000" ref="aud-k125"/>
 <rect id="aud-i212" x="474.94" y="105.17" width="8.3095" height="5.8992" style="fill:none;stroke-width:.079375;stroke:#000" ref="aud-k125"/>
 <rect id="aud-i218" x="475.3" y="156.84" width="7.9704" height="5.8992" style="fill:none;stroke-width:.079375;stroke:#000" ref="aud-k125"/>
 <rect id="aud-i220" x="475.3" y="163.06" width="7.9704" height="5.8992" style="fill:none;stroke-width:.079375;stroke:#000" ref="aud-k125"/>
 <rect id="aud-i226" x="475.3" y="213.77" width="7.9704" height="5.7596" style="fill:none;stroke-width:.079375;stroke:#000" ref="aud-k125"/>
 <rect id="aud-i223" x="457.73" y="248.17" width="25.54" height="14.826" style="fill:none;stroke-width:.079375;stroke:#000"/>
 <rect id="aud-i221" x="457.73" y="220.69" width="10.646" height="17.885" style="fill:none;stroke-width:.079375;stroke:#000"/>
 <path id="aud-i217" d="m457.73 195.49v17.912h10.646v-12.186h-5.1949v-5.7254z" style="fill:none;stroke-width:.079375;stroke:#000"/>
 <rect id="aud-i215a" x="457.71" y="169.29" width="10.646" height="12.123" style="fill:none;stroke-width:.079375;stroke:#000"/>
 <rect id="aud-i211" x="457.71" y="117.62" width="10.646" height="12.123" style="fill:none;stroke-width:.079375;stroke:#000"/>
 <rect id="aud-i205" x="457.73" y="85.748" width="10.627" height="12.06" style="fill:none;stroke-width:.079375;stroke:#000"/>
 <rect id="aud-i203" x="457.73" y="73.427" width="10.646" height="12.06" style="fill:none;stroke-width:.079375;stroke:#000"/>
 <rect id="aud-i201" x="457.71" y="47.521" width="10.646" height="24.57" style="fill:none;stroke-width:.079375;stroke:#000"/>
 <rect id="aud-i228" x="475.3" y="220.69" width="7.9704" height="17.885" style="fill:none;stroke-width:.079375;stroke:#000"/>
 <path id="aud-i224" d="m475.3 195.54v17.913h3.4681v-5.8344h0.55547v5.8344h3.9474v-5.2487h-2.5751v-0.58567h2.5751v-12.079z" style="fill:none;stroke-width:.079375;stroke:#000"/>
 <path id="aud-i222" d="m475.3 169.29v12.122h3.0085v1.2016h-3.0085v11.836h7.9709v-11.836h-2.8811v-1.2016h2.8811v-12.122z" style="fill:none;stroke-width:.079375;stroke:#000"/>
 <rect id="aud-i214" x="474.94" y="111.4" width="8.3095" height="12.123" style="fill:none;stroke-width:.079375;stroke:#000"/>
 <rect id="aud-i210" x="474.92" y="91.774" width="8.3287" height="12.06" style="fill:none;stroke-width:.079375;stroke:#000"/>
 <rect id="aud-i208" x="474.94" y="73.292" width="8.3287" height="18.22" style="fill:none;stroke-width:.079375;stroke:#000"/>
 <rect id="aud-i202" x="474.94" y="47.504" width="8.3245" height="24.57" style="fill:none;stroke-width:.079375;stroke:#000"/>
 <rect id="aud-k201a" x="193.76" y="220.54" width="10.646" height="11.818" style="fill:none;stroke-width:.079375;stroke:#000"/>
 <rect id="aud-k203" x="193.76" y="195.35" width="10.646" height="23.988" style="fill:none;stroke-width:.079375;stroke:#000"/>
 <rect id="aud-k205" x="193.78" y="156.69" width="10.646" height="24.57" style="fill:none;stroke-width:.079375;stroke:#000"/>
 <path d="m193.78 134.44v3.9224h6.1469c3.8e-4 -0.0226 5e-3 -0.0444 5e-3 -0.067 0-2.1355-1.7186-3.8555-3.8541-3.8555z" style="fill:none;stroke-width:.079375;stroke:#000"/>
 <path d="m193.78 134.44v3.9224h6.1469c3.8e-4 -0.0229 5e-3 -0.0444 5e-3 -0.0671 0-2.1355-1.7186-3.8555-3.8541-3.8555z" style="fill:none;stroke-width:.079375;stroke:#000"/>
 <path id="aud-k207a" d="m193.78 130.16v4.2757h2.2967c2.1355 0 3.8542 1.72 3.8542 3.8555 0 0.0229-3e-3 0.044-5e-3 0.0671h4.4792v-8.1981z" style="fill:none;stroke-width:.079375;stroke:#000"/>
 <rect id="aud-k207" x="193.78" y="111.25" width="10.646" height="18.346" style="fill:none;stroke-width:.079375;stroke:#000"/>
 <rect id="aud-k211" x="193.78" y="85.602" width="10.627" height="18.22" style="fill:none;stroke-width:.079375;stroke:#000"/>
 <rect id="aud-k217" x="193.78" y="59.822" width="10.646" height="12.123" style="fill:none;stroke-width:.079375;stroke:#000"/>
 <rect id="aud-k226" x="178.87" y="53.581" width="8.3245" height="18.346" style="fill:none;stroke-width:.079375;stroke:#000"/>
 <rect id="aud-k224" x="178.87" y="73.145" width="8.3287" height="18.22" style="fill:none;stroke-width:.079375;stroke:#000"/>
 <rect id="aud-k224a" x="178.88" y="91.627" width="8.3287" height="12.06" style="fill:none;stroke-width:.079375;stroke:#000"/>
 <rect id="aud-k222" x="178.88" y="105.03" width="8.3095" height="24.57" style="fill:none;stroke-width:.079375;stroke:#000"/>
 <rect id="aud-k214" x="178.87" y="169.14" width="7.9704" height="12.123" style="fill:none;stroke-width:.079375;stroke:#000"/>
 <rect id="aud-k212a" x="178.87" y="182.46" width="7.9704" height="11.836" style="fill:none;stroke-width:.079375;stroke:#000"/>
 <rect id="aud-k204" x="178.87" y="220.54" width="7.9704" height="11.818" style="fill:none;stroke-width:.079375;stroke:#000"/>
 <path id="aud-213" transform="scale(.26458)" d="m786.46 718.88v40.162h23.162v-18.654h1.4707v18.654h23.162v-18.654h1.4727v18.654h23.162v-40.162h-23.162v14.488h-1.4727v-14.488h-23.162v14.488h-1.4707v-14.488h-23.162z" style="fill:none;opacity:.99;stroke-width:.3;stroke:#000"/>
 <rect x="273.26" y="190.2" width="11.073" height="25.682" style="fill:none;opacity:.99;stroke-width:.079375;stroke:#000"/>
 <rect id="aud-a209" x="243.67" y="190.2" width="6.1282" height="10.627" style="fill:none;opacity:.99;stroke-width:.079375;stroke:#000"/>
 <rect x="378" y="190.49" width="11.073" height="25.399" style="fill:none;opacity:.99;stroke-width:.079375;stroke:#000"/>
 <rect id="aud-a305" x="425.51" y="190.1" width="6.1282" height="10.627" style="fill:none;opacity:.99;stroke-width:.079375;stroke:#000"/>
 <rect id="aud-a309" x="412.48" y="190.1" width="6.1282" height="10.627" style="fill:none;opacity:.99;stroke-width:.079375;stroke:#000"/>
 <rect id="aud-a307" x="418.99" y="190.1" width="6.1282" height="10.627" style="fill:none;opacity:.99;stroke-width:.079375;stroke:#000"/>
 <rect id="aud-a303" x="432.38" y="190.1" width="21.809" height="10.627" style="fill:none;opacity:.99;stroke-width:.079375;stroke:#000"/>
 <path id="aud-a211" transform="scale(.26458)" d="m861.69 718.87v40.182h18.256v-18.664h1.4414v18.664h18.256v-18.664h1.4414v18.664h18.256v-40.182h-18.256v14.498h-1.4414v-14.498h-18.256v14.498h-1.4414v-14.498h-18.256z" style="fill:none;opacity:.99;stroke-width:.3;stroke:#000"/>
 <rect id="aud-a203" x="378" y="183.34" width="11.072" height="6.8613" style="fill:none;opacity:.99;stroke-width:.079375;stroke:#000"/>
 <rect x="273.27" y="182.96" width="11.072" height="6.8613" style="fill:none;opacity:.99;stroke-width:.079375;stroke:#000"/>
</svg>
