<svg width="661.91mm" height="264.58mm" version="1.1" viewBox="0 0 661.91 264.58" xmlns="http://www.w3.org/2000/svg">
 <rect id="aud-b217" x="187.58" y="248.17" width="16.826" height="14.826" style="fill:none;stroke-width:.2017;stroke:#000"/>
 <rect id="aud-b217a" x="193.5" y="239.67" width="10.907" height="7.2972" style="fill:none;stroke-width:.2017;stroke:#000" ref="aud-k101a"/>
 <rect id="aud-gamf" x="1.8178" y="4.4756" width="22.565" height="37.939" style="fill:none;stroke-width:.2017;stroke:#000"/>
 <rect id="aud-g201" x="25.127" y="26.819" width="6.6951" height="15.596" style="fill:none;stroke-width:.2017;stroke:#000" ref="aud-g101"/>
 <rect x="194.24" y="1.8194" width="22.566" height="42.367" style="fill:none;stroke-width:.2017;stroke:#000"/>
 <rect x="445.33" y="18.681" width="11.796" height="8.3684" style="fill:none;stroke-width:.2017;stroke:#000"/>
 <path d="m445.33 27.563v7.573h11.628v-7.0846h-0.27447v-0.48848z" style="fill:none;stroke-width:.2017;stroke:#000"/>
 <rect x="445.33" y="36.339" width="22.904" height="7.8108" style="fill:none;stroke-width:.2017;stroke:#000"/>
 <path id="aud-v202" d="m1.8174 115.56v14.1h22.105v-14.1h-16.478z" style="fill:none;stroke-width:.2017;stroke:#000"/>
 <path id="aud-v201" d="m1.8174 138.63v14.877h22.885v-14.877h-15.589z" style="fill:none;stroke-width:.2017;stroke:#000"/>
 <rect id="aud-v201a" x="24.985" y="139.51" width="6.8013" height="13.993" style="fill:none;stroke-width:.2017;stroke:#000"/>
 <rect x="381.94" y="199.41" width="6.7835" height="16.472" style="fill:none;stroke-width:.072583;stroke:#f00"/>
 <rect x="412.48" y="190.1" width="41.707" height="10.485" style="fill:none;stroke-width:.067234;stroke:#000"/>
 <rect x="280.37" y="203.63" width="3.6136" height="7.6844" style="fill:none;stroke-width:.067234;stroke:#000"/>
 <rect x="280.37" y="211.6" width="13.353" height="4.286" style="fill:none;stroke-width:.067234;stroke:#000"/>
 <path d="m272.92 199.41v16.47h7.1752v-14.266h-1.7715v-2.2035z" style="fill:none;stroke-width:.067234;stroke:#000"/>
 <path d="m286.93 200.47-1e-4 3.1602h-2.6566v7.6847h9.4548v-11.561l-5.9802 0.063z" style="fill:none;stroke-width:.067234;stroke:#000"/>
 <path d="m294.01 199.75v16.13h10.344v-16.13h-0.61061z" style="fill:none;stroke-width:.067234;stroke:#000"/>
 <path d="m304.64 199.75v16.13h10.353v-16.13h-9.7424z" style="fill:none;stroke-width:.067418;stroke:#000"/>
 <path d="m25.13 4.4753v22.061h6.6945v-1.5141h3.1529v0.70779h30.766v-0.70779h1.2029v0.70779h30.766v-0.70779h3.1884v0.70779h10.928v-0.70779h1.2042v0.70779h30.677v-0.70779h1.2042v0.70779h30.765v-0.70779h3.1529v2.239h0.0407v16.92h9.4535v3.1923h-0.3887v56.448h0.31782v1.2042h-0.31779v25.142h-9.1055v1.606h-3.1542v-0.40971h-30.917v0.40971h-1.2055v-0.40971h-30.706v0.40971h-1.2055v-0.40971h-10.814v0.40971h-3.1923v-0.40971h-30.934v0.9376h-1.2055v-0.9376h-30.653v0.9376h-3.191v-16.738h-6.6656v14.853h-7.166v7.4549h7.166v0.89558h6.6656v-2.1628h3.191v0.21404h30.653v-0.21404h1.2055v0.21404h30.934v-0.21404h3.1923v0.21404h10.814v-0.21404h1.2055v0.21404h30.706v-0.21404h1.2055v0.21404h30.917v-0.21404h3.1542v1.7557h9.4798v1.2042h-1.4117v13.938h0.99275v3.1884h-0.31121v24.565h0.31121v1.2055h-0.31121v11.725h0.31121v1.2042h-0.31121v23.946h0.31121v1.2055h-0.31121v17.923h0.31121v1.2055h-9.0241v2.5791h-1.4524v-0.0198h-1.6546v-0.49375h-30.775v0.49375h-1.2042v-0.49363h-30.689v0.49375h-1.2055v-0.40971h-11.074v0.40971h-3.0466v-0.49375h-30.807v0.49375h-1.2042v-0.49375h-30.702v0.49375h-3.233v-16.315h-6.6617v23.226h6.6617v-2.5397h3.233v0.59749h30.702v-0.61193h1.2042v0.61193h30.807v-0.61193h3.0466v0.61193h0.10111v11.364h10.973v-11.976h1.2055v0.61193h30.689v-0.61193h1.2042v0.61193h30.775v-0.44384h1.6546v-0.0211h1.4524v0.23243h-0.0368v0.27183h0.69202v0.74325h-0.69202v15.013h8.0064v-14.826h-0.47801v-1.2029h6.8574v-7.2973h-0.62904v-1.2055h0.44913v-17.923h-0.44913v-1.2055h0.44913v-23.944h-0.44913v-1.2042h11.82v-5.279h1.5298v0.5476h20.96v-0.4583h0.74455v0.4583h41.534v-0.95468h2.197v2.6211h-2.197v-0.92053h-18.774v10.626h18.774v-1.6979h14.382v0.28365h-2.4766v2.2035h-0.7091v1.7281h6.2704v-2.9809h0.28365l1.1582-0.8772h27.175v0.67102h-8e-3v2.021h0.092v7.7149h-0.0879v1.9251h0.0102v0.0342h-0.0102v3.9408h31.62v-15.511h0.26526v15.511h34.515v-14.046l-1e-3 -2.3348-3.9316-1e-3v-0.28364h15.23v1.4524h18.22v-10.484h-18.22v1.0243h-2.1969v-2.6211h2.1969v0.85225h61.229v-0.40972h3.5429v5.2422h11.82v1.2042h-0.44909v23.946h0.44909v1.2055h-0.44909v17.923h0.44909v1.2055h-0.62901v7.2973h14.349v-0.21275h3.1897v0.44254h30.871v-0.61061h1.0978v0.61062h30.677v-0.61062h1.2042v0.61062h10.928v-0.61062h3.1884v0.61062h30.798v-0.61062h1.2042v0.61062h30.689v-0.60406h3.233v2.3138h6.6591v-8.9624h-0.99145v-0.74456h1.0085v-13.265h-6.6762v13.264h0.35456v0.74456h-0.35456v2.2915h-3.233v-0.49507h-30.689v0.49507h-1.2055v-0.49507h-30.796v0.49507h-3.1884v-0.40971h-10.93v0.40971h-1.2042v-0.49507h-30.677v0.11949h-1.0978v-0.11949h-30.871v0.49507h-3.1897v-2.5659h-9.0241v-1.2055h0.31121v-17.923h-0.31121v-1.2055h0.31121v-23.946h-0.31121v-1.2042h0.31121v-11.724h-0.31121v-1.2055h0.31121v-24.565h-0.31121v-3.1884h8.99v-13.939h-9.1252v-1.2042h9.1252v-1.7557h3.2238v0.21405h30.888v-0.21405h1.2055v0.21405h30.677v-0.21405h1.2029v0.21405h10.805v-0.21405h3.1884v0.21405h30.907v-0.21405h1.2042v0.34143h30.624v-0.34143h3.1529v1.9855h13.7v-8.1824h-7.0058v-14.533h-6.6945v16.426h-3.1529v-0.9376h-30.624v0.49638h-1.2042v-0.49638h-30.907v0.4097h-3.1884v-0.40708h-10.805v0.40708h-1.2029v-0.4097h-30.677v0.4097h-1.2055v-0.4097h-30.888v0.4097h-3.2238v-1.606h-9.0346v-25.141h-0.31777v-1.2515h0.31648v-30.627l-0.35195-0.0013v-1.2055h0.35324v-24.565h-0.38869v-3.1884h9.4233v-16.513h-9.0346v-1.2042h9.0346v-1.4471h3.2238v0.7078h30.765v-0.7078h1.2042v0.7078h30.677v-0.7078h1.2042v0.7078h10.928v-0.7078h3.1884v0.7078h30.766v-0.7078h1.2042v0.7078h30.766v-0.7078h3.1529v2.541h6.6945v-8.7142h-0.69073v-0.74456h0.69073v-13.628h-6.6591v13.628h-0.0341v2.5607h-3.1529v-0.39001h-30.766v0.39001h-1.2029v-0.39001h-30.768v0.42546h-3.1884v-0.4189h-10.928v0.31254h-1.2043v-0.3191h-30.677v0.3191h-1.2042v-0.3191h-30.765v0.35455h-3.224v-2.5686h-14.17v0.82336h-1.2042v-0.29152h-10.388v16.542h10.763v-8.5737h0.82991v-0.0932h0.37558v20.907h-0.34013v24.564h0.31911v1.2055s-0.26463 0.0013-0.3165 0.0013v30.627h0.67104v1.2528h-0.67365v25.141h0.14179v4.3912h-5.2028v3.8016h5.2028v1.2052h-0.14179v13.938h0.54365v3.1884h-0.54365v24.565h0.44912v1.2055h-11.82v1.6835h-64.772v0.42546h-1.2042v-0.42546h-5.0202v-0.80367h-6.7484v0.80367h-3.7018v-0.80367h-6.7497v0.80367h-3.5246v-0.80367h-6.7484v0.80367h-3.8791v-0.80367h-6.7484v0.80367h-7.2776v-1.4169h-20.475v1.4169h-7.3761v-0.80367h-6.7484v0.80367h-3.8791v-0.80367h-6.7484v0.80367h-3.5245v-0.80367h-6.7484v0.80367h-3.7018v-0.80367h-0.93105v0.29021h-5.816v0.51346h-5.0215v0.42546h-1.2041v-0.35061h-64.768v-1.757h-11.82v-1.2055h0.44909v-24.565h-0.54365v-3.1884h0.54365v-13.939h-0.75899v-1.2042h0.75899v-33.335h-0.67365v-1.2042h0.67365v-56.446h-0.369v-3.1884h0.369v-25.24h-14.206v1.6835h-3.1529v-0.35455h-30.765v0.3191h-1.2042v-0.3191h-30.677v0.3191h-1.2042v-11.689h-10.928v11.795h-3.1884v-0.42546h-30.766v0.39001h-1.2029v-0.39001h-30.766v0.39001h-3.1529v-16.189zm303.72 196 4.537 0.0289 3.1254 1.7544v7.6361l-3.2357 1.9606h-4.4267c-0.95686-0.52235-2.2819-1.4424-3.2212-1.9606v-7.7136z" style="fill-rule:evenodd;fill:#fff6d5;stroke-width:.13447;stroke:#f00"/>
 <path d="m177.25 0.1706v7.0858h-143.79v-4.428h-33.299v41.233h33.299v-5.3144h143.79v7.0488h0.16022v72.781h-143.64v-4.428h-33.374v40.77h33.374v-5.3131h143.64v79.35h-144.21v-4.428h-32.802v39.887h32.802v-4.428h144.21v4.428h28.409v-62.414h65.711v15.3h118.61v-15.3h66.169v62.414h28.534v-4.4609h143.57v4.4609h33.319v-40.187h-33.319v4.6539h-143.57v-79.276h143.4v5.3131h33.483v-40.773h-33.483v4.428h-143.4v-80.062h143.82v5.5455h33.073v-41.235h-33.073v4.6591h-143.82v-7.3158h-41.163v45.613h12.629v136.71h-250.49v-136.7h12.629v-45.626h-41.198z" style="fill:none;stroke-width:.33502;stroke:#000"/>
 <path id="aud-a115" d="m207.74 190.2v5.8292h6.5882v-3.0137h0.28364v7.8107h5.8804v-10.626h-5.8804v1.7531h-0.28364v-1.7531z" style="fill:none;stroke-width:.13447;stroke:#000"/>
 <rect x="207.74" y="196.32" width="6.5881" height="4.5137" style="fill:none;stroke-width:.13447;stroke:#000"/>
 <rect id="aud-a113" x="220.77" y="190.2" width="6.1282" height="10.627" style="fill:none;stroke-width:.13447;stroke:#000"/>
 <rect id="aud-a111" x="227.64" y="189.74" width="16.454" height="11.087" style="fill:none;stroke-width:.13447;stroke:#000"/>
 <rect x="244.38" y="189.74" width="5.2783" height="11.087" style="fill:none;stroke-width:.13447;stroke:#000"/>
 <rect id="aud-g219" x="144.91" y="26.474" width="11.504" height="10.627" style="fill:none;stroke-width:.2017;stroke:#000" ref="aud-g121"/>
 <rect x="156.7" y="26.474" width="3.4361" height="2.1336" style="fill:none;stroke-width:.2017;stroke:#000"/>
 <rect x="160.42" y="26.474" width="5.5616" height="2.1336" style="fill:none;stroke-width:.2017;stroke:#000"/>
 <rect x="166.26" y="26.474" width="5.5616" height="2.1336" style="fill:none;stroke-width:.2017;stroke:#000"/>
 <path d="m172.11 26.474v2.4162h-15.41v8.2112h18.978v-10.627z" style="fill:none;stroke-width:.2017;stroke:#000"/>
 <rect id="aud-g215a" x="131.66" y="26.474" width="5.9331" height="10.627" style="fill:#fff;stroke-width:.20075;stroke:#000"/>
 <rect id="aud-g217" x="137.87" y="26.474" width="5.9331" height="10.627" style="fill:#fff;stroke-width:.20075;stroke:#000"/>
 <rect id="aud-g211" x="100.9" y="26.474" width="5.3403" height="10.627" style="fill:#fff;stroke-width:.19046;stroke:#000"/>
 <rect id="aud-g213" x="106.49" y="26.474" width="5.3403" height="10.627" style="fill:#fff;stroke-width:.19046;stroke:#000"/>
 <rect x="137.87" y="8.9039" width="5.9331" height="10.627" style="fill:#fff;stroke-width:.20075;stroke:#000"/>
 <rect x="156.46" y="137.56" width="3.4361" height="2.1336" style="fill:none;stroke-width:.2017;stroke:#000"/>
 <rect x="160.18" y="137.56" width="5.5616" height="2.1336" style="fill:none;stroke-width:.2017;stroke:#000"/>
 <rect x="166.02" y="137.56" width="5.5616" height="2.1336" style="fill:none;stroke-width:.2017;stroke:#000"/>
 <path d="m171.87 137.56v2.4162h-15.41v8.2112h18.978v-10.627z" style="fill:none;stroke-width:.2017;stroke:#000"/>
 <rect id="aud-v203" x="34.736" y="137.56" width="5.9331" height="10.627" style="fill:#fff;stroke-width:.20075;stroke:#000"/>
 <rect id="aud-v205" x="40.944" y="137.56" width="5.9331" height="10.627" style="fill:#fff;stroke-width:.20075;stroke:#000"/>
 <rect id="aud-v207" x="47.152" y="137.56" width="5.9331" height="10.627" style="fill:#fff;stroke-width:.20075;stroke:#000"/>
 <rect id="aud-v209" x="53.36" y="137.56" width="5.9331" height="10.627" style="fill:#fff;stroke-width:.20075;stroke:#000"/>
 <rect id="aud-v209a" x="59.568" y="137.56" width="5.9331" height="10.627" style="fill:#fff;stroke-width:.20075;stroke:#000"/>
 <rect id="aud-v213" x="85.329" y="137.56" width="5.9331" height="10.627" style="fill:#fff;stroke-width:.20075;stroke:#000"/>
 <rect id="aud-v215" x="91.538" y="137.56" width="5.9331" height="10.627" style="fill:#fff;stroke-width:.20075;stroke:#000"/>
 <rect id="aud-v212a" x="112.79" y="119.99" width="5.9331" height="10.627" style="fill:#fff;stroke-width:.20075;stroke:#000"/>
 <rect transform="scale(-1)" x="-175.7" y="-240.99" width="3.4361" height="2.1336" style="fill:none;stroke-width:.2017;stroke:#000"/>
 <rect transform="scale(-1)" x="-171.98" y="-240.99" width="5.5616" height="2.1336" style="fill:none;stroke-width:.2017;stroke:#000"/>
 <rect transform="scale(-1)" x="-166.13" y="-240.99" width="5.5616" height="2.1336" style="fill:none;stroke-width:.2017;stroke:#000"/>
 <path d="m160.29 240.99v-2.4163h15.41v-8.2112h-18.978v10.627z" style="fill:none;stroke-width:.2017;stroke:#000"/>
 <rect id="aud-b203" x="59.826" y="247.94" width="5.9331" height="10.627" style="fill:#fff;stroke-width:.20075;stroke:#000"/>
 <rect id="aud-b205" x="66.962" y="247.94" width="5.9331" height="10.627" style="fill:#fff;stroke-width:.20075;stroke:#000"/>
 <rect id="aud-b209a" x="113.05" y="247.94" width="5.9331" height="10.627" style="fill:#fff;stroke-width:.20075;stroke:#000"/>
 <rect id="aud-b204" x="59.825" y="230.37" width="5.9331" height="10.627" style="fill:#fff;stroke-width:.20075;stroke:#000"/>
 <rect id="aud-b206" x="85.586" y="230.37" width="5.9331" height="10.627" style="fill:#fff;stroke-width:.20075;stroke:#000"/>
 <rect x="91.794" y="230.37" width="5.9331" height="10.627" style="fill:#fff;stroke-width:.20075;stroke:#000"/>
 <rect transform="scale(-1,1)" x="-505.44" y="26.473" width="3.4361" height="2.1336" style="fill:none;stroke-width:.2017;stroke:#000"/>
 <rect transform="scale(-1,1)" x="-501.72" y="26.473" width="5.5616" height="2.1336" style="fill:none;stroke-width:.2017;stroke:#000"/>
 <rect transform="scale(-1,1)" x="-495.87" y="26.473" width="5.5616" height="2.1336" style="fill:none;stroke-width:.2017;stroke:#000"/>
 <path d="m490.03 26.473v2.4162h15.41v8.2112h-18.978v-10.627z" style="fill:none;stroke-width:.2017;stroke:#000"/>
 <rect id="aud-j202a" transform="scale(-1,1)" x="-627.16" y="26.473" width="5.9331" height="10.627" style="fill:#fff;stroke-width:.20075;stroke:#000"/>
 <rect id="aud-j202b" transform="scale(-1,1)" x="-620.95" y="26.473" width="5.9331" height="10.627" style="fill:#fff;stroke-width:.20075;stroke:#000"/>
 <rect id="aud-j202v" transform="scale(-1,1)" x="-614.74" y="26.473" width="5.9331" height="10.627" style="fill:#fff;stroke-width:.20075;stroke:#000"/>
 <rect id="aud-j202g" transform="scale(-1,1)" x="-608.53" y="26.473" width="5.9331" height="10.627" style="fill:#fff;stroke-width:.20075;stroke:#000"/>
 <rect id="aud-j204" transform="scale(-1,1)" x="-602.33" y="26.473" width="5.9331" height="10.627" style="fill:#fff;stroke-width:.20075;stroke:#000"/>
 <rect id="aud-j214" transform="scale(-1,1)" x="-549.1" y="26.473" width="5.9331" height="10.627" style="fill:#fff;stroke-width:.20075;stroke:#000"/>
 <rect id="aud-j210" transform="scale(-1,1)" x="-561.23" y="26.473" width="5.3403" height="10.627" style="fill:#fff;stroke-width:.19046;stroke:#000"/>
 <rect id="aud-j212" transform="scale(-1,1)" x="-555.65" y="26.473" width="5.3403" height="10.627" style="fill:#fff;stroke-width:.19046;stroke:#000"/>
 <rect id="aud-j205a" transform="scale(-1,1)" x="-608.53" y="8.9033" width="5.9331" height="10.627" style="fill:#fff;stroke-width:.20075;stroke:#000"/>
 <rect id="aud-j207" transform="scale(-1,1)" x="-602.33" y="8.9033" width="5.9331" height="10.627" style="fill:#fff;stroke-width:.20075;stroke:#000"/>
 <rect id="aud-e228" transform="scale(-1,1)" x="-517.37" y="137.56" width="11.504" height="10.627" style="fill:none;stroke-width:.2017;stroke:#000" ref="aud-g121"/>
 <rect transform="scale(-1,1)" x="-505.58" y="137.56" width="3.4361" height="2.1336" style="fill:none;stroke-width:.2017;stroke:#000"/>
 <rect transform="scale(-1,1)" x="-501.86" y="137.56" width="5.5616" height="2.1336" style="fill:none;stroke-width:.2017;stroke:#000"/>
 <rect transform="scale(-1,1)" x="-496.01" y="137.56" width="5.5616" height="2.1336" style="fill:none;stroke-width:.2017;stroke:#000"/>
 <path d="m490.17 137.56v2.4162h15.41v8.2112h-18.978v-10.627z" style="fill:none;stroke-width:.2017;stroke:#000"/>
 <rect id="aud-e222" transform="scale(-1,1)" x="-530.62" y="137.56" width="5.9331" height="10.627" style="fill:#fff;stroke-width:.20075;stroke:#000"/>
 <rect id="aud-e224" transform="scale(-1,1)" x="-524.41" y="137.56" width="5.9331" height="10.627" style="fill:#fff;stroke-width:.20075;stroke:#000"/>
 <rect id="aud-e216" transform="scale(-1,1)" x="-561.38" y="137.56" width="5.3403" height="10.627" style="fill:#fff;stroke-width:.19046;stroke:#000"/>
 <rect id="aud-e218" transform="scale(-1,1)" x="-555.79" y="137.56" width="5.3403" height="10.627" style="fill:#fff;stroke-width:.19046;stroke:#000"/>
 <rect id="aud-e203" transform="scale(-1,1)" x="-627.3" y="119.99" width="5.9331" height="10.627" style="fill:#fff;stroke-width:.20075;stroke:#000"/>
 <rect transform="scale(-1,1)" x="-621.09" y="119.99" width="5.9331" height="10.627" style="fill:#fff;stroke-width:.20075;stroke:#000"/>
 <rect id="aud-e209" transform="scale(-1,1)" x="-595.33" y="119.99" width="5.9331" height="10.627" style="fill:#fff;stroke-width:.20075;stroke:#000"/>
 <rect id="aud-e211" transform="scale(-1,1)" x="-589.12" y="119.99" width="5.9331" height="10.627" style="fill:#fff;stroke-width:.20075;stroke:#000"/>
 <rect id="aud-e215b" transform="scale(-1,1)" x="-549.24" y="119.99" width="5.9331" height="10.627" style="fill:#fff;stroke-width:.20075;stroke:#000"/>
 <rect id="aud-e217" transform="scale(-1,1)" x="-530.62" y="119.99" width="5.9331" height="10.627" style="fill:#fff;stroke-width:.20075;stroke:#000"/>
 <rect id="aud-e219" transform="scale(-1,1)" x="-524.41" y="119.99" width="5.9331" height="10.627" style="fill:#fff;stroke-width:.20075;stroke:#000"/>
 <rect id="aud-e223a" transform="scale(-1,1)" x="-504.95" y="119.99" width="5.9331" height="10.627" style="fill:#fff;stroke-width:.20075;stroke:#000"/>
 <rect id="aud-d218" transform="scale(-1,1)" x="-517.26" y="247.94" width="11.504" height="10.627" style="fill:none;stroke-width:.2017;stroke:#000" ref="aud-g121"/>
 <g transform="matrix(2.5411 0 0 2.5411 84.435 -246.2)">
  <rect transform="scale(-1)" x="-165.44" y="-191.72" width="1.3522" height=".83961" style="fill:none;stroke-width:.079375;stroke:#000"/>
  <rect transform="scale(-1)" x="-163.97" y="-191.72" width="2.1886" height=".83961" style="fill:none;stroke-width:.079375;stroke:#000"/>
  <rect transform="scale(-1)" x="-161.67" y="-191.72" width="2.1886" height=".83961" style="fill:none;stroke-width:.079375;stroke:#000"/>
  <path d="m159.37 191.72v-0.95085h6.0642v-3.2313h-7.4683v4.1822z" style="fill:none;stroke-width:.079375;stroke:#000"/>
 </g>
 <rect id="aud-d204" transform="scale(-1,1)" x="-602.36" y="247.94" width="5.9331" height="10.627" style="fill:#fff;stroke-width:.20075;stroke:#000"/>
 <rect id="aud-d206" transform="scale(-1,1)" x="-595.22" y="247.94" width="5.9331" height="10.627" style="fill:#fff;stroke-width:.20075;stroke:#000"/>
 <rect id="aud-d212" transform="scale(-1,1)" x="-536.72" y="247.94" width="5.9331" height="10.627" style="fill:#fff;stroke-width:.20075;stroke:#000"/>
 <rect id="aud-d214" transform="scale(-1,1)" x="-530.51" y="247.94" width="5.9331" height="10.627" style="fill:#fff;stroke-width:.20075;stroke:#000"/>
 <rect id="aud-d216" transform="scale(-1,1)" x="-524.3" y="247.94" width="5.9331" height="10.627" style="fill:#fff;stroke-width:.20075;stroke:#000"/>
 <rect id="aud-d203" transform="scale(-1,1)" x="-602.36" y="230.37" width="5.9331" height="10.627" style="fill:#fff;stroke-width:.20075;stroke:#000"/>
 <rect id="aud-d205" transform="scale(-1,1)" x="-595.22" y="230.37" width="5.9331" height="10.627" style="fill:#fff;stroke-width:.20075;stroke:#000"/>
 <rect id="aud-d215" transform="scale(-1,1)" x="-524.3" y="230.37" width="5.9331" height="10.627" style="fill:#fff;stroke-width:.20075;stroke:#000"/>
 <rect id="aud-v200" x="1.818" y="130.41" width="15.275" height="7.4746" style="fill:none;stroke-width:.20305;stroke:#000"/>
 <rect id="aud-v211" x="66.705" y="137.56" width="18.349" height="10.627" style="fill:none;stroke-width:.20305;stroke:#000"/>
 <rect id="aud-v217" x="100.67" y="137.58" width="10.917" height="10.616" style="fill:none;stroke-width:.20305;stroke:#000"/>
 <rect id="aud-v219" x="112.79" y="137.56" width="12.141" height="10.627" style="fill:none;stroke-width:.20305;stroke:#000"/>
 <rect id="aud-v221" x="125.21" y="137.56" width="18.349" height="10.627" style="fill:none;stroke-width:.20305;stroke:#000"/>
 <rect id="aud-v223" x="144.67" y="137.56" width="5.5956" height="10.63" style="fill:#fff;stroke-width:.19498;stroke:#000"/>
 <rect id="aud-v225" x="150.52" y="137.56" width="5.5956" height="10.63" style="fill:#fff;stroke-width:.19498;stroke:#000"/>
 <rect id="aud-v204" x="34.735" y="119.99" width="18.349" height="10.627" style="fill:none;stroke-width:.20305;stroke:#000"/>
 <rect id="aud-v206" x="53.36" y="119.99" width="12.141" height="10.627" style="fill:none;stroke-width:.20305;stroke:#000"/>
 <rect id="aud-v208" x="66.704" y="119.99" width="18.349" height="10.627" style="fill:none;stroke-width:.20305;stroke:#000"/>
 <rect id="aud-v210" x="85.329" y="119.99" width="12.141" height="10.627" style="fill:none;stroke-width:.20305;stroke:#000"/>
 <rect id="aud-v210a" x="100.66" y="119.99" width="10.928" height="10.627" style="fill:none;stroke-width:.20305;stroke:#000"/>
 <rect id="aud-v212" x="119" y="119.99" width="24.558" height="10.627" style="fill:none;stroke-width:.20305;stroke:#000"/>
 <rect id="aud-v214" x="144.67" y="119.99" width="18.349" height="10.627" style="fill:none;stroke-width:.20305;stroke:#000"/>
 <rect id="aud-v216" x="163.3" y="119.99" width="12.141" height="10.627" style="fill:none;stroke-width:.20305;stroke:#000"/>
 <rect id="aud-g203" x="34.979" y="26.474" width="18.349" height="10.628" style="fill:none;stroke-width:.20154;stroke:#000"/>
 <rect id="aud-g205" x="53.603" y="26.474" width="12.141" height="10.628" style="fill:none;stroke-width:.20305;stroke:#000"/>
 <rect id="aud-g207" x="66.947" y="26.474" width="18.35" height="10.628" style="fill:none;stroke-width:.20305;stroke:#000"/>
 <rect id="aud-g209" x="85.572" y="26.474" width="12.141" height="10.628" style="fill:none;stroke-width:.20305;stroke:#000"/>
 <rect id="aud-g215" x="113.03" y="26.474" width="18.349" height="10.628" style="fill:none;stroke-width:.20305;stroke:#000"/>
 <rect id="aud-g204" x="34.978" y="8.9039" width="12.141" height="10.628" style="fill:none;stroke-width:.20305;stroke:#000"/>
 <rect id="aud-g206" x="47.394" y="8.9039" width="18.349" height="10.628" style="fill:none;stroke-width:.20305;stroke:#000"/>
 <rect id="aud-g208" x="66.947" y="8.9039" width="12.141" height="10.628" style="fill:none;stroke-width:.20305;stroke:#000"/>
 <rect id="aud-g210" x="79.364" y="8.9039" width="18.349" height="10.628" style="fill:none;stroke-width:.20305;stroke:#000"/>
 <rect x="113.03" y="8.9039" width="12.141" height="10.628" style="fill:none;stroke-width:.20305;stroke:#000"/>
 <rect id="aud-g212" x="125.45" y="8.9039" width="12.141" height="10.628" style="fill:none;stroke-width:.20305;stroke:#000"/>
 <rect id="aud-g216" x="144.92" y="8.9039" width="18.349" height="10.628" style="fill:none;stroke-width:.20305;stroke:#000"/>
 <rect id="aud-g218" x="163.54" y="8.9039" width="12.141" height="10.628" style="fill:none;stroke-width:.20305;stroke:#000"/>
 <rect id="aud-g220" x="178.84" y="1.7888" width="6.8447" height="16.905" style="fill:none;stroke-width:.14044;stroke:#000"/>
 <rect id="aud-g220b" x="186.19" y="1.8194" width="6.8447" height="16.905" style="fill:none;stroke-width:.14044;stroke:#000"/>
 <rect id="aud-bamf" x="1.8193" y="225.64" width="22.565" height="37.939" style="fill:none;stroke-width:.2017;stroke:#000"/>
 <rect id="aud-g201-6" x="25.128" y="249.51" width="6.6951" height="14.07" style="fill-rule:evenodd;fill:none;stroke-width:.19158;stroke:#000" ref="aud-g101">
  <title>Научное общество карбон</title>
 </rect>
 <rect id="aud-b201a" x="34.993" y="247.94" width="24.558" height="10.627" style="fill:none;stroke-width:.20305;stroke:#000"/>
 <rect id="aud-b207" x="73.17" y="247.94" width="24.558" height="10.627" style="fill:none;stroke-width:.20305;stroke:#000"/>
 <rect id="aud-b209" x="119.26" y="247.94" width="24.558" height="10.627" style="fill:none;stroke-width:.20305;stroke:#000"/>
 <rect id="aud-b216" x="150.83" y="230.37" width="5.3429" height="10.638" style="fill:#fff;stroke-width:.1906;stroke:#000"/>
 <rect id="aud-b211" x="144.93" y="247.94" width="5.9331" height="10.627" style="fill:#fff;stroke-width:.20075;stroke:#000"/>
 <rect id="aud-b213" x="151.13" y="247.94" width="5.9331" height="10.627" style="fill:#fff;stroke-width:.20075;stroke:#000"/>
 <rect id="aud-b215" x="169.76" y="247.94" width="5.9331" height="10.627" style="fill:#fff;stroke-width:.20075;stroke:#000"/>
 <rect id="aud-b215a" x="157.34" y="247.94" width="12.141" height="10.627" style="fill:none;stroke-width:.20305;stroke:#000"/>
 <rect id="aud-b202" x="34.993" y="230.37" width="24.558" height="10.627" style="fill:none;stroke-width:.20305;stroke:#000"/>
 <rect x="66.962" y="230.37" width="18.349" height="10.627" style="fill:none;stroke-width:.20305;stroke:#000"/>
 <rect id="aud-b210" x="100.92" y="230.37" width="10.928" height="10.627" style="fill:none;stroke-width:.20305;stroke:#000"/>
 <rect id="aud-b212" x="113.05" y="230.37" width="24.558" height="10.627" style="fill:none;stroke-width:.20305;stroke:#000"/>
 <rect id="aud-b214" x="137.88" y="230.37" width="12.392" height="10.627" style="fill:none;stroke-width:.20305;stroke:#000"/>
 <rect id="aud-d210" x="536.99" y="247.94" width="12.141" height="10.627" style="fill:none;stroke-width:.20305;stroke:#000"/>
 <rect id="aud-d208a" x="550.34" y="247.94" width="10.928" height="10.627" style="fill:none;stroke-width:.20305;stroke:#000"/>
 <rect id="aud-d208" x="564.45" y="247.94" width="24.558" height="10.627" style="fill:none;stroke-width:.20305;stroke:#000"/>
 <rect id="aud-d202" x="602.63" y="247.94" width="24.558" height="10.627" style="fill:none;stroke-width:.20305;stroke:#000"/>
 <rect id="aud-damf" transform="scale(-1,1)" x="-660.31" y="225.96" width="22.565" height="37.939" style="fill:none;stroke-width:.2017;stroke:#000"/>
 <rect id="aud-d200" transform="scale(-1,1)" x="-637.01" y="249.83" width="6.6951" height="14.07" style="fill-rule:evenodd;fill:none;stroke-width:.19158;stroke:#000" ref="aud-g101">
  <title>Научное общество карбон</title>
 </rect>
 <rect id="aud-d201" x="602.63" y="230.37" width="24.558" height="10.627" style="fill:none;stroke-width:.20305;stroke:#000"/>
 <rect id="aud-d207" x="564.46" y="230.37" width="24.558" height="10.627" style="fill:none;stroke-width:.20305;stroke:#000"/>
 <rect id="aud-d209" x="550.34" y="230.37" width="10.928" height="10.627" style="fill:none;stroke-width:.20305;stroke:#000"/>
 <rect id="aud-d213" x="536.99" y="230.37" width="12.141" height="10.627" style="fill:none;stroke-width:.20305;stroke:#000"/>
 <rect id="aud-d213a" x="524.58" y="230.37" width="12.141" height="10.627" style="fill:none;stroke-width:.20305;stroke:#000"/>
 <rect id="aud-d217" x="505.11" y="230.37" width="12.141" height="10.627" style="fill:none;stroke-width:.20305;stroke:#000"/>
 <rect x="486.06" y="247.94" width="18.349" height="10.627" style="fill:none;stroke-width:.20305;stroke:#000"/>
 <rect id="aud-jamf" transform="scale(-1,1)" x="-660.31" y="4.4753" width="22.565" height="37.939" style="fill:none;stroke-width:.2017;stroke:#000"/>
 <rect id="aud-j200" transform="scale(-1,1)" x="-637.01" y="28.345" width="6.6951" height="14.07" style="fill:none;stroke-width:.19158;stroke:#000" ref="aud-g101"/>
 <rect id="aud-j205" x="608.81" y="8.9033" width="18.349" height="10.628" style="fill:none;stroke-width:.20305;stroke:#000"/>
 <rect id="aud-j209" x="583.05" y="8.9033" width="12.141" height="10.628" style="fill:none;stroke-width:.20305;stroke:#000"/>
 <rect id="aud-j211" x="564.42" y="8.9033" width="18.349" height="10.628" style="fill:none;stroke-width:.20305;stroke:#000"/>
 <rect id="aud-j211a" x="550.31" y="8.9033" width="10.928" height="10.628" style="fill:none;stroke-width:.20305;stroke:#000"/>
 <rect id="aud-j213" x="536.96" y="8.9033" width="12.141" height="10.628" style="fill:none;stroke-width:.20305;stroke:#000"/>
 <rect id="aud-j215" x="518.34" y="8.9033" width="18.349" height="10.628" style="fill:none;stroke-width:.20305;stroke:#000"/>
 <rect id="aud-j217" x="498.87" y="8.9033" width="18.349" height="10.628" style="fill:none;stroke-width:.20305;stroke:#000"/>
 <rect id="aud-j217a" x="486.46" y="8.9033" width="12.141" height="10.628" style="fill:none;stroke-width:.20305;stroke:#000"/>
 <rect id="aud-j218" transform="scale(-1,1)" x="-517.23" y="26.473" width="5.5711" height="10.627" style="fill:#fff;stroke-width:.19453;stroke:#000"/>
 <rect id="aud-j220" transform="scale(-1,1)" x="-511.29" y="26.473" width="5.5711" height="10.627" style="fill:#fff;stroke-width:.19453;stroke:#000"/>
 <rect id="aud-j216" x="518.34" y="26.473" width="24.558" height="10.628" style="fill:none;stroke-width:.20305;stroke:#000"/>
 <rect id="aud-j208" x="564.42" y="26.473" width="18.349" height="10.628" style="fill:none;stroke-width:.20305;stroke:#000"/>
 <rect id="aud-j206" x="583.05" y="26.473" width="12.141" height="10.628" style="fill:none;stroke-width:.20305;stroke:#000"/>
 <rect id="aud-e223" x="486.6" y="119.99" width="12.141" height="10.627" style="fill:none;stroke-width:.20305;stroke:#000"/>
 <rect id="aud-e221" x="505.22" y="119.99" width="12.141" height="10.627" style="fill:none;stroke-width:.20305;stroke:#000"/>
 <rect id="aud-e215" x="530.89" y="119.99" width="12.141" height="10.627" style="fill:none;stroke-width:.20305;stroke:#000"/>
 <rect id="aud-e215a" x="550.43" y="119.99" width="10.805" height="10.627" style="fill:none;stroke-width:.20305;stroke:#000"/>
 <rect id="aud-e213" x="564.56" y="119.99" width="18.349" height="10.627" style="fill:none;stroke-width:.20305;stroke:#000"/>
 <rect id="aud-e207" x="596.53" y="119.99" width="18.349" height="10.627" style="fill:none;stroke-width:.20305;stroke:#000"/>
 <rect id="aud-e220" x="530.89" y="137.56" width="18.349" height="10.627" style="fill:none;stroke-width:.20305;stroke:#000"/>
 <rect id="aud-e214" x="564.56" y="137.56" width="18.349" height="10.627" style="fill:none;stroke-width:.20305;stroke:#000"/>
 <rect id="aud-e210" x="583.19" y="137.56" width="12.141" height="10.627" style="fill:none;stroke-width:.20305;stroke:#000"/>
 <rect id="aud-e208" x="596.53" y="137.56" width="18.349" height="10.627" style="fill:none;stroke-width:.20305;stroke:#000"/>
 <rect id="aud-e206" x="615.16" y="137.56" width="12.141" height="10.627" style="fill:none;stroke-width:.20305;stroke:#000"/>
 <rect id="aud-e204" transform="scale(-1,1)" x="-637" y="139.74" width="6.6951" height="14.07" style="fill-rule:evenodd;fill:none;stroke-width:.19158;stroke:#000" ref="aud-g101">
  <title>Научное общество карбон</title>
 </rect>
 <rect id="aud-e200" x="637.75" y="139.74" width="22.565" height="14.069" style="fill:none;stroke-width:.19978;stroke:#000"/>
 <rect id="aud-e201" x="637.75" y="115.87" width="22.57" height="13.384" style="fill:none;stroke-width:.19487;stroke:#000"/>
 <rect id="aud-e202a" x="645.04" y="130.41" width="15.279" height="8.1824" style="fill:none;stroke-width:.18399;stroke:#000"/>
 <rect id="aud-j219" x="445.33" y="1.8194" width="37.939" height="15.958" style="fill:none;stroke-width:.067234;stroke:#000"/>
 <rect id="aud-k207b" x="193.78" y="139.56" width="10.627" height="13.939" style="fill:none;stroke-width:.2017;stroke:#000" ref="aud-k109a"/>
 <rect x="207.74" y="196.32" width="6.5881" height="4.5137" style="fill:none;stroke-width:.13447;stroke:#000"/>
 <rect id="aud-k221" x="193.78" y="47.374" width="10.646" height="5.8992" style="fill:none;stroke-width:.19555;stroke:#000" ref="aud-k125"/>
 <rect id="aud-k219" x="193.78" y="53.598" width="10.646" height="5.8992" style="fill:none;stroke-width:.19555;stroke:#000" ref="aud-k125"/>
 <rect id="aud-k215" x="193.76" y="73.281" width="10.646" height="5.8992" style="fill:none;stroke-width:.19555;stroke:#000" ref="aud-k125"/>
 <rect id="aud-k213" x="193.76" y="79.441" width="10.646" height="5.8992" style="fill:none;stroke-width:.19555;stroke:#000" ref="aud-k125"/>
 <rect id="aud-k209" x="193.78" y="105.03" width="10.646" height="5.8992" style="fill:none;stroke-width:.19555;stroke:#000" ref="aud-k125"/>
 <rect id="aud-k201" x="193.76" y="232.68" width="10.646" height="5.7507" style="fill:none;stroke-width:.19307;stroke:#000" ref="aud-k125"/>
 <rect id="aud-k125-4-3-4-3" x="178.87" y="47.357" width="8.3245" height="5.8992" style="fill:none;stroke-width:.17292;stroke:#000" ref="aud-k125"/>
 <rect id="aud-k218" x="178.87" y="156.69" width="7.9704" height="5.8992" style="fill:none;stroke-width:.1692;stroke:#000" ref="aud-k125"/>
 <rect id="aud-k216" x="178.87" y="162.91" width="7.9704" height="5.8992" style="fill:none;stroke-width:.1692;stroke:#000" ref="aud-k125"/>
 <rect id="aud-k206" x="178.87" y="213.62" width="7.9704" height="5.7596" style="fill:none;stroke-width:.16719;stroke:#000" ref="aud-k125"/>
 <rect id="aud-k212" x="178.87" y="195.39" width="7.9704" height="5.7596" style="fill:none;stroke-width:.16719;stroke:#000" ref="aud-k125"/>
 <rect id="aud-k210" x="178.87" y="201.47" width="7.9704" height="5.7596" style="fill:none;stroke-width:.16719;stroke:#000" ref="aud-k125"/>
 <rect id="aud-k208" x="178.87" y="207.54" width="7.9704" height="5.7596" style="fill:none;stroke-width:.16719;stroke:#000" ref="aud-k125"/>
 <rect id="aud-k202" x="178.87" y="232.68" width="7.9704" height="5.7507" style="fill:none;stroke-width:.16706;stroke:#000" ref="aud-k125"/>
 <rect id="aud-i221a" x="457.73" y="239.67" width="10.907" height="7.2972" style="fill:none;stroke-width:.2017;stroke:#000" ref="aud-i131a"/>
 <path id="aud-i213a" d="m457.73 130.31v8.1981h5.6453v-4.5593h4.9803v-3.6388z" style="fill:none;stroke-width:.19747;stroke:#000"/>
 <rect id="aud-i213" transform="scale(-1,1)" x="-468.35" y="139.71" width="10.627" height="13.939" style="fill:none;stroke-width:.2017;stroke:#000" ref="aud-k109a"/>
 <rect id="aud-i207" transform="scale(-1,1)" x="-468.35" y="98.07" width="10.646" height="5.8992" style="fill:none;stroke-width:.19555;stroke:#000" ref="aud-k125"/>
 <path id="aud-i209" d="m457.71 105.17v5.8988h6.73v0.32436h-6.73v5.9001h10.646v-5.9001h-2.1076v-0.32436h2.1076v-5.8988z" style="fill:none;stroke-width:.19555;stroke:#000"/>
 <path id="aud-i215" d="m457.71 156.84v5.8988h4.2783v0.32435h-4.2783v5.9001h10.646v-5.9001h-4.4057v-0.32435h4.4057v-5.8988z" style="fill:none;stroke-width:.19555;stroke:#000"/>
 <rect id="aud-i219" transform="scale(-1,1)" x="-468.37" y="213.72" width="10.646" height="5.7596" style="fill:none;stroke-width:.19322;stroke:#000" ref="aud-k125"/>
 <rect id="aud-i216" transform="scale(-1,1)" x="-483.25" y="123.84" width="8.3095" height="5.8992" style="fill:none;stroke-width:.17276;stroke:#000" ref="aud-k125"/>
 <rect id="aud-i212" transform="scale(-1,1)" x="-483.25" y="105.17" width="8.3095" height="5.8992" style="fill:none;stroke-width:.17276;stroke:#000" ref="aud-k125"/>
 <rect id="aud-i218" transform="scale(-1,1)" x="-483.27" y="156.84" width="7.9704" height="5.8992" style="fill:none;stroke-width:.1692;stroke:#000" ref="aud-k125"/>
 <rect id="aud-i220" transform="scale(-1,1)" x="-483.27" y="163.06" width="7.9704" height="5.8992" style="fill:none;stroke-width:.1692;stroke:#000" ref="aud-k125"/>
 <rect id="aud-i226" transform="scale(-1,1)" x="-483.27" y="213.77" width="7.9704" height="5.7596" style="fill:none;stroke-width:.16719;stroke:#000" ref="aud-k125"/>
 <rect id="aud-i223" x="457.73" y="248.17" width="25.54" height="14.826" style="fill:none;stroke-width:.20305;stroke:#000"/>
 <rect id="aud-i221" x="457.73" y="220.69" width="10.646" height="17.885" style="fill:none;stroke-width:.20305;stroke:#000"/>
 <path id="aud-i217" d="m457.73 195.49v17.912h10.646v-12.186h-5.1949v-5.7254z" style="fill:none;stroke-width:.20305;stroke:#000"/>
 <rect id="aud-i215a" x="457.71" y="169.29" width="10.646" height="12.123" style="fill:none;stroke-width:.20305;stroke:#000"/>
 <rect id="aud-i211" x="457.71" y="117.62" width="10.646" height="12.123" style="fill:none;stroke-width:.20305;stroke:#000"/>
 <rect id="aud-i205" x="457.73" y="85.748" width="10.627" height="12.06" style="fill:none;stroke-width:.20305;stroke:#000"/>
 <rect id="aud-i203" x="457.73" y="73.427" width="10.646" height="12.06" style="fill:none;stroke-width:.20305;stroke:#000"/>
 <rect id="aud-i201" x="457.71" y="47.521" width="10.646" height="24.57" style="fill:none;stroke-width:.20305;stroke:#000"/>
 <rect id="aud-i228" x="475.3" y="220.69" width="7.9704" height="17.885" style="fill:none;stroke-width:.20305;stroke:#000"/>
 <path id="aud-i224" d="m475.3 195.54v17.913h3.4681v-5.8344h0.55547v5.8344h3.9474v-5.2487h-2.5751v-0.58567h2.5751v-12.079z" style="fill:none;stroke-width:.20305;stroke:#000"/>
 <path id="aud-i222" d="m475.3 169.29v12.122h3.0085v1.2016h-3.0085v11.836h7.9709v-11.836h-2.8811v-1.2016h2.8811v-12.122z" style="fill:none;stroke-width:.20305;stroke:#000"/>
 <rect id="aud-i214" x="474.94" y="111.4" width="8.3095" height="12.123" style="fill:none;stroke-width:.20305;stroke:#000"/>
 <rect id="aud-i210" x="474.92" y="91.774" width="8.3287" height="12.06" style="fill:none;stroke-width:.20305;stroke:#000"/>
 <rect id="aud-i208" x="474.94" y="73.292" width="8.3287" height="18.22" style="fill:none;stroke-width:.20305;stroke:#000"/>
 <rect id="aud-i202" x="474.94" y="47.504" width="8.3245" height="24.57" style="fill:none;stroke-width:.20305;stroke:#000"/>
 <rect id="aud-k201a" x="193.76" y="220.54" width="10.646" height="11.818" style="fill:none;stroke-width:.20305;stroke:#000"/>
 <rect id="aud-k203" x="193.76" y="195.35" width="10.646" height="23.988" style="fill:none;stroke-width:.20305;stroke:#000"/>
 <rect id="aud-k205" x="193.78" y="156.69" width="10.646" height="24.57" style="fill:none;stroke-width:.20305;stroke:#000"/>
 <path d="m193.78 134.44v3.9224h6.1469c3.8e-4 -0.0226 5e-3 -0.0444 5e-3 -0.067 0-2.1355-1.7186-3.8555-3.8541-3.8555z" style="fill:none;stroke-width:.20305;stroke:#000"/>
 <path d="m193.78 134.44v3.9224h6.1469c3.8e-4 -0.0229 5e-3 -0.0444 5e-3 -0.0671 0-2.1355-1.7186-3.8555-3.8541-3.8555z" style="fill:none;stroke-width:.20305;stroke:#000"/>
 <path id="aud-k207a" d="m193.78 130.16v4.2757h2.2967c2.1355 0 3.8542 1.72 3.8542 3.8555 0 0.0229-3e-3 0.044-5e-3 0.0671h4.4792v-8.1981z" style="fill:none;stroke-width:.19747;stroke:#000"/>
 <rect id="aud-k207" x="193.78" y="111.25" width="10.646" height="18.346" style="fill:none;stroke-width:.20305;stroke:#000"/>
 <rect id="aud-k211" x="193.78" y="85.602" width="10.627" height="18.22" style="fill:none;stroke-width:.20305;stroke:#000"/>
 <rect id="aud-k217" x="193.78" y="59.822" width="10.646" height="12.123" style="fill:none;stroke-width:.20305;stroke:#000"/>
 <rect id="aud-k226" x="178.87" y="53.581" width="8.3245" height="18.346" style="fill:none;stroke-width:.20305;stroke:#000"/>
 <rect id="aud-k224" x="178.87" y="73.145" width="8.3287" height="18.22" style="fill:none;stroke-width:.20305;stroke:#000"/>
 <rect id="aud-k224a" x="178.88" y="91.627" width="8.3287" height="12.06" style="fill:none;stroke-width:.20305;stroke:#000"/>
 <rect id="aud-k222" x="178.88" y="105.03" width="8.3095" height="24.57" style="fill:none;stroke-width:.20305;stroke:#000"/>
 <rect id="aud-k214" x="178.87" y="169.14" width="7.9704" height="12.123" style="fill:none;stroke-width:.20305;stroke:#000"/>
 <rect id="aud-k212a" x="178.87" y="182.46" width="7.9704" height="11.836" style="fill:none;stroke-width:.20305;stroke:#000"/>
 <rect id="aud-k204" x="178.87" y="220.54" width="7.9704" height="11.818" style="fill:none;stroke-width:.20305;stroke:#000"/>
</svg>
