<svg width="260.48mm" height="104.12mm" version="1.1" viewBox="0 0 260.48 104.12" xmlns="http://www.w3.org/2000/svg">
 <g transform="translate(33.476 -89.97)">
  <rect id="aud-b217" x="40.341" y="187.63" width="6.6216" height="5.8342" style="fill:none;stroke-width:.079375;stroke:#000"/>
  <rect id="aud-b217a" x="42.67" y="184.29" width="4.2922" height="2.8716" style="fill:none;stroke-width:.079375;stroke:#000" ref="aud-k101a"/>
  <rect id="aud-gamf" x="-32.761" y="91.731" width="8.8798" height="14.93" style="fill:none;stroke-width:.079375;stroke:#000"/>
  <rect id="aud-g201" x="-23.588" y="100.52" width="2.6347" height="6.1373" style="fill:none;stroke-width:.079375;stroke:#000" ref="aud-g101"/>
  <rect x="42.962" y="90.686" width="8.8801" height="16.672" style="fill:none;stroke-width:.079375;stroke:#000"/>
  <rect x="141.77" y="97.321" width="4.6422" height="3.2932" style="fill:none;stroke-width:.079375;stroke:#000"/>
  <path d="m141.77 100.82v2.9802h4.576v-2.788h-0.10801v-0.19223z" style="fill:none;stroke-width:.079375;stroke:#000"/>
  <rect x="141.77" y="104.27" width="9.0135" height="3.0738" style="fill:none;stroke-width:.079375;stroke:#000"/>
  <path id="aud-v202" transform="matrix(.26458 0 0 .26458 -33.476 89.97)" d="m2.7031 171.88v20.971h32.877v-20.971h-24.508z" style="fill:none;stroke-width:.3;stroke:#000"/>
  <path id="aud-v201" transform="matrix(.26458 0 0 .26458 -33.476 89.97)" d="m2.7031 206.18v22.127h34.037v-22.127h-23.186z" style="fill:none;stroke-width:.3;stroke:#000"/>
  <rect id="aud-v201a" x="-23.644" y="144.87" width="2.6765" height="5.5065" style="fill:none;stroke-width:.079375;stroke:#000"/>
  <rect x="116.83" y="168.44" width="2.6695" height="6.4819" style="fill:none;stroke-width:.028563;stroke:#f00"/>
  <rect x="128.84" y="164.78" width="16.413" height="4.1261" style="fill:none;stroke-width:.026458;stroke:#000"/>
  <rect x="76.858" y="170.1" width="1.422" height="3.024" style="fill:none;stroke-width:.026458;stroke:#000"/>
  <rect x="76.858" y="173.24" width="5.2546" height="1.6866" style="fill:none;stroke-width:.026458;stroke:#000"/>
  <path d="m73.923 168.44v6.4812h2.8236v-5.6141h-0.69712v-0.86712z" style="fill:none;stroke-width:.026458;stroke:#000"/>
  <path d="m79.437 168.86-3.8e-5 1.2436h-1.0454v3.0241h3.7207v-4.5496l-2.3533 0.0248z" style="fill:none;stroke-width:.026458;stroke:#000"/>
  <path d="m82.224 168.58v6.3474h4.0706v-6.3474h-0.24029z" style="fill:none;stroke-width:.026458;stroke:#000"/>
  <path d="m86.406 168.58v6.3474h4.0742v-6.3474h-3.8339z" style="fill:none;stroke-width:.026531;stroke:#000"/>
  <path transform="matrix(.26458 0 0 .26458 -33.476 89.97)" d="m37.377 6.6562v32.812h9.957v-2.252h4.6895v1.0527h45.76v-1.0527h1.7891v1.0527h45.76v-1.0527h4.7422v1.0527h16.254v-1.0527h1.791v1.0527h45.627v-1.0527h1.791v1.0527h45.758v-1.0527h4.6895v3.3301h0.0605v25.166h14.061v4.748h-0.57813v83.957h0.4727v1.791h-0.47266v37.395h-13.543v2.3887h-4.6914v-0.60938h-45.984v0.60938h-1.793v-0.60938h-45.67v0.60938h-1.793v-0.60938h-16.084v0.60938h-4.748v-0.60938h-46.01v1.3945h-1.793v-1.3945h-45.592v1.3945h-4.7461v-24.895h-9.9141v22.092h-10.658v11.088h10.658v1.332h9.9141v-3.2168h4.7461v0.31836h45.592v-0.31836h1.793v0.31836h46.01v-0.31836h4.748v0.31836h16.084v-0.31836h1.793v0.31836h45.67v-0.31836h1.793v0.31836h45.984v-0.31836h4.6914v2.6113h14.1v1.791h-2.0996v20.73h1.4766v4.7422h-0.46289v36.537h0.46289v1.793h-0.46289v17.439h0.46289v1.791h-0.46289v35.615h0.46289v1.793h-0.46289v26.658h0.46289v1.793h-13.422v3.8359h-2.1602v-0.0293h-2.4609v-0.73438h-45.773v0.73438h-1.791v-0.73438h-45.645v0.73438h-1.793v-0.60938h-16.471v0.60938h-4.5312v-0.73438h-45.82v0.73438h-1.791v-0.73438h-45.664v0.73438h-4.8086v-24.266h-9.9082v34.545h9.9082v-3.7773h4.8086v0.88867h45.664v-0.91015h1.791v0.91015h45.82v-0.91015h4.5312v0.91015h0.15039v16.902h16.32v-17.812h1.793v0.91015h45.645v-0.91015h1.791v0.91015h45.773v-0.66015h2.4609v-0.0312h2.1602v0.3457h-0.0547v0.4043h1.0293v1.1055h-1.0293v22.33h11.908v-22.051h-0.71094v-1.7891h10.199v-10.854h-0.93555v-1.793h0.66797v-26.658h-0.66797v-1.793h0.66797v-35.613h-0.66797v-1.791h17.58v-7.8516h2.2754v0.81446h31.174v-0.68164h1.1074v0.68164h61.775v-1.4199h3.2676v3.8984h-3.2676v-1.3691h-27.924v15.805h27.924v-2.5254h21.391v0.42187h-3.6836v3.2774h-1.0547v2.5703h9.3262v-4.4336h0.42187l1.7227-1.3047h40.418v0.99804h-0.0117v3.0059h0.13672v11.475h-0.13086v2.8633h0.0137v0.0508h-0.0137v5.8613h47.029v-23.07h0.39453v23.07h51.336v-20.891l-2e-3 -3.4727-5.8477-2e-3v-0.42187h22.652v2.1602h27.1v-15.594h-27.1v1.5234h-3.2676v-3.8984h3.2676v1.2676h91.068v-0.60938h5.2695v7.7969h17.58v1.791h-0.66797v35.615h0.66797v1.793h-0.66797v26.658h0.66797v1.793h-0.93555v10.854h21.342v-0.31641h4.7441v0.6582h45.916v-0.9082h1.6328v0.9082h45.627v-0.9082h1.791v0.9082h16.254v-0.9082h4.7422v0.9082h45.807v-0.9082h1.791v0.9082h45.645v-0.89844h4.8086v3.4414h9.9043v-13.33h-1.4746v-1.1074h1.5v-19.729h-9.9297v19.729h0.52734v1.1074h-0.52734v3.4082h-4.8086v-0.73633h-45.645v0.73633h-1.793v-0.73633h-45.805v0.73633h-4.7422v-0.60938h-16.256v0.60938h-1.791v-0.73633h-45.627v0.17773h-1.6328v-0.17773h-45.916v0.73633h-4.7441v-3.8164h-13.422v-1.793h0.46289v-26.658h-0.46289v-1.793h0.46289v-35.615h-0.46289v-1.791h0.46289v-17.438h-0.46289v-1.793h0.46289v-36.537h-0.46289v-4.7422h13.371v-20.732h-13.572v-1.791h13.572v-2.6113h4.7949v0.31836h45.941v-0.31836h1.793v0.31836h45.627v-0.31836h1.7891v0.31836h16.07v-0.31836h4.7422v0.31836h45.969v-0.31836h1.791v0.50781h45.549v-0.50781h4.6894v2.9531h20.377v-12.17h-10.42v-21.615h-9.957v24.432h-4.6894v-1.3945h-45.549v0.73828h-1.791v-0.73828h-45.969v0.60937h-4.7422v-0.60547h-16.07v0.60547h-1.7891v-0.60937h-45.627v0.60937h-1.793v-0.60937h-45.941v0.60937h-4.7949v-2.3887h-13.438v-37.393h-0.47265v-1.8613h0.4707v-45.553l-0.52344-2e-3v-1.793h0.52539v-36.537h-0.57812v-4.7422h14.016v-24.561h-13.438v-1.791h13.438v-2.1523h4.7949v1.0527h45.758v-1.0527h1.791v1.0527h45.627v-1.0527h1.791v1.0527h16.254v-1.0527h4.7422v1.0527h45.76v-1.0527h1.791v1.0527h45.76v-1.0527h4.6895v3.7793h9.957v-12.961h-1.0274v-1.1074h1.0274v-20.27h-9.9043v20.27h-0.0508v3.8086h-4.6894v-0.58008h-45.76v0.58008h-1.7891v-0.58008h-45.762v0.63281h-4.7422v-0.62305h-16.254v0.46484h-1.791v-0.47461h-45.627v0.47461h-1.791v-0.47461h-45.758v0.52734h-4.7949v-3.8203h-21.076v1.2246h-1.791v-0.43359h-15.451v24.604h16.008v-12.752h1.2344v-0.13867h0.5586v31.096h-0.50586v36.535h0.47461v1.793s-0.3936 2e-3 -0.47071 2e-3v45.553h0.99805v1.8633h-1.002v37.393h0.21094v6.5312h-7.7383v5.6543h7.7383v1.793h-0.21094v20.73h0.80859v4.7422h-0.80859v36.537h0.66797v1.793h-17.58v2.5039h-96.338v0.63281h-1.791v-0.63281h-7.4668v-1.1953h-10.037v1.1953h-5.5059v-1.1953h-10.039v1.1953h-5.2422v-1.1953h-10.037v1.1953h-5.7695v-1.1953h-10.037v1.1953h-10.824v-2.1074h-30.453v2.1074h-10.971v-1.1953h-10.037v1.1953h-5.7695v-1.1953h-10.037v1.1953h-5.2422v-1.1953h-10.037v1.1953h-5.5059v-1.1953h-1.3848v0.43164h-8.6504v0.76368h-7.4688v0.63281h-1.791v-0.52149h-96.332v-2.6133h-17.58v-1.793h0.66797v-36.537h-0.80859v-4.7422h0.80859v-20.732h-1.1289v-1.791h1.1289v-49.58h-1.002v-1.791h1.002v-83.955h-0.54883v-4.7422h0.54883v-37.541h-21.129v2.5039h-4.6895v-0.52734h-45.758v0.47461h-1.791v-0.47461h-45.627v0.47461h-1.791v-17.385h-16.254v17.543h-4.7422v-0.63281h-45.76v0.58008h-1.7891v-0.58008h-45.76v0.58008h-4.6895v-24.078zm451.74 291.52 6.748 0.043 4.6484 2.6094v11.357l-4.8125 2.916h-6.584c-1.4232-0.77692-3.394-2.1454-4.791-2.916v-11.473z" style="fill-rule:evenodd;fill:#fff6d5;stroke-width:.2;stroke:#f00"/>
  <path d="m36.277 90.037v2.7884h-56.584v-1.7425h-13.104v16.226h13.104v-2.0914h56.584v2.7739h0.06305v28.641h-56.526v-1.7425h-13.134v16.044h13.134v-2.0908h56.526v31.226h-56.75v-1.7425h-12.908v15.697h12.908v-1.7425h56.75v1.7425h11.18v-24.561h25.859v6.0208h46.675v-6.0208h26.039v24.561h11.229v-1.7555h56.499v1.7555h13.112v-15.814h-13.112v1.8314h-56.499v-31.197h56.433v2.0908h13.177v-16.045h-13.177v1.7425h-56.433v-31.506h56.597v2.1823h13.015v-16.227h-13.015v1.8335h-56.597v-2.8789h-16.199v17.95h4.9697v53.8h-98.573v-53.795h4.9697v-17.955h-16.212z" style="fill:none;stroke-width:.13184;stroke:#000"/>
  <path id="aud-a115" d="m48.273 164.82v2.2939h2.5926v-1.186h0.11162v3.0737h2.3141v-4.1817h-2.3141v0.68988h-0.11162v-0.68988z" style="fill:none;stroke-width:.052917;stroke:#000"/>
  <rect x="48.273" y="167.22" width="2.5926" height="1.7762" style="fill:none;stroke-width:.052917;stroke:#000"/>
  <rect id="aud-a113" x="53.403" y="164.82" width="2.4116" height="4.1818" style="fill:none;stroke-width:.052917;stroke:#000"/>
  <rect id="aud-a111" x="56.107" y="164.64" width="6.4752" height="4.3632" style="fill:none;stroke-width:.052917;stroke:#000"/>
  <rect x="62.694" y="164.64" width="2.0772" height="4.3632" style="fill:none;stroke-width:.052917;stroke:#000"/>
  <rect id="aud-g219" x="23.55" y="100.39" width="4.5272" height="4.1822" style="fill:none;stroke-width:.079375;stroke:#000" ref="aud-g121"/>
  <rect x="28.189" y="100.39" width="1.3522" height=".83961" style="fill:none;stroke-width:.079375;stroke:#000"/>
  <rect x="29.652" y="100.39" width="2.1886" height=".83961" style="fill:none;stroke-width:.079375;stroke:#000"/>
  <rect x="31.952" y="100.39" width="2.1886" height=".83961" style="fill:none;stroke-width:.079375;stroke:#000"/>
  <path d="m34.253 100.39v0.95085h-6.0642v3.2313h7.4683v-4.1822z" style="fill:none;stroke-width:.079375;stroke:#000"/>
  <rect id="aud-g215a" x="18.335" y="100.39" width="2.3348" height="4.1822" style="fill:#fff;stroke-width:.079;stroke:#000"/>
  <rect id="aud-g217" x="20.778" y="100.39" width="2.3348" height="4.1822" style="fill:#fff;stroke-width:.079;stroke:#000"/>
  <rect id="aud-g211" x="6.2311" y="100.39" width="2.1015" height="4.1822" style="fill:#fff;stroke-width:.07495;stroke:#000"/>
  <rect id="aud-g213" x="8.4301" y="100.39" width="2.1015" height="4.1822" style="fill:#fff;stroke-width:.07495;stroke:#000"/>
  <rect x="20.777" y="93.474" width="2.3348" height="4.1822" style="fill:#fff;stroke-width:.079;stroke:#000"/>
  <rect x="28.093" y="144.1" width="1.3522" height=".83961" style="fill:none;stroke-width:.079375;stroke:#000"/>
  <rect x="29.557" y="144.1" width="2.1886" height=".83961" style="fill:none;stroke-width:.079375;stroke:#000"/>
  <rect x="31.857" y="144.1" width="2.1886" height=".83961" style="fill:none;stroke-width:.079375;stroke:#000"/>
  <path d="m34.157 144.1v0.95085h-6.0642v3.2313h7.4683v-4.1822z" style="fill:none;stroke-width:.079375;stroke:#000"/>
  <rect id="aud-v203" x="-19.807" y="144.1" width="2.3348" height="4.1822" style="fill:#fff;stroke-width:.079;stroke:#000"/>
  <rect id="aud-v205" x="-17.364" y="144.1" width="2.3348" height="4.1822" style="fill:#fff;stroke-width:.079;stroke:#000"/>
  <rect id="aud-v207" x="-14.921" y="144.1" width="2.3348" height="4.1822" style="fill:#fff;stroke-width:.079;stroke:#000"/>
  <rect id="aud-v209" x="-12.478" y="144.1" width="2.3348" height="4.1822" style="fill:#fff;stroke-width:.079;stroke:#000"/>
  <rect id="aud-v209a" x="-10.035" y="144.1" width="2.3348" height="4.1822" style="fill:#fff;stroke-width:.079;stroke:#000"/>
  <rect id="aud-v213" x=".10292" y="144.1" width="2.3348" height="4.1822" style="fill:#fff;stroke-width:.079;stroke:#000"/>
  <rect id="aud-v215" x="2.546" y="144.1" width="2.3348" height="4.1822" style="fill:#fff;stroke-width:.079;stroke:#000"/>
  <rect id="aud-v212a" x="10.91" y="137.19" width="2.3348" height="4.1822" style="fill:#fff;stroke-width:.079;stroke:#000"/>
  <rect transform="scale(-1)" x="-35.664" y="-184.81" width="1.3522" height=".83961" style="fill:none;stroke-width:.079375;stroke:#000"/>
  <rect transform="scale(-1)" x="-34.2" y="-184.81" width="2.1886" height=".83961" style="fill:none;stroke-width:.079375;stroke:#000"/>
  <rect transform="scale(-1)" x="-31.9" y="-184.81" width="2.1886" height=".83961" style="fill:none;stroke-width:.079375;stroke:#000"/>
  <path d="m29.6 184.81v-0.95086h6.0642v-3.2313h-7.4683v4.1822z" style="fill:none;stroke-width:.079375;stroke:#000"/>
  <rect id="aud-b203" x="-9.9334" y="187.54" width="2.3348" height="4.1822" style="fill:#fff;stroke-width:.079;stroke:#000"/>
  <rect id="aud-b205" x="-7.125" y="187.54" width="2.3348" height="4.1822" style="fill:#fff;stroke-width:.079;stroke:#000"/>
  <rect id="aud-b209a" x="11.011" y="187.54" width="2.3348" height="4.1822" style="fill:#fff;stroke-width:.079;stroke:#000"/>
  <rect id="aud-b204" x="-9.9336" y="180.62" width="2.3348" height="4.1822" style="fill:#fff;stroke-width:.079;stroke:#000"/>
  <rect id="aud-b206" x=".20398" y="180.62" width="2.3348" height="4.1822" style="fill:#fff;stroke-width:.079;stroke:#000"/>
  <rect x="2.647" y="180.62" width="2.3348" height="4.1822" style="fill:#fff;stroke-width:.079;stroke:#000"/>
  <rect transform="scale(-1,1)" x="-165.43" y="100.39" width="1.3522" height=".83961" style="fill:none;stroke-width:.079375;stroke:#000"/>
  <rect transform="scale(-1,1)" x="-163.96" y="100.39" width="2.1886" height=".83961" style="fill:none;stroke-width:.079375;stroke:#000"/>
  <rect transform="scale(-1,1)" x="-161.66" y="100.39" width="2.1886" height=".83961" style="fill:none;stroke-width:.079375;stroke:#000"/>
  <path d="m159.36 100.39v0.95085h6.0642v3.2313h-7.4683v-4.1822z" style="fill:none;stroke-width:.079375;stroke:#000"/>
  <rect id="aud-j202a" transform="scale(-1,1)" x="-213.33" y="100.39" width="2.3348" height="4.1822" style="fill:#fff;stroke-width:.079;stroke:#000"/>
  <rect id="aud-j202b" transform="scale(-1,1)" x="-210.88" y="100.39" width="2.3348" height="4.1822" style="fill:#fff;stroke-width:.079;stroke:#000"/>
  <rect id="aud-j202v" transform="scale(-1,1)" x="-208.44" y="100.39" width="2.3348" height="4.1822" style="fill:#fff;stroke-width:.079;stroke:#000"/>
  <rect id="aud-j202g" transform="scale(-1,1)" x="-206" y="100.39" width="2.3348" height="4.1822" style="fill:#fff;stroke-width:.079;stroke:#000"/>
  <rect id="aud-j204" transform="scale(-1,1)" x="-203.55" y="100.39" width="2.3348" height="4.1822" style="fill:#fff;stroke-width:.079;stroke:#000"/>
  <rect id="aud-j214" transform="scale(-1,1)" x="-182.61" y="100.39" width="2.3348" height="4.1822" style="fill:#fff;stroke-width:.079;stroke:#000"/>
  <rect id="aud-j210" transform="scale(-1,1)" x="-187.38" y="100.39" width="2.1015" height="4.1822" style="fill:#fff;stroke-width:.07495;stroke:#000"/>
  <rect id="aud-j212" transform="scale(-1,1)" x="-185.18" y="100.39" width="2.1015" height="4.1822" style="fill:#fff;stroke-width:.07495;stroke:#000"/>
  <rect id="aud-j205a" transform="scale(-1,1)" x="-206" y="93.473" width="2.3348" height="4.1822" style="fill:#fff;stroke-width:.079;stroke:#000"/>
  <rect id="aud-j207" transform="scale(-1,1)" x="-203.55" y="93.473" width="2.3348" height="4.1822" style="fill:#fff;stroke-width:.079;stroke:#000"/>
  <rect id="aud-e228" transform="scale(-1,1)" x="-170.12" y="144.1" width="4.5272" height="4.1822" style="fill:none;stroke-width:.079375;stroke:#000" ref="aud-g121"/>
  <rect transform="scale(-1,1)" x="-165.48" y="144.1" width="1.3522" height=".83961" style="fill:none;stroke-width:.079375;stroke:#000"/>
  <rect transform="scale(-1,1)" x="-164.02" y="144.1" width="2.1886" height=".83961" style="fill:none;stroke-width:.079375;stroke:#000"/>
  <rect transform="scale(-1,1)" x="-161.72" y="144.1" width="2.1886" height=".83961" style="fill:none;stroke-width:.079375;stroke:#000"/>
  <path d="m159.42 144.1v0.95085h6.0642v3.2313h-7.4683v-4.1822z" style="fill:none;stroke-width:.079375;stroke:#000"/>
  <rect id="aud-e222" transform="scale(-1,1)" x="-175.34" y="144.1" width="2.3348" height="4.1822" style="fill:#fff;stroke-width:.079;stroke:#000"/>
  <rect id="aud-e224" transform="scale(-1,1)" x="-172.89" y="144.1" width="2.3348" height="4.1822" style="fill:#fff;stroke-width:.079;stroke:#000"/>
  <rect id="aud-e216" transform="scale(-1,1)" x="-187.44" y="144.1" width="2.1015" height="4.1822" style="fill:#fff;stroke-width:.07495;stroke:#000"/>
  <rect id="aud-e218" transform="scale(-1,1)" x="-185.24" y="144.1" width="2.1015" height="4.1822" style="fill:#fff;stroke-width:.07495;stroke:#000"/>
  <rect id="aud-e203" transform="scale(-1,1)" x="-213.38" y="137.19" width="2.3348" height="4.1822" style="fill:#fff;stroke-width:.079;stroke:#000"/>
  <rect transform="scale(-1,1)" x="-210.94" y="137.19" width="2.3348" height="4.1822" style="fill:#fff;stroke-width:.079;stroke:#000"/>
  <rect id="aud-e209" transform="scale(-1,1)" x="-200.8" y="137.19" width="2.3348" height="4.1822" style="fill:#fff;stroke-width:.079;stroke:#000"/>
  <rect id="aud-e211" transform="scale(-1,1)" x="-198.36" y="137.19" width="2.3348" height="4.1822" style="fill:#fff;stroke-width:.079;stroke:#000"/>
  <rect id="aud-e215b" transform="scale(-1,1)" x="-182.66" y="137.19" width="2.3348" height="4.1822" style="fill:#fff;stroke-width:.079;stroke:#000"/>
  <rect id="aud-e217" transform="scale(-1,1)" x="-175.34" y="137.19" width="2.3348" height="4.1822" style="fill:#fff;stroke-width:.079;stroke:#000"/>
  <rect id="aud-e219" transform="scale(-1,1)" x="-172.89" y="137.19" width="2.3348" height="4.1822" style="fill:#fff;stroke-width:.079;stroke:#000"/>
  <rect id="aud-e223a" transform="scale(-1,1)" x="-165.23" y="137.19" width="2.3348" height="4.1822" style="fill:#fff;stroke-width:.079;stroke:#000"/>
  <rect id="aud-d218" transform="scale(-1,1)" x="-170.08" y="187.54" width="4.5272" height="4.1822" style="fill:none;stroke-width:.079375;stroke:#000" ref="aud-g121"/>
  <g transform="translate(-.2492 -6.9142)">
   <rect transform="scale(-1)" x="-165.44" y="-191.72" width="1.3522" height=".83961" style="fill:none;stroke-width:.079375;stroke:#000"/>
   <rect transform="scale(-1)" x="-163.97" y="-191.72" width="2.1886" height=".83961" style="fill:none;stroke-width:.079375;stroke:#000"/>
   <rect transform="scale(-1)" x="-161.67" y="-191.72" width="2.1886" height=".83961" style="fill:none;stroke-width:.079375;stroke:#000"/>
   <path d="m159.37 191.72v-0.95085h6.0642v-3.2313h-7.4683v4.1822z" style="fill:none;stroke-width:.079375;stroke:#000"/>
  </g>
  <rect id="aud-d204" transform="scale(-1,1)" x="-203.57" y="187.54" width="2.3348" height="4.1822" style="fill:#fff;stroke-width:.079;stroke:#000"/>
  <rect id="aud-d206" transform="scale(-1,1)" x="-200.76" y="187.54" width="2.3348" height="4.1822" style="fill:#fff;stroke-width:.079;stroke:#000"/>
  <rect id="aud-d212" transform="scale(-1,1)" x="-177.74" y="187.54" width="2.3348" height="4.1822" style="fill:#fff;stroke-width:.079;stroke:#000"/>
  <rect id="aud-d214" transform="scale(-1,1)" x="-175.29" y="187.54" width="2.3348" height="4.1822" style="fill:#fff;stroke-width:.079;stroke:#000"/>
  <rect id="aud-d216" transform="scale(-1,1)" x="-172.85" y="187.54" width="2.3348" height="4.1822" style="fill:#fff;stroke-width:.079;stroke:#000"/>
  <rect id="aud-d203" transform="scale(-1,1)" x="-203.57" y="180.63" width="2.3348" height="4.1822" style="fill:#fff;stroke-width:.079;stroke:#000"/>
  <rect id="aud-d205" transform="scale(-1,1)" x="-200.76" y="180.63" width="2.3348" height="4.1822" style="fill:#fff;stroke-width:.079;stroke:#000"/>
  <rect id="aud-d215" transform="scale(-1,1)" x="-172.85" y="180.63" width="2.3348" height="4.1822" style="fill:#fff;stroke-width:.079;stroke:#000"/>
  <rect id="aud-v200" x="-32.761" y="141.29" width="6.011" height="2.9414" style="fill:none;stroke-width:.079904;stroke:#000"/>
  <rect id="aud-v211" x="-7.2263" y="144.1" width="7.2209" height="4.1822" style="fill:none;stroke-width:.079904;stroke:#000"/>
  <rect id="aud-v217" x="6.14" y="144.11" width="4.296" height="4.1777" style="fill:none;stroke-width:.079904;stroke:#000"/>
  <rect id="aud-v219" x="10.91" y="144.1" width="4.7779" height="4.1822" style="fill:none;stroke-width:.079904;stroke:#000"/>
  <rect id="aud-v221" x="15.796" y="144.1" width="7.2209" height="4.1822" style="fill:none;stroke-width:.079904;stroke:#000"/>
  <rect id="aud-v223" x="23.454" y="144.1" width="2.202" height="4.1833" style="fill:#fff;stroke-width:.076731;stroke:#000"/>
  <rect id="aud-v225" x="25.758" y="144.1" width="2.202" height="4.1833" style="fill:#fff;stroke-width:.076731;stroke:#000"/>
  <rect id="aud-v204" x="-19.807" y="137.19" width="7.2209" height="4.1822" style="fill:none;stroke-width:.079904;stroke:#000"/>
  <rect id="aud-v206" x="-12.478" y="137.19" width="4.7779" height="4.1822" style="fill:none;stroke-width:.079904;stroke:#000"/>
  <rect id="aud-v208" x="-7.2265" y="137.19" width="7.2209" height="4.1822" style="fill:none;stroke-width:.079904;stroke:#000"/>
  <rect id="aud-v210" x=".10269" y="137.19" width="4.7779" height="4.1822" style="fill:none;stroke-width:.079904;stroke:#000"/>
  <rect id="aud-v210a" x="6.1353" y="137.19" width="4.3005" height="4.1822" style="fill:none;stroke-width:.079904;stroke:#000"/>
  <rect id="aud-v212" x="13.353" y="137.19" width="9.664" height="4.1822" style="fill:none;stroke-width:.079904;stroke:#000"/>
  <rect id="aud-v214" x="23.456" y="137.19" width="7.2209" height="4.1822" style="fill:none;stroke-width:.079904;stroke:#000"/>
  <rect id="aud-v216" x="30.785" y="137.19" width="4.7779" height="4.1822" style="fill:none;stroke-width:.079904;stroke:#000"/>
  <rect id="aud-g203" x="-19.711" y="100.39" width="7.2209" height="4.1822" style="fill:none;stroke-width:.079312;stroke:#000"/>
  <rect id="aud-g205" x="-12.382" y="100.39" width="4.7779" height="4.1822" style="fill:none;stroke-width:.079904;stroke:#000"/>
  <rect id="aud-g207" x="-7.1309" y="100.39" width="7.2211" height="4.1822" style="fill:none;stroke-width:.079904;stroke:#000"/>
  <rect id="aud-g209" x=".19852" y="100.39" width="4.7779" height="4.1822" style="fill:none;stroke-width:.079904;stroke:#000"/>
  <rect id="aud-g215" x="11.005" y="100.39" width="7.2209" height="4.1822" style="fill:none;stroke-width:.079904;stroke:#000"/>
  <rect id="aud-g204" x="-19.712" y="93.474" width="4.7779" height="4.1822" style="fill:none;stroke-width:.079904;stroke:#000"/>
  <rect id="aud-g206" x="-14.825" y="93.474" width="7.2209" height="4.1822" style="fill:none;stroke-width:.079904;stroke:#000"/>
  <rect id="aud-g208" x="-7.1309" y="93.474" width="4.7779" height="4.1822" style="fill:none;stroke-width:.079904;stroke:#000"/>
  <rect id="aud-g210" x="-2.2448" y="93.474" width="7.2209" height="4.1822" style="fill:none;stroke-width:.079904;stroke:#000"/>
  <rect x="11.005" y="93.474" width="4.7779" height="4.1822" style="fill:none;stroke-width:.079904;stroke:#000"/>
  <rect id="aud-g212" x="15.891" y="93.474" width="4.7779" height="4.1822" style="fill:none;stroke-width:.079904;stroke:#000"/>
  <rect id="aud-g216" x="23.551" y="93.474" width="7.2209" height="4.1822" style="fill:none;stroke-width:.079904;stroke:#000"/>
  <rect id="aud-g218" x="30.881" y="93.474" width="4.7779" height="4.1822" style="fill:none;stroke-width:.079904;stroke:#000"/>
  <rect id="aud-g220" x="36.9" y="90.674" width="2.6936" height="6.6524" style="fill:none;stroke-width:.055268;stroke:#000"/>
  <rect id="aud-g220b" x="39.794" y="90.686" width="2.6936" height="6.6524" style="fill:none;stroke-width:.055268;stroke:#000"/>
  <rect id="aud-bamf" x="-32.76" y="178.77" width="8.8798" height="14.93" style="fill:none;stroke-width:.079375;stroke:#000"/>
  <rect id="aud-g201-6" x="-23.588" y="188.16" width="2.6347" height="5.5367" style="fill-rule:evenodd;fill:none;stroke-width:.075391;stroke:#000" ref="aud-g101">
   <title>Научное общество карбон</title>
  </rect>
  <rect id="aud-b201a" x="-19.706" y="187.54" width="9.664" height="4.1822" style="fill:none;stroke-width:.079904;stroke:#000"/>
  <rect id="aud-b207" x="-4.6819" y="187.54" width="9.664" height="4.1822" style="fill:none;stroke-width:.079904;stroke:#000"/>
  <rect id="aud-b209" x="13.454" y="187.54" width="9.664" height="4.1822" style="fill:none;stroke-width:.079904;stroke:#000"/>
  <rect id="aud-b216" x="25.881" y="180.62" width="2.1026" height="4.1862" style="fill:#fff;stroke-width:.075004;stroke:#000"/>
  <rect id="aud-b211" x="23.556" y="187.54" width="2.3348" height="4.1822" style="fill:#fff;stroke-width:.079;stroke:#000"/>
  <rect id="aud-b213" x="25.999" y="187.54" width="2.3348" height="4.1822" style="fill:#fff;stroke-width:.079;stroke:#000"/>
  <rect id="aud-b215" x="33.328" y="187.54" width="2.3348" height="4.1822" style="fill:#fff;stroke-width:.079;stroke:#000"/>
  <rect id="aud-b215a" x="28.442" y="187.54" width="4.7779" height="4.1822" style="fill:none;stroke-width:.079904;stroke:#000"/>
  <rect id="aud-b202" x="-19.706" y="180.62" width="9.664" height="4.1822" style="fill:none;stroke-width:.079904;stroke:#000"/>
  <rect x="-7.1252" y="180.62" width="7.2209" height="4.1822" style="fill:none;stroke-width:.079904;stroke:#000"/>
  <rect id="aud-b210" x="6.2366" y="180.62" width="4.3005" height="4.1822" style="fill:none;stroke-width:.079904;stroke:#000"/>
  <rect id="aud-b212" x="11.011" y="180.62" width="9.664" height="4.1822" style="fill:none;stroke-width:.079904;stroke:#000"/>
  <rect id="aud-b214" x="20.783" y="180.62" width="4.8766" height="4.1822" style="fill:none;stroke-width:.079904;stroke:#000"/>
  <rect id="aud-d210" x="177.84" y="187.54" width="4.7779" height="4.1822" style="fill:none;stroke-width:.079904;stroke:#000"/>
  <rect id="aud-d208a" x="183.1" y="187.54" width="4.3005" height="4.1822" style="fill:none;stroke-width:.079904;stroke:#000"/>
  <rect id="aud-d208" x="188.65" y="187.54" width="9.664" height="4.1822" style="fill:none;stroke-width:.079904;stroke:#000"/>
  <rect id="aud-d202" x="203.67" y="187.54" width="9.664" height="4.1822" style="fill:none;stroke-width:.079904;stroke:#000"/>
  <rect id="aud-damf" transform="scale(-1,1)" x="-226.37" y="178.89" width="8.8798" height="14.93" style="fill:none;stroke-width:.079375;stroke:#000"/>
  <rect id="aud-d200" transform="scale(-1,1)" x="-217.2" y="188.28" width="2.6347" height="5.5367" style="fill-rule:evenodd;fill:none;stroke-width:.075391;stroke:#000" ref="aud-g101">
   <title>Научное общество карбон</title>
  </rect>
  <rect id="aud-d201" x="203.67" y="180.63" width="9.664" height="4.1822" style="fill:none;stroke-width:.079904;stroke:#000"/>
  <rect id="aud-d207" x="188.65" y="180.63" width="9.664" height="4.1822" style="fill:none;stroke-width:.079904;stroke:#000"/>
  <rect id="aud-d209" x="183.1" y="180.63" width="4.3005" height="4.1822" style="fill:none;stroke-width:.079904;stroke:#000"/>
  <rect id="aud-d213" x="177.84" y="180.63" width="4.7779" height="4.1822" style="fill:none;stroke-width:.079904;stroke:#000"/>
  <rect id="aud-d213a" x="172.96" y="180.63" width="4.7779" height="4.1822" style="fill:none;stroke-width:.079904;stroke:#000"/>
  <rect id="aud-d217" x="165.3" y="180.63" width="4.7779" height="4.1822" style="fill:none;stroke-width:.079904;stroke:#000"/>
  <rect x="157.8" y="187.54" width="7.2209" height="4.1822" style="fill:none;stroke-width:.079904;stroke:#000"/>
  <rect id="aud-jamf" transform="scale(-1,1)" x="-226.37" y="91.731" width="8.8798" height="14.93" style="fill:none;stroke-width:.079375;stroke:#000"/>
  <rect id="aud-j200" transform="scale(-1,1)" x="-217.2" y="101.12" width="2.6347" height="5.5367" style="fill:none;stroke-width:.075391;stroke:#000" ref="aud-g101"/>
  <rect id="aud-j205" x="206.11" y="93.473" width="7.2209" height="4.1822" style="fill:none;stroke-width:.079904;stroke:#000"/>
  <rect id="aud-j209" x="195.97" y="93.473" width="4.7779" height="4.1822" style="fill:none;stroke-width:.079904;stroke:#000"/>
  <rect id="aud-j211" x="188.64" y="93.473" width="7.2209" height="4.1822" style="fill:none;stroke-width:.079904;stroke:#000"/>
  <rect id="aud-j211a" x="183.08" y="93.473" width="4.3005" height="4.1822" style="fill:none;stroke-width:.079904;stroke:#000"/>
  <rect id="aud-j213" x="177.83" y="93.473" width="4.7779" height="4.1822" style="fill:none;stroke-width:.079904;stroke:#000"/>
  <rect id="aud-j215" x="170.5" y="93.473" width="7.2209" height="4.1822" style="fill:none;stroke-width:.079904;stroke:#000"/>
  <rect id="aud-j217" x="162.84" y="93.473" width="7.2209" height="4.1822" style="fill:none;stroke-width:.079904;stroke:#000"/>
  <rect id="aud-j217a" x="157.96" y="93.473" width="4.7779" height="4.1822" style="fill:none;stroke-width:.079904;stroke:#000"/>
  <rect id="aud-j218" transform="scale(-1,1)" x="-170.06" y="100.39" width="2.1924" height="4.1822" style="fill:#fff;stroke-width:.076553;stroke:#000"/>
  <rect id="aud-j220" transform="scale(-1,1)" x="-167.73" y="100.39" width="2.1924" height="4.1822" style="fill:#fff;stroke-width:.076553;stroke:#000"/>
  <rect id="aud-j216" x="170.5" y="100.39" width="9.664" height="4.1822" style="fill:none;stroke-width:.079904;stroke:#000"/>
  <rect id="aud-j208" x="188.64" y="100.39" width="7.2209" height="4.1822" style="fill:none;stroke-width:.079904;stroke:#000"/>
  <rect id="aud-j206" x="195.97" y="100.39" width="4.7779" height="4.1822" style="fill:none;stroke-width:.079904;stroke:#000"/>
  <rect id="aud-e223" x="158.01" y="137.19" width="4.7779" height="4.1822" style="fill:none;stroke-width:.079904;stroke:#000"/>
  <rect id="aud-e221" x="165.34" y="137.19" width="4.7779" height="4.1822" style="fill:none;stroke-width:.079904;stroke:#000"/>
  <rect id="aud-e215" x="175.44" y="137.19" width="4.7779" height="4.1822" style="fill:none;stroke-width:.079904;stroke:#000"/>
  <rect id="aud-e215a" x="183.13" y="137.19" width="4.2519" height="4.182" style="fill:none;stroke-width:.079904;stroke:#000"/>
  <rect id="aud-e213" x="188.69" y="137.19" width="7.2209" height="4.1822" style="fill:none;stroke-width:.079904;stroke:#000"/>
  <rect id="aud-e207" x="201.27" y="137.19" width="7.2209" height="4.1822" style="fill:none;stroke-width:.079904;stroke:#000"/>
  <rect id="aud-e220" x="175.44" y="144.1" width="7.2209" height="4.1822" style="fill:none;stroke-width:.079904;stroke:#000"/>
  <rect id="aud-e214" x="188.69" y="144.1" width="7.2209" height="4.1822" style="fill:none;stroke-width:.079904;stroke:#000"/>
  <rect id="aud-e210" x="196.02" y="144.1" width="4.7779" height="4.1822" style="fill:none;stroke-width:.079904;stroke:#000"/>
  <rect id="aud-e208" x="201.27" y="144.1" width="7.2209" height="4.1822" style="fill:none;stroke-width:.079904;stroke:#000"/>
  <rect id="aud-e206" x="208.6" y="144.1" width="4.7779" height="4.1822" style="fill:none;stroke-width:.079904;stroke:#000"/>
  <rect id="aud-e204" transform="scale(-1,1)" x="-217.2" y="144.96" width="2.6347" height="5.5367" style="fill-rule:evenodd;fill:none;stroke-width:.075391;stroke:#000" ref="aud-g101">
   <title>Научное общество карбон</title>
  </rect>
  <rect id="aud-e200" x="217.49" y="144.96" width="8.8798" height="5.5367" style="fill:none;stroke-width:.078619;stroke:#000"/>
  <rect id="aud-e201" x="217.49" y="135.57" width="8.8819" height="5.2669" style="fill:none;stroke-width:.076688;stroke:#000"/>
  <rect id="aud-e202a" x="220.36" y="141.29" width="6.0128" height="3.22" style="fill:none;stroke-width:.072403;stroke:#000"/>
  <rect id="aud-j219" x="141.77" y="90.686" width="14.93" height="6.2798" style="fill:none;stroke-width:.026458;stroke:#000"/>
  <rect id="aud-k207b" x="42.781" y="144.89" width="4.1818" height="5.4853" style="fill:none;stroke-width:.079375;stroke:#000" ref="aud-k109a"/>
  <rect x="48.273" y="167.22" width="2.5926" height="1.7762" style="fill:none;stroke-width:.052917;stroke:#000"/>
  <rect id="aud-k221" x="42.779" y="108.61" width="4.1894" height="2.3215" style="fill:none;stroke-width:.076953;stroke:#000" ref="aud-k125"/>
  <rect id="aud-k219" x="42.779" y="111.06" width="4.1894" height="2.3215" style="fill:none;stroke-width:.076953;stroke:#000" ref="aud-k125"/>
  <rect id="aud-k215" x="42.773" y="118.81" width="4.1894" height="2.3215" style="fill:none;stroke-width:.076953;stroke:#000" ref="aud-k125"/>
  <rect id="aud-k213" x="42.773" y="121.23" width="4.1894" height="2.3215" style="fill:none;stroke-width:.076953;stroke:#000" ref="aud-k125"/>
  <rect id="aud-k209" x="42.781" y="131.3" width="4.1894" height="2.3215" style="fill:none;stroke-width:.076953;stroke:#000" ref="aud-k125"/>
  <rect id="aud-k201" x="42.773" y="181.53" width="4.1894" height="2.263" style="fill:none;stroke-width:.075978;stroke:#000" ref="aud-k125"/>
  <rect id="aud-k125-4-3-4-3" x="36.912" y="108.61" width="3.2759" height="2.3215" style="fill:none;stroke-width:.068048;stroke:#000" ref="aud-k125"/>
  <rect id="aud-k218" x="36.912" y="151.63" width="3.1366" height="2.3215" style="fill:none;stroke-width:.066585;stroke:#000" ref="aud-k125"/>
  <rect id="aud-k216" x="36.912" y="154.08" width="3.1366" height="2.3215" style="fill:none;stroke-width:.066585;stroke:#000" ref="aud-k125"/>
  <rect id="aud-k206" x="36.912" y="174.03" width="3.1366" height="2.2665" style="fill:none;stroke-width:.065792;stroke:#000" ref="aud-k125"/>
  <rect id="aud-k212" x="36.912" y="166.86" width="3.1366" height="2.2665" style="fill:none;stroke-width:.065792;stroke:#000" ref="aud-k125"/>
  <rect id="aud-k210" x="36.912" y="169.25" width="3.1366" height="2.2665" style="fill:none;stroke-width:.065792;stroke:#000" ref="aud-k125"/>
  <rect id="aud-k208" x="36.912" y="171.64" width="3.1366" height="2.2665" style="fill:none;stroke-width:.065792;stroke:#000" ref="aud-k125"/>
  <rect id="aud-k202" x="36.912" y="181.53" width="3.1366" height="2.263" style="fill:none;stroke-width:.065742;stroke:#000" ref="aud-k125"/>
  <rect id="aud-i221a" x="146.65" y="184.29" width="4.2922" height="2.8716" style="fill:none;stroke-width:.079375;stroke:#000" ref="aud-i131a"/>
  <path id="aud-i213a" transform="matrix(.26458 0 0 .26458 -33.476 89.97)" d="m680.79 193.81v12.193h8.3965v-0.02344-5.8516-0.90625h7.3848 0.02344v-5.4121h-15.805z" style="fill:none;stroke-width:.2937;stroke:#000"/>
  <rect id="aud-i213" transform="scale(-1,1)" x="-150.83" y="144.95" width="4.1818" height="5.4853" style="fill:none;stroke-width:.079375;stroke:#000" ref="aud-k109a"/>
  <rect id="aud-i207" transform="scale(-1,1)" x="-150.83" y="128.56" width="4.1894" height="2.3215" style="fill:none;stroke-width:.076953;stroke:#000" ref="aud-k125"/>
  <path id="aud-i209" transform="matrix(.26458 0 0 .26458 -33.476 89.97)" d="m680.76 156.43v8.7734h10.01v0.48242h-10.01v8.7754h15.834v-8.7754h-3.1348v-0.48242h3.1348v-8.7734h-15.834z" style="fill:none;stroke-width:.29085;stroke:#000"/>
  <path id="aud-i215" transform="matrix(.26458 0 0 .26458 -33.476 89.97)" d="m680.76 233.27v8.7734h6.3633v0.48242h-6.3633v8.7754h15.834v-8.7754h-6.5527v-0.48242h6.5527v-8.7734h-15.834z" style="fill:none;stroke-width:.29085;stroke:#000"/>
  <rect id="aud-i219" transform="scale(-1,1)" x="-150.84" y="174.07" width="4.1894" height="2.2665" style="fill:none;stroke-width:.076037;stroke:#000" ref="aud-k125"/>
  <rect id="aud-i216" transform="scale(-1,1)" x="-156.69" y="138.71" width="3.27" height="2.3215" style="fill:none;stroke-width:.067987;stroke:#000" ref="aud-k125"/>
  <rect id="aud-i212" transform="scale(-1,1)" x="-156.69" y="131.36" width="3.27" height="2.3215" style="fill:none;stroke-width:.067987;stroke:#000" ref="aud-k125"/>
  <rect id="aud-i218" transform="scale(-1,1)" x="-156.7" y="151.69" width="3.1366" height="2.3215" style="fill:none;stroke-width:.066585;stroke:#000" ref="aud-k125"/>
  <rect id="aud-i220" transform="scale(-1,1)" x="-156.7" y="154.14" width="3.1366" height="2.3215" style="fill:none;stroke-width:.066585;stroke:#000" ref="aud-k125"/>
  <rect id="aud-i226" transform="scale(-1,1)" x="-156.7" y="174.09" width="3.1366" height="2.2665" style="fill:none;stroke-width:.065792;stroke:#000" ref="aud-k125"/>
  <rect id="aud-i223" x="146.65" y="187.63" width="10.051" height="5.8342" style="fill:none;stroke-width:.079904;stroke:#000"/>
  <rect id="aud-i221" x="146.65" y="176.82" width="4.1894" height="7.038" style="fill:none;stroke-width:.079904;stroke:#000"/>
  <path id="aud-i217" transform="matrix(.26458 0 0 .26458 -33.476 89.97)" d="m680.79 290.77v26.641h15.834v-18.125h-7.7266v-8.5156h-8.1074z" style="fill:none;stroke-width:.302;stroke:#000"/>
  <rect id="aud-i215a" x="146.64" y="156.59" width="4.1894" height="4.7706" style="fill:none;stroke-width:.079904;stroke:#000"/>
  <rect id="aud-i211" x="146.64" y="136.26" width="4.1894" height="4.7706" style="fill:none;stroke-width:.079904;stroke:#000"/>
  <rect id="aud-i205" x="146.65" y="123.71" width="4.1818" height="4.7458" style="fill:none;stroke-width:.079904;stroke:#000"/>
  <rect id="aud-i203" x="146.65" y="118.87" width="4.1894" height="4.7458" style="fill:none;stroke-width:.079904;stroke:#000"/>
  <rect id="aud-i201" x="146.64" y="108.67" width="4.1894" height="9.6689" style="fill:none;stroke-width:.079904;stroke:#000"/>
  <rect id="aud-i228" x="153.56" y="176.82" width="3.1366" height="7.038" style="fill:none;stroke-width:.079904;stroke:#000"/>
  <path id="aud-i224" transform="matrix(.26458 0 0 .26458 -33.476 89.97)" d="m706.92 290.83v26.643h5.1582v-7.8066-0.87109h0.82617v0.87109 7.8066h5.8711v-7.8066h-3.8301v-0.87109h3.8301v-17.965h-11.855z" style="fill:none;stroke-width:.302;stroke:#000"/>
  <path id="aud-i222" transform="matrix(.26458 0 0 .26458 -33.476 89.97)" d="m706.92 251.79v18.029h4.4746v1.7871h-4.4746v17.604h11.855v-17.604h-4.2852v-1.7871h4.2852v-18.029h-11.855z" style="fill:none;stroke-width:.302;stroke:#000"/>
  <rect id="aud-i214" x="153.42" y="133.81" width="3.27" height="4.7706" style="fill:none;stroke-width:.079904;stroke:#000"/>
  <rect id="aud-i210" x="153.42" y="126.08" width="3.2776" height="4.7458" style="fill:none;stroke-width:.079904;stroke:#000"/>
  <rect id="aud-i208" x="153.42" y="118.81" width="3.2776" height="7.1701" style="fill:none;stroke-width:.079904;stroke:#000"/>
  <rect id="aud-i202" x="153.42" y="108.66" width="3.2759" height="9.6689" style="fill:none;stroke-width:.079904;stroke:#000"/>
  <rect id="aud-k201a" x="42.773" y="176.76" width="4.1894" height="4.6505" style="fill:none;stroke-width:.079904;stroke:#000"/>
  <rect id="aud-k203" x="42.773" y="166.84" width="4.1894" height="9.44" style="fill:none;stroke-width:.079904;stroke:#000"/>
  <rect id="aud-k205" x="42.781" y="151.63" width="4.1894" height="9.6689" style="fill:none;stroke-width:.079904;stroke:#000"/>
  <path transform="matrix(.26458 0 0 .26458 -33.476 89.97)" d="m288.21 199.95v5.834h9.1426c5.7e-4 -0.03351 0.00586-0.06596 0.00586-0.09961 0-3.1762-2.5562-5.7344-5.7324-5.7344h-3.416z" style="fill:none;stroke-width:.302;stroke:#000"/>
  <path d="m42.781 142.87v1.5436h2.419c1.51e-4 -9e-3 0.0016-0.0175 0.0016-0.0264 0-0.84038-0.67632-1.5172-1.5167-1.5172z" style="fill:none;stroke-width:.079904;stroke:#000"/>
  <path id="aud-k207a" d="m42.781 141.19v1.6826h0.90382c0.84038 0 1.5167 0.67684 1.5167 1.5172 0 9e-3 -0.0014 0.0173-0.0016 0.0264h1.7627v-3.2262z" style="fill:none;stroke-width:.077708;stroke:#000"/>
  <rect id="aud-k207" x="42.781" y="133.75" width="4.1894" height="7.2198" style="fill:none;stroke-width:.079904;stroke:#000"/>
  <rect id="aud-k211" x="42.781" y="123.66" width="4.1818" height="7.1701" style="fill:none;stroke-width:.079904;stroke:#000"/>
  <rect id="aud-k217" x="42.779" y="113.51" width="4.1894" height="4.7706" style="fill:none;stroke-width:.079904;stroke:#000"/>
  <rect id="aud-k226" x="36.912" y="111.06" width="3.2759" height="7.2198" style="fill:none;stroke-width:.079904;stroke:#000"/>
  <rect id="aud-k224" x="36.912" y="118.75" width="3.2775" height="7.1701" style="fill:none;stroke-width:.079904;stroke:#000"/>
  <rect id="aud-k224a" x="36.918" y="126.03" width="3.2775" height="4.7458" style="fill:none;stroke-width:.079904;stroke:#000"/>
  <rect id="aud-k222" x="36.918" y="131.3" width="3.27" height="9.6689" style="fill:none;stroke-width:.079904;stroke:#000"/>
  <rect id="aud-k214" x="36.912" y="156.53" width="3.1366" height="4.7706" style="fill:none;stroke-width:.079904;stroke:#000"/>
  <rect id="aud-k212a" x="36.912" y="161.77" width="3.1366" height="4.6577" style="fill:none;stroke-width:.079904;stroke:#000"/>
  <rect id="aud-k204" x="36.912" y="176.76" width="3.1366" height="4.6505" style="fill:none;stroke-width:.079904;stroke:#000"/>
 </g>
</svg>
