<svg width="661.91mm" height="264.58mm" version="1.1" viewBox="0 0 661.91 264.58" xmlns="http://www.w3.org/2000/svg">
 <path transform="scale(.26458)" d="m1727.2 6.877v97.711h41.055 4.5528v72.215h1.4199 16.518v-9.8027h35.615v-62.412h-34.146v-4.5508h34.146v-5.4688h0.1289 12.057v2.6758h116.28v-2.6758h4.5527v2.6758h115.94v-2.6758h4.5508v2.6758h41.305v-2.6758h12.051v2.6758h116.28v-2.6758h4.5508v2.6758h116.28v-2.6758h11.918v9.6035h22.692 2.6093v-32.936h-2.6093v-2.8145h2.6093v-51.508h-25.168v51.508h-0.127v9.6777h-11.918v-1.4727h-116.28v1.4727h-4.5469v-1.4727h-116.29v1.6074h-12.051v-1.7402h-41.297l-0.0097 1.3379h-4.5508v-1.2051h-115.95v1.2051h-4.5508v-1.2051h-116.28v1.3398h-12.055-0.1289v-9.709h-35.621-17.938-4.5528v-61.381h-41.051zm-1632.2 10.037v83.381h25.301v-5.7227h11.918v2.6758h116.28v-2.6758h4.5469v2.6758h116.28v-2.6758h12.051v2.6758h41.303v-2.6758h4.5527v2.6758h115.94v-2.6758h4.5508v2.6758h116.28v-2.6758h11.916v8.4629h35.885v4.5703h-35.73v59.381h35.73v6.1035 5.916h-35.701v310.8h34.232v2.1641h-34.416v6.0703h-6.0898-5.832v-1.5488h-116.85v1.5488h-4.5566v-1.5488h-116.05v1.5488h-4.5566v-1.5488h-40.871v1.5488h-12.066v-1.5488h-116.92v3.5449h-4.5566v-3.5449h-115.86v3.5449h-12.061v-63.262h-25.193v56.088h-26.436v28.268h26.436v3.3438h25.193v-8.1738h12.061v0.8086h115.86v-0.8086h4.5566v0.8086h116.92v-0.8086h12.066v0.8086h40.871v-0.8086h4.5566v0.8086h116.05v-0.8086h4.5566v0.8086h116.85v-0.8086h5.832 6.0898v6.6348h35.83v4.5527h-35.83v52.678h34.246v12.051h-1.1758-32.932v313.63 9.748h-5.4883v-0.07422h-6.2539v-1.8672h-116.32v1.8672h-4.5508v-1.8672h-115.99v1.8672h-4.5547v-1.5488h-41.855v1.5488h-11.514v-1.8672h-116.44v1.8672h-4.5527v-1.8672h-116.04v1.8672h-12.221v-61.662h-25.178v87.783h25.178v-9.5996h12.221v2.2598h116.04v-2.3144h4.5527v2.3144h116.44v-2.3144h11.514v2.3144 42.949h0.38477 41.471v-42.949-2.3144h4.5547v2.3144h115.99v-2.3144h4.5508v2.3144h116.32v-1.6777h6.2539v-0.08008h5.4883v0.87891h-0.13868v1.0273h2.6152v2.8086h-2.6152v0.70899 56.035h30.262 24.109v-56.033h-24.109-1.8066v-0.71094-2.8086-1.0273h25.916v-27.58h-2.377v-4.5566h1.6973v-67.742h-1.6973v-4.5566h1.6973v-90.498h-1.6973v-4.5508h44.674v-19.953h5.7812v2.0703h79.217v-1.7324h2.8144v1.7324h156.98v-3.6074h4.5508 3.7519v9.9062h-8.3027v-3.4805h-70.959v40.162h70.959v-6.416h8.3027 4.0625v-35.242h45.223v1.502h350.27v-1.8242h45.965v35.561h5.6992 6.1934 2.1093v5.4883h68.865v-39.625h-68.865v3.8711h-2.1093-6.1934v-9.9062h3.752 4.5507v1.6719 1.5488h231.42v-1.5488h13.391v19.812h44.674v4.5527h-1.6973v90.502h1.6973v4.5566h-1.6973v67.742h1.6973v4.5566h-2.3789v27.58h2.4707v4.5586h-2.6153v56.744h54.371v-56.744h-25.916v-4.5586h25.922v-0.80469h12.057v1.6738h116.68v-2.3086h4.1503v2.3086h115.94v-2.3086h4.5527v2.3086h41.303v-2.3086h12.051v2.3086h116.4v-2.3086h4.5508v2.3086h115.99v-2.2832h12.219v8.7441h25.168v-33.873h-3.7461v-2.8144h3.8105v-50.135h-25.232v50.133h1.3399v2.8145h-1.3399v8.6602h-12.219v-1.8711h-115.99v1.8711h-4.5547v-1.8711h-116.4v1.8711h-12.051v-1.5469h-41.309v1.5469h-4.5508v-1.8711h-115.95v0.45312h-4.1485v-0.45312h-116.68v1.8711h-12.055v-9.6973h-34.108v-4.5566h1.1758 32.936v-309.06h-32.936-1.1758v-12.051h33.979v-52.684h-34.488v-4.5527h34.488v-6.6348h12.184v0.80859h116.74v-0.80859h4.5566v0.80859h115.94v-0.80859h4.5469v0.80859h40.836v-0.80859h12.051v0.80859h116.81v-0.80859h4.5508v1.291h115.75v-1.291h11.916v7.5039h51.781v-30.926h-26.478v-54.928h-25.303v54.928 7.1582h-11.916v-3.5449h-115.75v1.877h-4.5508v-1.877h-116.81v1.5488h-12.051v-1.957h-40.764l0.0098 1.957h-4.625v-1.5488h-115.94v1.5488h-4.5566v-1.5488h-116.74v1.5488h-12.184v-6.0703-95.02h-34.146-19.272v95.02h0.5352v30.971 4.5508h-0.5352v52.68h2.0547v12.051h-2.0547v92.846h1.6973v4.5547h-44.674v6.3633h-244.81v1.6094h-4.5507v-1.6094h-3.752-15.223v-3.0371h-25.506v3.0371h-13.99v-3.0371h-25.51v3.0371h-13.322v-3.0371h-25.506v3.0371h-14.66v-3.0371h-25.506v3.0371h-27.506v-5.3555h-77.387v5.3555h-27.877v-3.0371h-25.506v3.0371h-14.662v-3.0371h-25.506v3.0371h-13.32v-3.0371h-25.506v3.0371h-13.99v-3.0371h-3.5195v1.0976h-21.982v1.9395h-15.226-3.752v1.6094h-4.5527v-1.3262h-156.98-2.8125-79.219-5.7812v-6.6406h-44.674v-4.5566h1.6973v-92.846h-2.0547v-12.051h2.0547v-52.684h-2.8672v-4.5508h2.8672v-30.971-95.02h-2.5449v-4.5508h2.5449v-113.25-100.09h-1.3945v-5.9609-6.0898h1.3945v-63.971-31.426h-53.691v6.3633h-11.92v-1.3398h-116.28v1.2051h-4.5508v-1.2051h-115.94v1.2051h-4.5527v-1.2051h-41.303v1.6074h-12.051v-1.6074h-116.28v1.4727h-4.5469v-1.4727h-116.28v1.4727h-11.918v-61.186h-25.301z" style="fill-rule:evenodd;fill:#fff6d5;stroke-width:.3;stroke:#f00"/>
 <rect id="aud-k311" x="193.78" y="130.16" width="10.627" height="8.1981" style="fill:none;stroke-width:.079375;stroke:#000" ref="aud-k109b"/>
 <rect id="aud-g301a" x="25.127" y="26.819" width="6.6951" height="15.596" style="fill:none;stroke-width:.079375;stroke:#000"/>
 <path d="m178.87 1.8201v16.843h15.373v25.523h22.566v-42.365h-23.77z" style="fill:none;stroke-width:.079375;stroke:#000"/>
 <rect id="aud-i319" x="457.8" y="239.73" width="10.492" height="23.297" style="fill:none;stroke-width:.079375;stroke:#000" ref="aud-i131a"/>
 <rect id="aud-v301a" x="24.985" y="139.51" width="6.8013" height="13.993" style="fill:none;stroke-width:.079375;stroke:#000"/>
 <rect id="aud-b301" x="25.16" y="250.14" width="6.6629" height="12.882" style="fill:none;stroke-width:.079375;stroke:#000"/>
 <path d="m177.25 0.1706v7.0858h-143.79v-4.428h-33.299v41.233h33.299v-5.3144h143.79v7.0488h0.16022v72.781h-143.64v-4.428h-33.374v40.77h33.374v-5.3131h143.64v79.35h-144.21v-4.428h-32.802v39.887h32.802v-4.428h144.21v4.428h28.409v-62.414h65.711v15.3h118.61v-15.3h66.169v62.414h28.534v-4.4609h143.57v4.4609h33.319v-40.187h-33.319v4.6539h-143.57v-79.276h143.4v5.3131h33.483v-40.773h-33.483v4.428h-143.4v-80.062h143.82v5.5455h33.073v-41.235h-33.073v4.6591h-143.82v-7.3158h-41.163v45.613h12.629v136.71h-250.49v-136.7h12.629v-45.626h-41.198z" style="fill:none;stroke-width:.079375;stroke:#000"/>
 <rect id="aud-g313" x="144.91" y="26.474" width="11.504" height="10.627" style="fill:none;stroke-width:.079375;stroke:#000"/>
 <rect x="156.7" y="26.474" width="3.4361" height="2.1336" style="fill:none;stroke-width:.079375;stroke:#000"/>
 <rect x="160.42" y="26.474" width="5.5616" height="2.1336" style="fill:none;stroke-width:.079375;stroke:#000"/>
 <rect x="166.26" y="26.474" width="5.5616" height="2.1336" style="fill:none;stroke-width:.079375;stroke:#000"/>
 <path d="m172.11 26.474v2.4162h-15.41v8.2112h18.978v-10.627z" style="fill:none;stroke-width:.079375;stroke:#000"/>
 <rect id="aud-g301" x="34.979" y="26.474" width="5.9331" height="10.627" style="fill:none;stroke-width:.079375;stroke:#000"/>
 <rect id="aud-g305a" x="85.572" y="26.474" width="5.9331" height="10.627" style="fill:#fff;stroke-width:.079375;stroke:#000"/>
 <rect id="aud-g305b" x="91.78" y="26.474" width="5.9331" height="10.627" style="fill:#fff;stroke-width:.079375;stroke:#000"/>
 <rect x="131.66" y="26.474" width="5.9331" height="10.627" style="fill:#fff;stroke-width:.079375;stroke:#000"/>
 <rect id="aud-g311" x="137.87" y="26.474" width="5.9331" height="10.627" style="fill:#fff;stroke-width:.079375;stroke:#000"/>
 <rect id="aud-g304" x="66.947" y="8.904" width="5.9331" height="10.627" style="fill:#fff;stroke-width:.079375;stroke:#000"/>
 <rect id="aud-g306a" x="91.78" y="8.904" width="5.9331" height="10.627" style="fill:#fff;stroke-width:.079375;stroke:#000"/>
 <rect id="aud-v319" x="144.67" y="137.56" width="11.504" height="10.627" style="fill:none;stroke-width:.079375;stroke:#000"/>
 <rect x="156.46" y="137.56" width="3.4361" height="2.1336" style="fill:none;stroke-width:.079375;stroke:#000"/>
 <rect x="160.18" y="137.56" width="5.5616" height="2.1336" style="fill:none;stroke-width:.079375;stroke:#000"/>
 <rect x="166.02" y="137.56" width="5.5616" height="2.1336" style="fill:none;stroke-width:.079375;stroke:#000"/>
 <path d="m171.87 137.56v2.4162h-15.41v8.2112h18.978v-10.627z" style="fill:none;stroke-width:.079375;stroke:#000"/>
 <rect id="aud-v303" x="34.736" y="137.56" width="5.9331" height="10.627" style="fill:#fff;stroke-width:.079375;stroke:#000"/>
 <rect id="aud-v317" x="137.62" y="137.56" width="5.9331" height="10.627" style="fill:#fff;stroke-width:.079375;stroke:#000"/>
 <rect x="66.704" y="119.99" width="5.9331" height="10.627" style="fill:#fff;stroke-width:.079375;stroke:#000"/>
 <rect id="aud-v314" x="137.62" y="119.99" width="5.9331" height="10.627" style="fill:#fff;stroke-width:.079375;stroke:#000"/>
 <rect id="aud-v316" x="144.67" y="119.99" width="5.9331" height="10.627" style="fill:#fff;stroke-width:.079375;stroke:#000"/>
 <rect id="aud-v318a" x="150.88" y="119.99" width="5.9331" height="10.627" style="fill:#fff;stroke-width:.079375;stroke:#000"/>
 <rect id="aud-b302" x="34.993" y="230.37" width="5.9331" height="10.627" style="fill:#fff;stroke-width:.079375;stroke:#000"/>
 <rect id="aud-b310a" x="113.05" y="230.37" width="5.9331" height="10.627" style="fill:#fff;stroke-width:.079375;stroke:#000"/>
 <rect id="aud-b312" x="144.93" y="230.37" width="11.504" height="10.627" style="fill:none;stroke-width:.079375;stroke:#000"/>
 <rect x="156.71" y="238.86" width="3.4361" height="2.1336" style="fill:none;stroke-width:.079375;stroke:#000"/>
 <rect x="160.43" y="238.86" width="5.5616" height="2.1336" style="fill:none;stroke-width:.079375;stroke:#000"/>
 <rect x="166.28" y="238.86" width="5.5616" height="2.1336" style="fill:none;stroke-width:.079375;stroke:#000"/>
 <path d="m172.12 240.99v-2.4162h-15.41v-8.2112h18.978v10.627z" style="fill:none;stroke-width:.079375;stroke:#000"/>
 <rect id="aud-b309a" x="169.76" y="247.94" width="5.9331" height="10.627" style="fill:#fff;stroke-width:.079375;stroke:#000"/>
 <rect id="aud-g121-8" x="505.72" y="26.473" width="11.504" height="10.627" style="fill:none;stroke-width:.079375;stroke:#000"/>
 <rect transform="scale(-1,1)" x="-499.31" y="26.473" width="3.4361" height="2.1336" style="fill:none;stroke-width:.079375;stroke:#000"/>
 <rect transform="scale(-1,1)" x="-495.87" y="26.473" width="5.5616" height="2.1336" style="fill:none;stroke-width:.079375;stroke:#000"/>
 <path d="m490.03 26.473v2.4162h9.06v8.2112h-12.628v-10.627z" style="fill:none;stroke-width:.079375;stroke:#000"/>
 <rect id="aud-j305" x="602.6" y="8.9033" width="5.9331" height="10.627" style="fill:#fff;opacity:.99;stroke-width:.079375;stroke:#000"/>
 <rect id="aud-j305a" x="596.39" y="8.9033" width="5.9331" height="10.627" style="fill:#fff;opacity:.99;stroke-width:.079375;stroke:#000"/>
 <rect id="aud-j311a" x="530.75" y="8.9033" width="5.9331" height="10.627" style="fill:#fff;stroke-width:.079375;stroke:#000"/>
 <rect id="aud-j315" x="511.29" y="8.9033" width="5.9331" height="10.627" style="fill:#fff;stroke-width:.079375;stroke:#000"/>
 <rect transform="scale(-1,1)" x="-505.58" y="137.56" width="3.4361" height="2.1336" style="fill:none;stroke-width:.079375;stroke:#000"/>
 <rect transform="scale(-1,1)" x="-501.86" y="137.56" width="5.5616" height="2.1336" style="fill:none;stroke-width:.079375;stroke:#000"/>
 <rect transform="scale(-1,1)" x="-496.01" y="137.56" width="5.5616" height="2.1336" style="fill:none;stroke-width:.079375;stroke:#000"/>
 <path d="m490.17 137.56v2.4162h15.41v8.2112h-18.978v-10.627z" style="fill:none;stroke-width:.079375;stroke:#000"/>
 <rect id="aud-e306" x="608.95" y="137.56" width="5.9331" height="10.627" style="fill:#fff;stroke-width:.079375;stroke:#000"/>
 <rect id="aud-e310" x="589.4" y="137.56" width="5.9331" height="10.627" style="fill:#fff;stroke-width:.079375;stroke:#000"/>
 <rect id="aud-e307" x="589.4" y="119.99" width="5.9331" height="10.627" style="fill:#fff;stroke-width:.079375;stroke:#000"/>
 <rect id="aud-e311" x="570.77" y="119.99" width="5.9331" height="10.627" style="fill:#fff;stroke-width:.079375;stroke:#000"/>
 <rect id="aud-e313" x="564.56" y="119.99" width="5.9331" height="10.627" style="fill:#fff;stroke-width:.079375;stroke:#000"/>
 <rect id="aud-e315" x="543.31" y="119.99" width="5.9331" height="10.627" style="fill:#fff;stroke-width:.079375;stroke:#000"/>
 <rect id="aud-e317" x="537.1" y="119.99" width="5.9331" height="10.627" style="fill:#fff;stroke-width:.079375;stroke:#000"/>
 <rect id="aud-e321" x="511.43" y="119.99" width="5.9331" height="10.627" style="fill:#fff;stroke-width:.079375;stroke:#000"/>
 <rect id="aud-e323" x="505.22" y="119.99" width="5.9331" height="10.627" style="fill:#fff;stroke-width:.079375;stroke:#000"/>
 <rect id="aud-d304a" x="602.63" y="247.94" width="5.9331" height="10.627" style="fill:#fff;stroke-width:.079375;stroke:#000"/>
 <rect id="aud-d306" x="596.42" y="247.94" width="5.9331" height="10.627" style="fill:#fff;stroke-width:.079375;stroke:#000"/>
 <rect id="aud-d308a" x="570.66" y="247.94" width="5.9331" height="10.627" style="fill:#fff;stroke-width:.079375;stroke:#000"/>
 <rect id="aud-d310" x="564.45" y="247.94" width="5.9331" height="10.627" style="fill:#fff;stroke-width:.079375;stroke:#000"/>
 <rect id="aud-d303" x="596.42" y="230.37" width="5.9331" height="10.627" style="fill:#fff;stroke-width:.079375;stroke:#000"/>
 <rect id="aud-d305" x="589.29" y="230.37" width="5.9331" height="10.627" style="fill:#fff;stroke-width:.079375;stroke:#000"/>
 <rect id="aud-d307a" x="583.08" y="230.37" width="5.9331" height="10.627" style="fill:#fff;stroke-width:.079375;stroke:#000"/>
 <rect id="aud-d313a" x="543.2" y="230.37" width="5.9331" height="10.627" style="fill:#fff;stroke-width:.079375;stroke:#000"/>
 <rect id="aud-d315a" x="524.58" y="230.37" width="5.9331" height="10.627" style="fill:#fff;stroke-width:.079375;stroke:#000"/>
 <rect id="aud-d315b" x="518.37" y="230.37" width="5.9331" height="10.627" style="fill:#fff;stroke-width:.079375;stroke:#000"/>
 <rect id="aud-d309" x="555.93" y="230.37" width="5.3403" height="10.627" style="fill:#fff;stroke-width:.079375;stroke:#000"/>
 <rect id="aud-d311" x="550.34" y="230.37" width="5.3403" height="10.627" style="fill:#fff;stroke-width:.079375;stroke:#000"/>
 <rect id="aud-k303a" x="193.76" y="195.35" width="10.646" height="5.7596" style="fill:none;stroke-width:.079375;stroke:#000"/>
 <rect id="aud-i307a" x="457.73" y="130.31" width="10.627" height="8.1981" style="fill:none;stroke-width:.079375;stroke:#000" ref="aud-k109b"/>
 <rect id="aud-i309" transform="scale(-1,1)" x="-468.35" y="139.71" width="10.627" height="13.939" style="fill:none;stroke-width:.079375;stroke:#000" ref="aud-k109a"/>
 <rect id="aud-i315a" x="457.73" y="195.49" width="10.646" height="5.7596" style="fill:none;stroke-width:.079375;stroke:#000"/>
 <rect id="aud-i317" x="457.73" y="220.69" width="10.646" height="17.885" style="fill:none;stroke-width:.079375;stroke:#000"/>
 <rect id="aud-i315" x="457.73" y="201.57" width="10.646" height="17.912" style="fill:none;stroke-width:.079375;stroke:#000"/>
 <rect id="aud-i311" x="457.71" y="156.84" width="10.646" height="24.57" style="fill:none;stroke-width:.079375;stroke:#000"/>
 <rect id="aud-i307" x="457.71" y="117.62" width="10.646" height="12.123" style="fill:none;stroke-width:.079375;stroke:#000"/>
 <rect id="aud-i305" x="457.71" y="105.17" width="10.646" height="12.123" style="fill:none;stroke-width:.079375;stroke:#000"/>
 <rect id="aud-i303" x="457.71" y="73.292" width="25.559" height="30.677" style="fill:none;stroke-width:.079375;stroke:#000"/>
 <path id="aud-j323" d="m474.94 47.504v12.448h-5.8449v11.987h14.169v-24.434z" style="fill:none;stroke-width:.079375;stroke:#000"/>
 <rect x="469.1" y="47.501" width="5.0991" height="11.646" style="fill:none;stroke-width:.079375;stroke:#000"/>
 <rect id="aud-j321" x="457.71" y="47.521" width="10.646" height="24.57" style="fill:none;stroke-width:.079375;stroke:#000"/>
 <rect id="aud-k301" x="193.5" y="239.67" width="10.907" height="23.327" style="fill:none;stroke-width:.079375;stroke:#000"/>
 <rect id="aud-k302" x="193.76" y="220.54" width="10.646" height="17.885" style="fill:none;stroke-width:.079375;stroke:#000"/>
 <rect id="aud-k303" x="193.76" y="201.42" width="10.646" height="17.912" style="fill:none;stroke-width:.079375;stroke:#000"/>
 <rect id="aud-k305" x="193.78" y="156.69" width="10.646" height="24.57" style="fill:none;stroke-width:.079375;stroke:#000"/>
 <rect id="aud-k307" x="193.78" y="143.8" width="5.2823" height="9.7017" style="fill:none;stroke-width:.079375;stroke:#000"/>
 <path id="aud-k309" d="m193.78 139.56v4.2363h5.2829v9.7017h5.3433v-13.938z" style="fill:none;stroke-width:.079375;stroke:#000"/>
 <rect id="aud-k313" x="193.78" y="105.03" width="10.646" height="24.57" style="fill:none;stroke-width:.079375;stroke:#000"/>
 <rect id="aud-k315a" x="193.78" y="91.762" width="10.646" height="12.06" style="fill:none;stroke-width:.079375;stroke:#000"/>
 <rect id="aud-k315" x="193.76" y="73.28" width="10.646" height="18.22" style="fill:none;stroke-width:.079375;stroke:#000"/>
 <rect id="aud-k317" x="193.78" y="47.374" width="10.646" height="24.57" style="fill:none;stroke-width:.079375;stroke:#000"/>
 <rect id="aud-j300" x="630.31" y="28.883" width="6.6965" height="13.714" style="fill:none;stroke-width:.079375;stroke:#000"/>
 <rect id="aud-j302" x="608.81" y="26.473" width="18.349" height="10.627" style="fill:none;stroke-width:.079375;stroke:#000"/>
 <rect id="aud-j304" x="596.39" y="26.473" width="12.141" height="10.627" style="fill:none;stroke-width:.079375;stroke:#000"/>
 <rect id="aud-j306" x="583.05" y="26.473" width="12.141" height="10.627" style="fill:none;stroke-width:.079375;stroke:#000"/>
 <rect id="aud-j308" x="564.42" y="26.473" width="18.349" height="10.627" style="fill:none;stroke-width:.079375;stroke:#000"/>
 <rect id="aud-j310" x="550.31" y="26.473" width="10.928" height="10.627" style="fill:none;stroke-width:.079375;stroke:#000"/>
 <rect id="aud-j312" x="530.75" y="26.473" width="18.349" height="10.627" style="fill:none;stroke-width:.079375;stroke:#000"/>
 <rect id="aud-j314" x="518.34" y="26.473" width="12.141" height="10.627" style="fill:none;stroke-width:.079375;stroke:#000"/>
 <rect id="aud-j319" x="468.32" y="1.8194" width="14.949" height="15.958" style="fill:none;stroke-width:.079375;stroke:#000"/>
 <rect x="445.3" y="15.455" width="10.592" height="12.217" style="fill:none;stroke-width:.079375;stroke:#000"/>
 <rect id="aud-j318" x="445.28" y="1.7765" width="10.615" height="12.584" style="fill:none;stroke-width:.079375;stroke:#000"/>
 <rect x="445.29" y="28.489" width="22.904" height="15.825" style="fill:none;stroke-width:.079375;stroke:#000"/>
 <rect id="aud-j317" x="486.46" y="8.9033" width="24.558" height="10.627" style="fill:none;stroke-width:.079375;stroke:#000"/>
 <rect id="aud-j313" x="518.34" y="8.9033" width="12.141" height="10.627" style="fill:none;stroke-width:.079375;stroke:#000"/>
 <rect id="aud-j311" x="536.96" y="8.9033" width="12.141" height="10.627" style="fill:none;stroke-width:.079375;stroke:#000"/>
 <rect id="aud-j309a" x="550.31" y="8.9033" width="10.928" height="10.627" style="fill:none;stroke-width:.079375;stroke:#000"/>
 <rect id="aud-j309" x="564.42" y="8.9033" width="18.349" height="10.627" style="fill:none;stroke-width:.079375;stroke:#000"/>
 <rect id="aud-j307" x="583.05" y="8.9033" width="12.141" height="10.627" style="fill:none;stroke-width:.079375;stroke:#000"/>
 <rect id="aud-j303" x="608.81" y="8.9033" width="18.349" height="10.627" style="fill:none;opacity:.99;stroke-width:.079375;stroke:#000"/>
 <rect id="aud-j315-7" x="499.5" y="26.473" width="5.9331" height="10.627" style="fill:#fff;stroke-width:.079375;stroke:#000"/>
 <rect id="aud-g303a" x="41.187" y="26.474" width="12.141" height="10.627" style="fill:none;stroke-width:.079375;stroke:#000"/>
 <rect id="aud-g303" x="53.603" y="26.474" width="12.141" height="10.627" style="fill:none;stroke-width:.079375;stroke:#000"/>
 <rect id="aud-g305" x="66.948" y="26.474" width="18.349" height="10.627" style="fill:none;stroke-width:.079375;stroke:#000"/>
 <rect id="aud-g307" x="100.9" y="26.474" width="10.928" height="10.627" style="fill:none;stroke-width:.079375;stroke:#000"/>
 <rect id="aud-g309" x="113.03" y="26.474" width="18.349" height="10.627" style="fill:none;stroke-width:.079375;stroke:#000"/>
 <rect id="aud-g314" x="157.33" y="8.904" width="18.349" height="10.627" style="fill:none;stroke-width:.079375;stroke:#000"/>
 <rect id="aud-g312" x="144.92" y="8.904" width="12.141" height="10.627" style="fill:none;stroke-width:.079375;stroke:#000"/>
 <rect id="aud-g310" x="113.03" y="8.904" width="30.766" height="10.627" style="fill:none;stroke-width:.079375;stroke:#000"/>
 <rect id="aud-g308" x="100.9" y="8.904" width="10.928" height="10.627" style="fill:none;stroke-width:.079375;stroke:#000"/>
 <rect id="aud-g306" x="73.155" y="8.904" width="18.349" height="10.627" style="fill:none;stroke-width:.079375;stroke:#000"/>
 <rect id="aud-g302" x="47.394" y="8.904" width="18.349" height="10.627" style="fill:none;stroke-width:.079375;stroke:#000"/>
 <rect id="aud-g302a" x="34.978" y="8.904" width="12.141" height="10.627" style="fill:none;stroke-width:.079375;stroke:#000"/>
 <rect id="aud-v300" x="1.818" y="130.41" width="15.275" height="7.4746" style="fill:none;stroke-width:.079375;stroke:#000"/>
 <rect id="aud-v302" x="1.8178" y="115.56" width="22.104" height="14.099" style="fill:none;stroke-width:.079375;stroke:#000"/>
 <rect id="aud-v301" x="1.8178" y="138.63" width="22.884" height="14.878" style="fill:none;stroke-width:.079375;stroke:#000"/>
 <rect id="aud-v305" x="40.944" y="137.56" width="12.141" height="10.627" style="fill:none;stroke-width:.079375;stroke:#000"/>
 <rect id="aud-v307" x="53.36" y="137.56" width="12.141" height="10.627" style="fill:none;stroke-width:.079375;stroke:#000"/>
 <rect id="aud-v309" x="66.705" y="137.56" width="12.141" height="10.627" style="fill:none;stroke-width:.079375;stroke:#000"/>
 <rect id="aud-v311" x="79.121" y="137.56" width="18.349" height="10.627" style="fill:none;stroke-width:.079375;stroke:#000"/>
 <rect id="aud-v313" x="100.66" y="137.56" width="10.928" height="10.627" style="fill:none;stroke-width:.079375;stroke:#000"/>
 <rect id="aud-v315a" x="112.79" y="137.56" width="12.141" height="10.627" style="fill:none;stroke-width:.079375;stroke:#000"/>
 <rect id="aud-v315" x="125.21" y="137.56" width="12.141" height="10.627" style="fill:none;stroke-width:.079375;stroke:#000"/>
 <rect id="aud-v318" x="157.09" y="119.99" width="18.349" height="10.627" style="fill:none;stroke-width:.079375;stroke:#000"/>
 <rect id="aud-v312" x="112.79" y="119.99" width="24.558" height="10.627" style="fill:none;stroke-width:.079375;stroke:#000"/>
 <rect id="aud-v310a" x="100.66" y="119.99" width="10.928" height="10.628" style="fill:none;stroke-width:.079375;stroke:#000"/>
 <rect id="aud-v310b" x="85.329" y="119.99" width="12.141" height="10.627" style="fill:none;stroke-width:.079375;stroke:#000"/>
 <rect id="aud-v308" x="72.913" y="119.99" width="12.141" height="10.627" style="fill:none;stroke-width:.079375;stroke:#000"/>
 <rect id="aud-v306" x="53.36" y="119.99" width="12.141" height="10.627" style="fill:none;stroke-width:.079375;stroke:#000"/>
 <rect id="aud-v304" x="34.735" y="119.99" width="18.349" height="10.627" style="fill:none;stroke-width:.079375;stroke:#000"/>
 <rect id="aud-b303" x="34.993" y="247.94" width="30.766" height="10.627" style="fill:none;stroke-width:.079375;stroke:#000"/>
 <rect id="aud-b305" x="66.962" y="247.94" width="30.766" height="10.627" style="fill:none;stroke-width:.079375;stroke:#000"/>
 <rect id="aud-b304" x="41.201" y="230.37" width="24.558" height="10.627" style="fill:none;stroke-width:.079375;stroke:#000"/>
 <rect id="aud-b306" x="66.962" y="230.37" width="30.766" height="10.627" style="fill:none;stroke-width:.079375;stroke:#000"/>
 <rect id="aud-b308" x="100.92" y="230.37" width="10.928" height="10.628" style="fill:none;stroke-width:.079375;stroke:#000"/>
 <rect id="aud-b310" x="119.26" y="230.37" width="24.558" height="10.627" style="fill:none;stroke-width:.079375;stroke:#000"/>
 <rect id="aud-b307" x="113.05" y="247.94" width="30.766" height="10.627" style="fill:none;stroke-width:.079375;stroke:#000"/>
 <rect id="aud-b309" x="144.93" y="247.94" width="24.558" height="10.627" style="fill:none;stroke-width:.079375;stroke:#000"/>
 <rect id="aud-e301" x="637.93" y="115.89" width="22.411" height="13.642" style="fill:none;stroke-width:.079375;stroke:#000"/>
 <rect id="aud-e300" x="644.86" y="130.41" width="15.478" height="8.1824" style="fill:none;stroke-width:.079375;stroke:#000"/>
 <rect x="630.31" y="139.41" width="30.03" height="14.137" style="fill:none;stroke-width:.079375;stroke:#000"/>
 <rect x="630.31" y="145.95" width="6.6975" height="7.6054" style="fill:none;stroke-width:.079375;stroke:#000"/>
 <rect x="630.31" y="145.95" width="6.6975" height="7.6054" style="fill:none;stroke-width:.079375;stroke:#000"/>
 <rect id="aud-e302" x="637.01" y="139.41" width="23.332" height="14.137" style="fill:none;stroke-width:.079375;stroke:#000"/>
 <rect id="aud-e303" x="615.16" y="119.99" width="12.141" height="10.627" style="fill:none;stroke-width:.079375;stroke:#000"/>
 <rect id="aud-e305" x="596.53" y="119.99" width="18.349" height="10.627" style="fill:none;stroke-width:.079375;stroke:#000"/>
 <rect id="aud-e309" x="576.98" y="119.99" width="12.141" height="10.627" style="fill:none;stroke-width:.079375;stroke:#000"/>
 <rect id="aud-e313a" x="550.45" y="119.99" width="10.785" height="10.627" style="fill:none;stroke-width:.079375;stroke:#000"/>
 <rect id="aud-e319" x="518.48" y="119.99" width="18.349" height="10.627" style="fill:none;stroke-width:.079375;stroke:#000"/>
 <rect id="aud-e325" x="486.6" y="119.99" width="18.349" height="10.627" style="fill:none;stroke-width:.079375;stroke:#000"/>
 <rect id="aud-e324" x="505.94" y="137.56" width="5.4809" height="10.634" style="fill:#fff;stroke-width:.079375;stroke:#000"/>
 <rect id="aud-e322" x="511.88" y="137.56" width="5.4809" height="10.634" style="fill:#fff;stroke-width:.079375;stroke:#000"/>
 <rect id="aud-e320" x="518.48" y="137.56" width="18.349" height="10.627" style="fill:none;stroke-width:.079375;stroke:#000"/>
 <rect id="aud-e318" x="537.1" y="137.56" width="12.141" height="10.627" style="fill:none;stroke-width:.079375;stroke:#000"/>
 <rect id="aud-e316" x="550.45" y="137.56" width="10.928" height="10.627" style="fill:none;stroke-width:.079375;stroke:#000"/>
 <rect id="aud-e314" x="564.56" y="137.56" width="12.141" height="10.627" style="fill:none;stroke-width:.079375;stroke:#000"/>
 <rect id="aud-e312" x="576.98" y="137.56" width="12.141" height="10.627" style="fill:none;stroke-width:.079375;stroke:#000"/>
 <rect id="aud-e308" x="596.53" y="137.56" width="12.141" height="10.627" style="fill:none;stroke-width:.079375;stroke:#000"/>
 <rect id="aud-e304" x="615.16" y="137.56" width="12.141" height="10.627" style="fill:none;stroke-width:.079375;stroke:#000"/>
 <rect transform="scale(-1)" x="-505.47" y="-241" width="3.4361" height="2.1336" style="fill:none;stroke-width:.079375;stroke:#000"/>
 <rect transform="scale(-1)" x="-501.75" y="-241" width="5.5616" height="2.1336" style="fill:none;stroke-width:.079375;stroke:#000"/>
 <rect transform="scale(-1)" x="-495.9" y="-241" width="5.5616" height="2.1336" style="fill:none;stroke-width:.079375;stroke:#000"/>
 <path d="m490.06 241v-2.4162h15.41v-8.2112h-18.978v10.627z" style="fill:none;stroke-width:.079375;stroke:#000"/>
 <rect id="aud-d319" x="505.75" y="230.37" width="5.4809" height="10.634" style="fill:#fff;stroke-width:.079375;stroke:#000"/>
 <rect id="aud-d317" x="511.69" y="230.37" width="5.4809" height="10.634" style="fill:#fff;stroke-width:.079375;stroke:#000"/>
 <rect id="aud-d318" x="486.49" y="247.94" width="18.349" height="10.627" style="fill:none;stroke-width:.079375;stroke:#000"/>
 <rect id="aud-d316" x="505.12" y="247.94" width="12.141" height="10.627" style="fill:none;stroke-width:.079375;stroke:#000"/>
 <rect id="aud-d314" x="518.37" y="247.94" width="12.141" height="10.627" style="fill:none;stroke-width:.079375;stroke:#000"/>
 <rect id="aud-d312" x="530.78" y="247.94" width="18.349" height="10.627" style="fill:none;stroke-width:.079375;stroke:#000"/>
 <rect id="aud-d310a" x="550.34" y="247.94" width="10.928" height="10.627" style="fill:none;stroke-width:.079375;stroke:#000"/>
 <rect id="aud-d308" x="576.87" y="247.94" width="18.349" height="10.627" style="fill:none;stroke-width:.079375;stroke:#000"/>
 <rect id="aud-d304" x="608.84" y="247.94" width="18.349" height="10.627" style="fill:none;stroke-width:.079375;stroke:#000"/>
 <rect id="aud-d313b" x="530.79" y="230.37" width="12.141" height="10.627" style="fill:none;stroke-width:.079375;stroke:#000"/>
 <rect id="aud-d307b" x="564.46" y="230.37" width="18.349" height="10.627" style="fill:none;stroke-width:.079375;stroke:#000"/>
 <rect id="aud-d301" x="602.63" y="230.37" width="12.141" height="10.627" style="fill:none;stroke-width:.079375;stroke:#000"/>
 <rect id="aud-d301a" x="615.05" y="230.37" width="12.141" height="10.627" style="fill:none;stroke-width:.079375;stroke:#000"/>
 <rect id="aud-j300-4" x="630.31" y="249.72" width="6.6965" height="13.714" style="fill:none;stroke-width:.079375;stroke:#000"/>
 <rect id="aud-317" x="220.77" y="190.2" width="6.1282" height="10.627" style="fill:none;opacity:.99;stroke-width:.030427;stroke:#000"/>
 <rect id="aud-319" x="207.74" y="190.2" width="6.1282" height="10.627" style="fill:none;opacity:.99;stroke-width:.030427;stroke:#000"/>
 <rect id="aud-317a" x="214.25" y="190.2" width="6.1282" height="10.627" style="fill:none;opacity:.99;stroke-width:.030427;stroke:#000"/>
 <rect x="272.92" y="190.2" width="11.073" height="25.682" style="fill:none;opacity:.99;stroke-width:.04405;stroke:#000"/>
 <rect id="aud-a311" x="243.32" y="190.2" width="6.1282" height="10.627" style="fill:none;opacity:.99;stroke-width:.030427;stroke:#000"/>
 <rect id="aud-a315" x="227.64" y="190.2" width="6.1282" height="10.627" style="fill:none;opacity:.99;stroke-width:.030427;stroke:#000"/>
 <rect id="aud-a313" x="235.48" y="190.2" width="6.1282" height="10.627" style="fill:none;opacity:.99;stroke-width:.030427;stroke:#000"/>
 <rect x="377.65" y="190.2" width="11.073" height="25.682" style="fill:none;opacity:.99;stroke-width:.04405;stroke:#000"/>
 <rect id="aud-a305" x="425.16" y="190.1" width="6.1282" height="10.627" style="fill:none;opacity:.99;stroke-width:.030427;stroke:#000"/>
 <rect id="aud-a309" x="412.13" y="190.1" width="6.1282" height="10.627" style="fill:none;opacity:.99;stroke-width:.030427;stroke:#000"/>
 <rect id="aud-a307" x="418.65" y="190.1" width="6.1282" height="10.627" style="fill:none;opacity:.99;stroke-width:.030427;stroke:#000"/>
 <rect id="aud-a303" x="432.04" y="190.1" width="21.809" height="10.627" style="fill:none;opacity:.99;stroke-width:.030427;stroke:#000"/>
</svg>
