<svg>
<g id="layer5" ref="layer5">
    <g fill="none" stroke="#000">
        <path id="korpK" ref="korpK" transform="scale(.75)"
              d="m263.96 0.57422v10.539h-213.86v-6.5859h-49.527v61.328h49.527v-7.9043h213.86v10.484h0.23828v108.25h-213.64v-6.5859h-49.639v60.639h49.639v-7.9024h213.64v118.02h-214.49v-6.5859h-48.787v59.326h48.787v-6.5859h214.49v6.5859h42.254v-92.83h97.734v22.756h176.41v-22.756h98.416v92.83h42.439v-6.6348h213.54v6.6348h49.557v-59.771h-49.557v6.9219h-213.54v-117.91h213.29v7.9023h49.801v-60.643h-49.801v6.5859h-213.29v-108.27-10.809h213.91v8.248h49.191v-61.33h-49.191v6.9297h-213.91v-10.881h-61.223v67.842h18.783v203.34h-372.56v-203.32h18.783v-67.861h-61.275z"
              stroke-width=".49829"/>
        <g stroke-width=".15">
            <rect id="k124" ref="k124" x="199.77" y="53.085" width="9.286" height="6.608"/>
            <rect id="k127" ref="k127" x="216.4" y="53.085" width="11.854" height="12.233"/>
            <rect id="k122" ref="k122" x="199.77" y="60.009" width="9.286" height="20.48"/>
            <rect id="k125" ref="k125" x="216.4" y="65.634" width="11.854" height="7.014"/>
            <rect id="k123" ref="k123" x="216.4" y="72.964" width="11.854" height="7.525"/>
            <rect id="k120" ref="k120" x="199.77" y="81.833" width="9.286" height="12.515"/>
            <rect id="k121" ref="k121" x="216.4" y="81.984" width="11.854" height="5.561"/>
            <rect id="k119" ref="k119" x="216.4" y="87.861" width="11.854" height="6.817"/>
            <rect id="k117" ref="k117" x="216.4" y="94.994" width="11.854" height="13.929"/>
            <rect id="k118a" ref="k118a" x="199.77" y="95.178" width="9.286" height="6.717"/>
            <rect id="k118" ref="k118" x="199.77" y="102.73" width="9.286" height="13.328"/>
            <rect id="k115" ref="k115" x="216.4" y="109.24" width="11.854" height="6.814"/>
            <rect id="k116" ref="k116" x="199.77" y="117.4" width="9.286" height="6.035"/>
            <rect id="k113" ref="k113" x="216.4" y="117.4" width="11.854" height="12.845"/>
            <rect id="k114" ref="k114" x="199.77" y="123.75" width="9.286" height="13.633"/>
            <rect id="k111" ref="k111" x="216.4" y="130.56" width="11.854" height="6.204"/>
            <rect id="k112" ref="k112" x="199.77" y="137.38" width="9.286" height="7.231"/>
            <rect x="216.4" y="137.08" width="11.854" height="7.528"/>
            <rect id="k109b" ref="k109b" x="215.89" y="145.44" width="12.368" height="9.145"/>
            <rect id="k109a" ref="k109a" x="216.4" y="155.92" width="11.854" height="15.549"/>
            <rect id="k110" ref="k110" x="199.77" y="175.03" width="8.891" height="14.926"/>
            <rect x="216.4" y="175.03" width="11.854" height="7.458"/>
            <rect id="k109" ref="k109" x="216.4" y="182.8" width="11.854" height="13.04"/>
            <rect id="k107" ref="k107" x="216.4" y="196.16" width="11.854" height="6.274"/>
            <rect id="k110a" ref="k110a" x="199.77" y="190.27" width="8.891" height="12.162"/>
            <rect id="k108a" ref="k108a" x="199.77" y="203.78" width="8.891" height="13.079"/>
            <rect id="k108" ref="k108" x="199.77" y="218.2" width="8.891" height="6.167"/>
            <rect x="216.4" y="218.2" width="11.854" height="5.811"/>
            <rect id="k105" ref="k105" x="216.4" y="224.01" width="11.854" height="14.288"/>
            <rect id="k103" ref="k103" x="216.4" y="238.62" width="11.854" height="6.297"/>
            <rect id="k106" ref="k106" x="199.77" y="224.68" width="8.891" height="20.229"/>
            <rect id="k101" ref="k101" x="216.4" y="246.26" width="11.854" height="19.994"/>
            <rect id="k102" ref="k102" x="199.77" y="259.69" width="8.891" height="6.564"/>
            <rect id="k104" ref="k104" x="199.77" y="246.26" width="8.891" height="13.114"/>
            <rect x="209.49" y="277.08" width="18.77" height="16.538"/>
            <rect id="k101a" ref="k101a" x="216.09" y="267.59" width="12.167" height="8.14"/>
            <rect x="228.26" y="205.74" width="1.7111" height="5.231"/>
        </g>
    </g>
    <path transform="scale(.75)"
          d="m37.693 6.9766v32.811h9.957v-2.252h4.6895v1.0527h45.76v-1.0527h1.7891v1.0527h45.76v-1.0527h4.7422v1.0527h16.254v-1.0527h1.791v1.0527h45.627v-1.0527h1.791v1.0527h45.758v-1.0527h4.6894v3.3301h14.121v1.7988h-14.061v23.369h14.061v2.4023 2.3457h-0.57813v39.387 44.57h0.47266v1.791h-0.47266v37.393h-13.543v2.3887h-2.3965-2.2949v-0.60938h-45.984v0.60938h-1.793v-0.60938h-45.67v0.60938h-1.793v-0.60938h-16.084v0.60938h-4.748v-0.60938h-46.01v1.3945h-1.793v-1.3945h-45.592v1.3945h-4.7461v-24.893h-9.9141v34.51h9.9141v-3.2168h4.7461v0.31836h45.592v-0.31836h1.793v0.31836h46.01v-0.31836h4.748v0.31836h16.084v-0.31836h1.793v0.31836h45.67v-0.31836h1.793v0.31836h45.984v-0.31836h2.2949 2.3965v2.6113h14.1v1.791h-14.1v20.732h13.477v4.7422h-0.46289v36.537h0.46289v1.793h-0.46289v17.439h0.46289v1.791h-0.46289v35.615h0.46289v1.793h-0.46289v26.658h0.46289v1.793h-13.422v3.8359h-2.1602v-0.0293h-2.4609v-0.73438h-45.775v0.73438h-1.791v-0.73438h-45.643v0.73438h-1.793v-0.60938h-16.471v0.60938h-4.5312v-0.73438h-45.82v0.73438h-1.791v-0.73438h-45.664v0.73438h-4.8086v-24.266h-9.9082v21.961h-12.412v12.584h12.412 9.9082v-3.7774h4.8086v0.88867h45.664v-0.91015h1.791v0.91015h45.82v-0.91015h4.5312v0.91015h16.471v-0.91015h1.793v0.91015h45.643v-0.91015h1.791v0.91015h45.775v-0.66015h2.4609v-0.0293h2.1602v0.3457h-0.05469v0.40235h1.0293v1.1055h-1.0293v0.28125 22.051h11.908v-22.051h-0.71093v-0.28125-1.1055-0.40235h10.199v-10.854h-0.93555v-1.793h0.66797v-26.658h-0.66797v-1.793h0.66797v-35.615h-0.66797v-1.791h17.58v-17.439h-17.58v-1.793h0.66797v-36.537h-0.8086v-4.7422h0.8086v-20.732h-1.1289v-1.791h1.1289v-12.186-37.393h-1.002v-1.791h1.002v-44.57-39.387h-0.54883v-2.3457-2.3965h0.54883v-25.174-12.367h-21.129v2.5039h-4.6894v-0.52734h-45.758v0.47461h-1.791v-0.47461h-45.627v0.47461h-1.791v-0.47461h-16.254v0.63281h-4.7422v-0.63281h-45.76v0.58008h-1.7891v-0.58008h-45.76v0.58008h-4.6895v-24.078h-9.957z"
          fill="#fea" stroke="#f00" stroke-width=".2"/>
</g>
<g id="layer4" ref="layer4" fill="none" stroke="#000">
    <rect id="G01" ref="G01" x="2.2688" y="5.2323" width="25.171" height="42.321" stroke-width=".15"/>
    <rect id="g101" ref="g101" x="28.27" y="30.156" width="7.4684" height="17.397" stroke-width=".15"/>
    <g stroke-width=".225">
        <rect id="g102" ref="g102" x="39.255" y="10.172" width="20.983" height="11.854"/>
        <rect id="104" ref="104" x="60.554" y="10.172" width="13.02" height="11.854"/>
        <rect id="g106" ref="g106" x="74.917" y="10.172" width="13.001" height="11.854"/>
        <rect id="g108" ref="g108" x="88.234" y="10.172" width="21.002" height="11.854"/>
        <rect id="g110" ref="g110" x="112.79" y="10.172" width="12.19" height="12.368"/>
        <rect id="g110a" ref="g110a" x="126.33" y="10.172" width="11.471" height="11.854"/>
    </g>
    <path id="g110b" ref="g110b" transform="scale(.75)"
          d="m184.15 13.562v15.807h9.0625v-11.303h0.42188v11.303h20.426v-15.807h-20.426v2.1074h-0.42188v-2.1074h-9.0625z"
          stroke-width=".3"/>
    <g stroke-width=".225">
        <rect id="g112" ref="g112" x="161.89" y="10.172" width="5.889" height="11.854"/>
        <rect id="g112a" ref="g112a" x="168.1" y="10.172" width="7.221" height="11.854"/>
        <rect id="g114" ref="g114" x="175.63" y="10.172" width="20.577" height="11.854"/>
        <rect x="199.77" y="2.2692" width="15.806" height="18.789"/>
        <rect x="216.92" y="2.2692" width="25.172" height="47.26"/>
    </g>
    <g stroke-width=".15">
        <rect x="39.255" y="29.771" width="7.4684" height="11.855"/>
        <rect id="g105" ref="g105" x="47.039" y="29.771" width="13.198" height="11.855"/>
        <rect id="g107" ref="g107" x="60.554" y="29.771" width="6.7967" height="11.855"/>
        <rect x="67.666" y="35.95" width="5.9077" height="5.676"/>
        <rect id="g107a" ref="g107a" x="67.666" y="29.771" width="5.9077" height="5.863"/>
        <rect id="g109a" ref="g109a" x="74.917" y="29.771" width="7.913" height="11.855"/>
        <rect x="83.146" y="34.305" width="6.204" height="7.321"/>
    </g>
    <path id="g109" ref="g109" transform="scale(.75)"
          d="m110.86 39.695v5.623h8.6934v10.184h16.9v-10.184-5.623h-25.594z" stroke-width=".2"/>
    <g stroke-width=".15">
        <rect id="g111" ref="g111" x="102.66" y="29.771" width="6.579" height="11.855"/>
        <rect id="g113" ref="g113" x="112.79" y="29.258" width="6.081" height="12.368"/>
        <rect id="g115a" ref="g115a" x="118.87" y="29.258" width="6.109" height="12.368"/>
        <rect id="g115" ref="g115" x="126.33" y="29.771" width="8.112" height="11.855"/>
        <rect id="g117" ref="g117" x="134.76" y="29.771" width="19.047" height="11.855"/>
        <rect id="g119" ref="g119" x="154.12" y="29.771" width="6.429" height="11.855"/>
        <rect id="g121" ref="g121" x="161.89" y="29.771" width="12.833" height="11.855"/>
        <rect x="175.04" y="29.771" width="3.833" height="2.38"/>
        <rect x="179.19" y="29.771" width="6.204" height="2.38"/>
        <rect x="185.71" y="29.771" width="6.204" height="2.38"/>
    </g>
    <path id="gwc" ref="gwc" transform="scale(.75)"
          d="m256.3 39.695v3.5938h-22.92v12.213h22.92 5.3066v-15.807h-5.3066z" stroke-width=".2"/>
</g>
<g id="layer9" ref="layer9">
    <g fill="none" stroke="#000">
        <g stroke-width=".15">
            <rect id="i101" ref="i101" x="510.84" y="53.085" width="11.854" height="13.833"/>
            <rect id="i103" ref="i103" x="510.84" y="67.234" width="11.854" height="6.599"/>
            <rect id="i102" ref="i102" x="530.04" y="53.085" width="9.286" height="6.41"/>
            <rect id="i104" ref="i104" x="530.04" y="59.811" width="9.286" height="7.107"/>
            <rect id="i106" ref="i106" x="530.04" y="67.234" width="9.286" height="13.255"/>
            <rect id="i105" ref="i105" x="510.84" y="74.149" width="11.854" height="6.34"/>
            <rect id="i107" ref="i107" x="510.84" y="81.833" width="11.854" height="13.437"/>
            <rect id="i108" ref="i108" x="530.04" y="81.833" width="9.286" height="6.252"/>
            <rect id="i110" ref="i110" x="530.04" y="88.401" width="9.286" height="7.033"/>
            <rect id="i109" ref="i109" x="510.84" y="95.586" width="11.854" height="6.566"/>
            <rect x="530.04" y="95.751" width="9.286" height="6.144"/>
            <rect id="i111" ref="i111" x="510.84" y="102.47" width="11.854" height="6.929"/>
            <rect id="i112" ref="i112" x="530.04" y="102.73" width="9.286" height="6.672"/>
            <rect id="i114" ref="i114" x="530.04" y="109.71" width="9.286" height="6.34"/>
            <rect id="i113" ref="i113" x="510.84" y="109.71" width="11.854" height="6.34"/>
            <rect id="i115" ref="i115" x="510.84" y="117.4" width="11.854" height="6.43"/>
            <rect id="i116" ref="i116" x="530.03" y="117.39" width="9.2924" height="6.4377"/>
            <rect id="i118" ref="i118" x="530.04" y="124.14" width="9.247" height="13.554"/>
            <rect id="i117" ref="i117" x="510.84" y="124.14" width="11.854" height="13.554"/>
            <rect id="i117a" ref="i117a" x="510.84" y="138.01" width="11.854" height="6.593"/>
            <rect id="i120" ref="i120" x="530.04" y="138.01" width="9.247" height="6.599"/>
            <rect id="i119a" ref="i119a" x="510.84" y="145.44" width="12.487" height="9.046"/>
            <rect id="i119" ref="i119" x="510.84" y="155.92" width="11.854" height="15.549"/>
            <rect id="i121a" ref="i121a" x="510.84" y="175.03" width="11.854" height="15.282"/>
            <rect id="i122" ref="i122" x="530.43" y="175.03" width="8.891" height="27.404"/>
        </g>
        <path id="i121" ref="i121" transform="scale(.75)"
              d="m681.11 254.17v7.7441h9.4844v0.42188h-9.4844v7.5742h15.805v-7.5742h-2.8691v-0.42188h2.8691v-7.7441h-15.805z"
              stroke-width=".2"/>
        <g stroke-width=".15">
            <rect id="i124b" ref="i124b" x="529.92" y="203.78" width="9.404" height="13.079"/>
            <rect id="i124" ref="i124" x="530.43" y="218.2" width="8.891" height="5.969"/>
            <rect id="i126" ref="i126" x="530.43" y="224.49" width="8.891" height="7.031"/>
            <rect x="530.43" y="231.83" width="8.891" height="7.059"/>
            <rect id="i130" ref="i130" x="530.43" y="239.21" width="8.891" height="5.704"/>
            <rect id="i132" ref="i132" x="530.43" y="246.26" width="8.891" height="13.114"/>
            <rect id="i134" ref="i134" x="530.43" y="259.69" width="8.891" height="6.564"/>
            <rect id="i131a" ref="i131a" x="510.84" y="267.59" width="12.167" height="8.14"/>
            <rect id="i129" ref="i129" x="510.84" y="259.84" width="11.854" height="6.406"/>
            <rect id="i127" ref="i127" x="510.84" y="252.84" width="11.854" height="6.693"/>
            <rect id="i125" ref="i125" x="510.84" y="246.26" width="11.854" height="6.263"/>
            <rect id="i123a" ref="i123a" x="510.84" y="239.56" width="11.854" height="5.349"/>
            <rect id="i123" ref="i123" x="510.84" y="224.33" width="11.854" height="14.92"/>
            <rect x="510.84" y="218.2" width="11.854" height="5.811"/>
            <rect x="510.84" y="277.08" width="8.555" height="16.538"/>
            <rect x="519.71" y="281.55" width="9.899" height="12.067"/>
            <rect id="i131" ref="i131" x="519.71" y="277.08" width="9.899" height="4.155"/>
            <rect x="530.43" y="277.08" width="8.891" height="16.538"/>
            <rect x="530.99" y="275.73" width="7.587" height="1.343"/>
        </g>
    </g>
    <path transform="scale(.75)"
          d="m937.86 6.9766v20.27h-0.05273v3.8086h-4.6895v-0.58008h-45.76v0.58008h-1.7891v-0.58008h-45.76v0.63281h-4.7422v-17.545h-16.254v17.387h-1.791v-0.47461h-45.627v0.47461h-1.791v-0.47461h-45.758v0.52734h-4.7441-0.05078v-3.8203h-21.076v1.2246h-1.791v-0.43359h-15.451v24.605h11.529 3.9219 0.55664v-12.752h1.2344v-0.13867h0.55859v1.791 29.303h-0.50586v36.537h0.47461v1.793s-0.39359 0.00195-0.4707 0.00195v45.553h0.99804v0.07226 1.791h-1.002v37.393h0.21094v12.186 1.791h-0.21094v20.732h0.80859v4.7422h-0.80859v36.537h0.66797v1.793h-17.58v17.439h17.58v1.791h-0.66797v35.615h0.66797v1.793h-0.66797v26.658h0.66797v1.793h-0.93555v10.854h21.342v-0.3164h4.7441v0.6582h45.916v-0.9082h1.6328v0.9082h45.627v-0.9082h1.791v0.9082h16.254v-0.9082h4.7422v0.9082h45.805v-0.9082h1.791v0.9082h45.646v-0.89844h4.8086v3.4414h9.9043v-13.33h-1.4746v-1.1074h1.5v-19.729h-9.9297v19.729h0.52735v1.1074h-0.52735v3.4082h-4.8086v-0.73633h-45.646v0.73633h-1.791v-0.73633h-45.805v0.73633h-4.7422v-0.60938h-16.254v0.60938h-1.791v-0.73633h-45.627v0.17773h-1.6328v-0.17773h-45.916v0.73633h-4.7441v-3.8164h-13.422v-1.793h0.46289v-26.658h-0.46289v-1.793h0.46289v-35.615h-0.46289v-1.791h0.46289v-17.439h-0.46289v-1.793h0.46289v-36.537h-0.46289v-4.7422h13.371v-20.732h-13.572v-1.791h13.572v-2.6113h4.7949v0.31836h45.941v-0.31836h1.793v0.31836h45.627v-0.31836h1.7891v0.31836h16.07v-0.31836h4.7422v0.31836h45.969v-0.31836h1.791v0.50782h45.549v-0.50782h4.6895v2.9531h20.377v-12.17h-10.42v-21.615h-9.957v21.615 2.8164h-4.6895v-1.3945h-45.549v0.73828h-1.791v-0.73828h-45.969v0.60938h-4.7422v-17.521h-16.07v17.521h-1.7891v-0.60938h-45.627v0.60938h-1.793v-0.60938h-45.941v0.60938h-4.7949v-2.3887h-13.438v-37.393h-0.47266v-1.791-0.07226h0.47071v-45.553l-0.52344-0.00195v-1.793h0.52539v-36.537h-0.57813v-4.7422h14.016v-24.561h-13.438v-1.791h13.438v-2.1523h0.05078 4.7441v1.0527h45.758v-1.0527h1.791v1.0527h45.627v-1.0527h1.791v1.0527h16.254v-1.0527h4.7422v1.0527h45.76v-1.0527h1.7891v1.0527h45.76v-1.0527h4.6895v3.7793h8.9297 1.0273v-12.961h-1.0273v-1.1074h1.0273v-20.27h-9.9043z"
          fill="#fea" stroke="#f00" stroke-width=".2"/>
</g>
<g id="layer10" ref="layer10" fill="none" stroke="#000" stroke-width=".15">
    <rect id="dwc" ref="dwc" x="542.88" y="257.22" width="20.686" height="11.855"/>
    <rect id="d119" ref="d119" x="563.88" y="257.22" width="13.435" height="11.855"/>
    <rect id="d117" ref="d117" x="578.66" y="257.22" width="6.599" height="11.855"/>
    <rect id="d113a" ref="d113a" x="606.58" y="257.22" width="6.184" height="11.855"/>
    <rect id="d115" ref="d115" x="585.58" y="257.22" width="20.558" height="11.855"/>
    <rect id="d113" ref="d113" x="614.11" y="257.22" width="6.303" height="11.949"/>
    <rect id="d111" ref="d111" x="620.73" y="257.22" width="5.571" height="11.949"/>
    <rect id="d109" ref="d109" x="629.86" y="257.22" width="20.419" height="11.855"/>
    <rect id="d109a" ref="d109a" x="650.59" y="257.22" width="6.822" height="11.855"/>
    <rect id="d107" ref="d107" x="657.73" y="257.22" width="6.48" height="11.855"/>
    <rect id="d105a" ref="d105a" x="665.55" y="257.22" width="13.371" height="11.855"/>
    <rect id="d105b" ref="d105b" x="679.24" y="257.22" width="14.127" height="11.855"/>
    <rect id="d103" ref="d103" x="693.68" y="257.22" width="6.105" height="11.855"/>
    <rect id="d101" ref="d101" x="712.17" y="252.28" width="24.657" height="15.134"/>
    <rect id="d100" ref="d100" x="712.17" y="267.73" width="24.657" height="10.166"/>
    <rect x="712.17" y="279.24" width="24.657" height="14.374"/>
    <rect id="d102" ref="d102" x="703.39" y="279.24" width="8.456" height="14.374"/>
    <rect id="d120" ref="d120" x="542.88" y="276.82" width="28.293" height="11.854"/>
    <rect id="d118" ref="d118" x="571.49" y="276.82" width="5.71" height="11.854"/>
    <rect id="d116" ref="d116" x="578.54" y="276.82" width="27.72" height="11.854"/>
    <rect id="d114a" ref="d114a" x="606.58" y="276.82" width="6.184" height="11.854"/>
    <rect id="d114" ref="d114" x="614.11" y="276.82" width="12.19" height="11.854"/>
    <rect id="d112a" ref="d112a" x="629.86" y="276.82" width="12.674" height="11.854"/>
    <rect id="d112" ref="d112" x="642.85" y="276.82" width="14.764" height="11.854"/>
    <rect id="d110" ref="d110" x="657.93" y="276.82" width="6.283" height="11.854"/>
    <rect id="d108" ref="d108" x="665.55" y="276.82" width="20.879" height="11.854"/>
    <rect x="686.75" y="276.82" width="6.223" height="11.854"/>
    <rect id="d104" ref="d104" x="693.29" y="276.82" width="6.549" height="11.854"/>
</g>
<g id="layer11" ref="layer11" fill="none" stroke="#000">
    <path id="e117" ref="e117" transform="scale(.75)"
          d="m723.84 178.79v15.807h20.027v-2.5527h0.42188v2.5527h6.6973v-15.807h-6.6973v8.957h-0.42188v-8.957h-20.027z"
          stroke-width=".2"/>
    <g stroke-width=".15">
        <rect id="e115" ref="e115" x="563.56" y="134.09" width="13.781" height="11.854"/>
        <rect id="e113" ref="e113" x="578.68" y="134.09" width="20.547" height="11.854"/>
        <rect id="e111" ref="e111" x="599.55" y="134.09" width="6.599" height="11.854"/>
        <rect x="606.46" y="134.09" width="6.441" height="7.172"/>
        <rect x="611.16" y="141.58" width="1.739" height="4.366"/>
        <rect x="606.46" y="141.58" width="4.386" height="4.366"/>
        <rect id="e109" ref="e109" x="629.86" y="134.09" width="6.52" height="11.854"/>
        <rect id="e107" ref="e107" x="636.69" y="134.09" width="20.745" height="11.854"/>
        <rect id="e107a" ref="e107a" x="657.75" y="134.09" width="6.579" height="11.854"/>
        <rect id="e105" ref="e105" x="665.68" y="134.09" width="19.975" height="11.854"/>
        <rect id="e103" ref="e103" x="685.97" y="134.09" width="13.87" height="11.854"/>
        <rect id="e101" ref="e101" x="712.17" y="129.15" width="24.657" height="15.727"/>
        <rect id="e102a" ref="e102a" x="718.73" y="145.71" width="18.088" height="9.128"/>
        <rect id="e104a" ref="e104a" x="703.35" y="155.67" width="8.219" height="15.806"/>
        <rect id="e102" ref="e102" x="711.89" y="155.67" width="24.934" height="15.806"/>
        <rect id="e104" ref="e104" x="693.34" y="153.83" width="6.5" height="11.714"/>
        <rect id="e106" ref="e106" x="679.33" y="153.83" width="13.692" height="11.714"/>
        <rect id="e108" ref="e108" x="671.9" y="153.83" width="7.113" height="11.714"/>
        <rect id="e110" ref="e110" x="665.68" y="153.83" width="5.908" height="11.714"/>
        <rect id="e112" ref="e112" x="658.15" y="153.69" width="6.184" height="11.855"/>
        <rect id="e114" ref="e114" x="644" y="153.69" width="13.831" height="11.855"/>
        <rect id="e116" ref="e116" x="629.86" y="153.69" width="13.83" height="11.855"/>
        <rect id="e118" ref="e118" x="614.25" y="153.18" width="12.052" height="12.369"/>
        <rect id="e120" ref="e120" x="599.55" y="153.69" width="13.356" height="11.855"/>
        <rect id="e122" ref="e122" x="578.68" y="153.69" width="20.547" height="11.855"/>
        <rect id="e124" ref="e124" x="570.86" y="153.69" width="6.481" height="11.855"/>
        <rect id="e126" ref="e126" x="563.97" y="153.69" width="6.574" height="11.855"/>
        <rect x="542.88" y="153.69" width="3.956" height="2.334"/>
        <rect x="547.15" y="153.69" width="5.809" height="2.334"/>
    </g>
    <path id="ewc" ref="ewc" transform="scale(.75)"
          d="m737.71 204.92v3.1113h8.3262v0.42383h-22.188v12.271h27.008v-12.271-0.42383-3.1113h-13.146z"
          stroke-width=".2"/>
</g>
<g id="layer12" ref="layer12" fill="none" stroke="#000">
    <g stroke-width=".15">
        <rect x="497" y="2.2692" width="25.132" height="18.137"/>
        <rect x="523.48" y="2.2692" width="6.999" height="17.801"/>
        <rect x="530.8" y="2.2692" width="8.491" height="8.337"/>
        <rect x="530.8" y="10.923" width="8.53" height="9.147"/>
        <rect x="497" y="21.078" width="13.159" height="9.335"/>
    </g>
    <path transform="scale(.75)" d="m662.67 41.314v0.72656 10.537h17.295v-10.537h-0.40821v-0.72656h-16.887z"
          stroke-width=".2"/>
    <rect x="542.88" y="29.771" width="3.981" height="2.261" stroke-width=".15"/>
    <rect x="547.18" y="29.771" width="6.204" height="2.261" stroke-width=".15"/>
    <path id="jwc" ref="jwc" transform="scale(.75)"
          d="m738.27 39.695v3.0137h7.166v0.42188h-21.588v12.371h27.752v-12.371-0.42188-3.0137h-6.1641-7.166z"
          stroke-width=".2"/>
    <g stroke-width=".15">
        <rect id="j120" ref="j120" x="564.01" y="29.771" width="6.758" height="11.855"/>
        <rect id="j118" ref="j118" x="571.09" y="29.771" width="6.115" height="11.855"/>
        <rect id="j116" ref="j116" x="578.54" y="29.771" width="14.779" height="11.855"/>
        <rect id="j114" ref="j114" x="593.64" y="29.771" width="19.125" height="11.855"/>
        <rect id="j112" ref="j112" x="614.11" y="29.247" width="5.6066" height="12.379"/>
    </g>
    <rect id="j110" ref="j110" x="620.01" y="29.242" width="6.2872" height="12.384" stroke-width=".14985"/>
    <g stroke-width=".15">
        <rect id="j108" ref="j108" x="629.86" y="29.771" width="12.704" height="11.855"/>
        <rect id="j106" ref="j106" x="642.88" y="29.771" width="21.299" height="11.855"/>
        <rect id="j104b" ref="j104b" x="665.52" y="29.771" width="13.139" height="11.855"/>
        <rect id="j104a" ref="j104a" x="678.97" y="29.771" width="7.725" height="11.855"/>
        <rect id="j104" ref="j104" x="687.01" y="29.771" width="12.822" height="11.855"/>
        <rect id="j101g" ref="j101g" x="703.35" y="31.302" width="7.468" height="16.251"/>
    </g>
    <path id="j101v" ref="j101v" transform="scale(.75)"
          d="m948.87 41.736v21.668h6.3477 6.5859v-17.98h-6.5859v-3.6875h-6.3477z" stroke-width=".2"/>
    <g stroke-width=".15">
        <rect x="721.67" y="34.068" width="6.698" height="13.485"/>
        <rect id="j101d" ref="j101d" x="728.68" y="31.302" width="8.14" height="16.251"/>
        <rect x="716.73" y="31.302" width="11.637" height="2.45"/>
        <rect x="711.65" y="21.6" width="7.725" height="9.386"/>
        <rect id="j101b" ref="j101b" x="719.69" y="21.6" width="17.129" height="9.386"/>
    </g>
    <path id="j101e" ref="j101e" transform="scale(.75)"
          d="m948.87 6.9766v16.926 4.4766h6.3477v-4.4766h3.9512v-16.926h-10.299z" stroke-width=".2"/>
    <g stroke-width=".15">
        <rect x="716.73" y="18.242" width="2.647" height="3.042"/>
        <rect id="j101a" ref="j101a" x="719.69" y="5.2323" width="17.129" height="16.052"/>
        <rect id="j103" ref="j103" x="672.2" y="10.172" width="27.641" height="11.854"/>
        <rect id="j105" ref="j105" x="665.52" y="10.172" width="6.362" height="11.854"/>
        <rect id="j107" ref="j107" x="657.3" y="10.172" width="6.876" height="11.854"/>
        <rect id="j109" ref="j109" x="629.86" y="10.172" width="27.127" height="11.854"/>
        <rect id="j111" ref="j111" x="606.23" y="10.172" width="6.531" height="11.854"/>
        <rect id="j113" ref="j113" x="585.29" y="10.172" width="20.627" height="11.854"/>
        <rect id="j115" ref="j115" x="578.54" y="10.172" width="6.429" height="11.854"/>
        <rect id="j117" ref="j117" x="563.78" y="10.172" width="13.426" height="11.854"/>
        <rect id="j119" ref="j119" x="542.88" y="10.172" width="20.577" height="11.854"/>
        <rect x="497" y="40.776" width="25.55" height="8.713"/>
    </g>
</g>
<g id="layer6" ref="layer6" fill="none" stroke="#000">
    <rect x="2.2688" y="129.15" width="7.6264" height="15.727" stroke-width=".15"/>
    <rect x="10.211" y="129.15" width="16.715" height="15.727" stroke-width=".15"/>
    <path id="v100" ref="v100" transform="scale(.75)"
          d="m3.0254 194.28v11.117h22.719v1.0781h-5.125v6.5879h16.441v-6.3496h0.21094v-0.20898-0.0293-1.0781-11.117h-34.246z"
          stroke-width=".2"/>
    <rect x="2.2688" y="154.88" width="8.1382" height="16.596" stroke-width=".15"/>
    <path transform="scale(.75)" d="m14.297 206.5v22.127h5.9023 5.334v-15.148h-5.334v-6.9785h-5.9023z"
          stroke-width=".2"/>
    <rect x="19.466" y="160.11" width="8.3297" height="11.361" stroke-width=".15"/>
    <rect x="28.112" y="155.86" width="7.5869" height="15.609" stroke-width=".15"/>
    <path id="v105" ref="v105" transform="scale(.75)"
          d="m52.34 204.92v15.807h17.967v-11.42h0.42188v11.42h9.5879v-15.807h-9.5879v2.082h-0.42188v-2.082h-17.967z"
          stroke-width=".2"/>
    <path id="v107" ref="v107" transform="scale(.75)"
          d="m80.738 204.92v15.807h10.379v-11.42h0.42187v11.42h6.3496v-15.807h-6.3496v2.082h-0.42187v-2.082h-10.379z"
          stroke-width=".2"/>
    <rect id="v109" ref="v109" x="74.759" y="153.69" width="6.421" height="11.855" stroke-width=".15"/>
    <rect id="v113" ref="v113" x="81.497" y="153.69" width="27.739" height="11.855" stroke-width=".15"/>
    <path id="v115" ref="v115" transform="scale(.75)"
          d="m150.39 204.24v16.492h7.7969v-3.9356h0.42188v3.9356h7.8516v-16.492h-7.8516v10.082h-0.42188v-10.082h-7.7969z"
          stroke-width=".2"/>
    <g stroke-width=".15">
        <rect id="v119" ref="v119" x="126.19" y="153.69" width="20.904" height="11.855"/>
        <rect x="147.41" y="153.69" width="13.001" height="11.855"/>
        <rect id="v121" ref="v121" x="161.75" y="153.69" width="5.888" height="11.855"/>
        <rect id="v123" ref="v123" x="167.96" y="153.69" width="7.187" height="11.855"/>
    </g>
    <path id="vwc" ref="vwc" transform="scale(.75)"
          d="m256.34 204.92v3.5352h-22.393v12.271h22.393 5.2734v-15.807h-5.2734z" stroke-width=".2"/>
    <g stroke-width=".15">
        <rect x="175.46" y="153.69" width="3.951" height="2.334"/>
        <rect x="179.73" y="153.69" width="6.086" height="2.334"/>
        <rect x="186.13" y="153.69" width="5.809" height="2.334"/>
        <rect id="v112" ref="v112" x="161.75" y="134.09" width="34.457" height="11.854"/>
        <rect id="v110" ref="v110" x="138.72" y="134.09" width="21.694" height="11.854"/>
        <rect x="126.19" y="134.09" width="12.211" height="11.854"/>
        <rect id="v110a" ref="v110a" x="112.79" y="134.09" width="12.052" height="12.368"/>
        <rect id="v108a" ref="v108a" x="103.39" y="134.09" width="5.848" height="11.854"/>
        <rect id="v108" ref="v108" x="74.759" y="134.09" width="28.313" height="11.854"/>
        <rect id="v106" ref="v106" x="53.441" y="134.09" width="19.975" height="11.854"/>
    </g>
    <path id="v104" ref="v104" transform="scale(.75)"
          d="m52.34 178.79v15.807h8.4688v-2.6094h0.42188v2.6094h9.6035v-15.807h-9.6035v10.801h-0.42188v-10.801h-8.4688z"
          stroke-width=".2"/>
</g>
<g id="layer7" ref="layer7" fill="none" stroke="#000" stroke-width=".14826">
    <rect id="b102" ref="b102" x="2.2994" y="252.26" width="24.666" height="15.64"/>
    <rect id="b100" ref="b100" x="2.2994" y="268.73" width="16.385" height="9.4371"/>
    <rect id="b101" ref="b101" x="2.2994" y="279" width="25.18" height="14.651"/>
    <rect id="b103" ref="b103" x="27.794" y="279" width="7.9454" height="14.651"/>
    <rect id="b104" ref="b104" x="39.349" y="257.2" width="5.9095" height="11.871"/>
    <rect x="45.572" y="257.2" width="6.8185" height="11.871"/>
    <rect id="b108" ref="b108" x="52.707" y="257.2" width="6.4035" height="11.871"/>
    <rect id="b110" ref="b110" x="59.428" y="257.2" width="14.166" height="11.871"/>
    <rect id="b112" ref="b112" x="74.937" y="257.2" width="12.807" height="11.871"/>
    <rect id="b114" ref="b114" x="88.06" y="257.2" width="13.741" height="11.871"/>
    <rect id="b114a" ref="b114a" x="102.12" y="257.2" width="7.0263" height="11.871"/>
    <rect id="b116" ref="b116" x="112.7" y="257.2" width="12.353" height="11.966"/>
    <rect id="b105" ref="b105" x="39.299" y="276.83" width="5.9587" height="11.871"/>
    <rect id="b107" ref="b107" x="45.572" y="276.83" width="6.8185" height="11.871"/>
    <rect id="b109" ref="b109" x="52.707" y="276.83" width="6.4035" height="11.871"/>
    <rect id="b111" ref="b111" x="59.428" y="276.83" width="6.9966" height="11.871"/>
    <rect id="b113" ref="b113" x="66.743" y="276.83" width="6.8532" height="11.871"/>
    <rect id="b115a" ref="b115a" x="74.937" y="276.83" width="6.483" height="11.871"/>
    <path id="b115" ref="b115" d="m81.736 276.83v11.871h13.149v-9.4662h6.9176v-2.4045h-6.9176z"/>
    <rect x="95.201" y="279.55" width="6.6012" height="9.15"/>
    <rect x="102.12" y="276.83" width="7.1842" height="11.871"/>
    <rect x="112.86" y="276.83" width="12.195" height="11.871"/>
    <rect id="b119" ref="b119" x="126.4" y="276.83" width="6.1861" height="11.871"/>
    <rect id="b121b" ref="b121b" x="132.9" y="276.83" width="5.6132" height="11.871"/>
    <rect id="b121" ref="b121" x="138.83" y="276.83" width="21.8" height="11.871"/>
    <rect id="b123" ref="b123" x="161.97" y="276.83" width="5.7118" height="11.871"/>
    <rect id="b125" ref="b125" x="168" y="276.83" width="6.8185" height="11.871"/>
    <rect id="b127" ref="b127" x="175.14" y="276.83" width="6.8185" height="11.871"/>
    <rect id="b129" ref="b129" x="182.27" y="276.83" width="14.033" height="11.871"/>
    <rect id="b118" ref="b118" x="126.4" y="257.2" width="26.792" height="11.873"/>
    <rect id="b120" ref="b120" x="153.51" y="257.2" width="7.1248" height="11.871"/>
    <rect id="b122" ref="b122" x="161.97" y="257.2" width="5.7022" height="11.871"/>
    <rect id="b124" ref="b124" x="167.99" y="257.2" width="7.313" height="11.871"/>
    <rect x="175.62" y="257.2" width="20.683" height="11.871"/>
</g>
</svg>