<svg width="661.91mm" height="264.58mm" version="1.1" viewBox="0 0 661.91 264.58" xmlns="http://www.w3.org/2000/svg">
 <rect id="aud-k311" x="193.78" y="130.16" width="10.627" height="8.1981" style="fill:none;stroke-width:.19747;stroke:#000" ref="aud-k109b"/>
 <rect x="1.8178" y="4.4756" width="22.565" height="37.939" style="fill:none;stroke-width:.2017;stroke:#000"/>
 <rect id="aud-g101" x="25.127" y="26.819" width="6.6951" height="15.596" style="fill:none;stroke-width:.2017;stroke:#000" ref="aud-g101"/>
 <path d="m178.87 1.8201v16.843h15.373v25.523h22.566v-42.365h-23.77z" style="fill:none;stroke-width:.2017;stroke:#000"/>
 <rect id="aud-i319" x="457.73" y="239.67" width="10.907" height="7.2972" style="fill:none;stroke-width:.2017;stroke:#000" ref="aud-i131a"/>
 <rect x="457.73" y="248.17" width="7.6692" height="14.826" style="fill:none;stroke-width:.2017;stroke:#000"/>
 <rect x="465.68" y="252.18" width="8.874" height="10.818" style="fill:none;stroke-width:.2017;stroke:#000"/>
 <rect id="aud-i131" x="465.68" y="248.17" width="8.874" height="3.7248" style="fill:none;stroke-width:.2017;stroke:#000" ref="aud-i131"/>
 <rect x="475.3" y="248.17" width="7.9704" height="14.826" style="fill:none;stroke-width:.2017;stroke:#000"/>
 <rect x="475.79" y="246.97" width="6.8014" height="1.2039" style="fill:none;stroke-width:.2017;stroke:#000"/>
 <rect x="469.06" y="1.8194" width="6.2743" height="15.958" style="fill:none;stroke-width:.2017;stroke:#000"/>
 <rect x="475.62" y="1.8194" width="7.6118" height="7.4738" style="fill:none;stroke-width:.2017;stroke:#000"/>
 <rect x="475.62" y="9.5773" width="7.6468" height="8.1999" style="fill:none;stroke-width:.2017;stroke:#000"/>
 <rect x="1.8178" y="115.56" width="6.8367" height="14.099" style="fill:none;stroke-width:.2017;stroke:#000"/>
 <rect x="8.9379" y="115.56" width="14.984" height="14.099" style="fill:none;stroke-width:.2017;stroke:#000"/>
 <path id="aud-v100" d="m1.818 130.41v7.4746h15.275v0.72486h-3.4458v4.4293h11.054v-4.2691h0.14182v-8.3602z" style="fill:none;stroke-width:.2017;stroke:#000" ref="aud-v100"/>
 <rect x="1.8178" y="138.63" width="7.2955" height="14.878" style="fill:none;stroke-width:.2017;stroke:#000"/>
 <path d="m9.3963 138.63v14.877h7.5547v-10.185h-3.5863v-4.692z" style="fill:none;stroke-width:.2017;stroke:#000"/>
 <rect x="17.234" y="143.32" width="7.4672" height="10.185" style="fill:none;stroke-width:.2017;stroke:#000"/>
 <rect x="24.985" y="139.51" width="6.8013" height="13.993" style="fill:none;stroke-width:.2017;stroke:#000"/>
 <rect id="aud-b102" x="1.8452" y="225.92" width="22.112" height="14.021" style="fill:none;stroke-width:.2017;stroke:#000" ref="aud-b102"/>
 <rect id="aud-b100" x="1.8452" y="240.69" width="14.688" height="8.46" style="fill:none;stroke-width:.2017;stroke:#000" ref="aud-b100"/>
 <rect id="aud-b101" x="1.8452" y="249.89" width="22.573" height="13.134" style="fill:none;stroke-width:.2017;stroke:#000" ref="aud-b101"/>
 <rect id="aud-b103" x="24.7" y="249.89" width="7.1227" height="13.134" style="fill:none;stroke-width:.2017;stroke:#000" ref="aud-b103"/>
 <rect x="381.94" y="199.41" width="6.7835" height="16.472" style="fill:none;stroke-width:.072583;stroke:#f00"/>
 <rect x="412.48" y="190.1" width="41.707" height="10.485" style="fill:none;stroke-width:.067234;stroke:#000"/>
 <rect x="280.37" y="203.63" width="3.6136" height="7.6844" style="fill:none;stroke-width:.067234;stroke:#000"/>
 <rect x="280.37" y="211.6" width="13.353" height="4.286" style="fill:none;stroke-width:.067234;stroke:#000"/>
 <path d="m272.92 199.41v16.47h7.1752v-14.266h-1.7715v-2.2035z" style="fill:none;stroke-width:.067234;stroke:#000"/>
 <path d="m286.93 200.47-1e-4 3.1602h-2.6566v7.6847h9.4548v-11.561l-5.9802 0.063z" style="fill:none;stroke-width:.067234;stroke:#000"/>
 <path d="m294.01 199.75v16.13h10.344v-16.13h-0.61061z" style="fill:none;stroke-width:.067234;stroke:#000"/>
 <path d="m304.64 199.75v16.13h10.353v-16.13h-9.7424z" style="fill:none;stroke-width:.067418;stroke:#000"/>
 <path d="m25.13 4.4753v22.061h6.6945v-1.5141h3.1529v0.7078h30.766v-0.7078h1.2029v0.7078h30.766v-0.7078h3.1884v0.7078h10.928v-0.7078h1.2042v0.7078h30.677v-0.7078h1.2042v0.7078h30.765v-0.7078h3.1529v2.239h9.4942v1.2094h-9.4535v15.711h9.4535v3.1805h-9.4456v82.233h9.0569v0.57255h-9.1055v1.606h-3.1542v-0.40971h-30.917v0.40971h-1.2055v-0.40971h-30.706v0.40971h-1.2055v-0.40971h-10.814v0.40971h-3.1923v-0.40971h-30.934v0.9376h-1.2055v-0.9376h-30.653v0.9376h-3.191v-16.738h-6.6656v23.204h6.6656v-2.1628h3.191v0.21404h30.653v-0.21404h1.2055v0.21404h30.934v-0.21404h3.1923v0.21404h10.814v-0.21404h1.2055v0.21404h30.706v-0.21404h1.2055v0.21404h30.917v-0.21404h3.1542v1.7557h9.4798v1.2042h-9.4798v13.938h9.0609v3.1884h-9.0241v85.56h-1.4524v-0.0198h-1.6546v-0.49375h-30.775v0.49375h-1.2042v-0.49363h-30.689v0.49375h-1.2055v-0.40971h-11.074v0.40971h-3.0466v-0.49375h-30.807v0.49375h-1.2042v-0.49375h-30.702v0.49375h-3.233v-16.315h-6.6617v14.765h-8.3452v8.4608h15.007v-2.5397h3.233v0.59749h30.702v-0.61193h1.2042v0.61193h30.807v-0.61193h3.0466v0.61193h11.074v-0.61193h1.2055v0.61193h30.689v-0.61193h1.2042v0.61193h30.775v-0.44384h1.6546v-0.0211h1.4524v0.23243h-0.0368v0.27183h0.69204v0.74325h-0.69204v15.013h14.386v-14.826h-6.8574v-1.2029h6.8574v-7.2973h-0.62901v-1.2055h0.44911v-17.923h-0.44911v-1.2055h0.44911v-23.944h-0.44911v-1.2042h11.82v-5.279h1.5298v0.5476h20.96v-0.4583h0.74456v0.4583h41.534v-0.95468h2.1969v2.6211h-2.1969v-0.92053h-18.774v10.626h18.774v-1.6979h14.382v0.28365h-2.4766v2.2035h-0.7091v1.7281h6.2704v-2.9809h0.28364l1.1582-0.8772h27.175v0.67102h-8e-3v2.021h0.092v7.7149h-0.0879v1.9251h0.0102v0.0342h-0.0102v3.9408h31.62v-15.511h0.26527v15.511h34.515v-14.046l-1e-3 -2.3348-3.9316-1e-3v-0.28364h15.23v1.4524h18.22v-10.484h-18.22v1.0243h-2.1969v-2.6211h2.1969v0.85225h61.229v-0.40972h3.5429v5.2422h11.82v1.2042h-0.4491v23.946h0.4491v1.2055h-0.4491v17.923h0.4491v1.2055h-0.62901v7.2973h14.349v-0.21275h3.1897v0.44254h30.871v-0.61061h1.0978v0.61062h30.677v-0.61062h1.2042v0.61062h10.928v-0.61062h3.1884v0.61062h30.798v-0.61062h1.2042v0.61062h30.689v-0.60406h3.233v2.3138h6.6591v-8.9624h-0.99145v-0.74456h1.0085v-13.265h-6.6762v13.264h0.35457v0.74456h-0.35457v2.2915h-3.233v-0.49507h-30.689v0.49507h-1.2055v-0.49507h-30.796v0.49507h-3.1884v-0.40971h-10.93v0.40971h-1.2042v-0.49507h-30.677v0.11949h-1.0978v-0.11949h-30.871v0.49507h-3.1897v-2.5659h-9.0241v-1.2055h9.0254v-81.774h-9.0254v-3.1884h8.99v-13.939h-9.1252v-1.2042h9.1252v-1.7557h3.2238v0.21405h30.888v-0.21405h1.2055v0.21405h30.677v-0.21405h1.2029v0.21405h10.805v-0.21405h3.1884v0.21405h30.907v-0.21405h1.2042v0.34143h30.624v-0.34143h3.1529v1.9855h13.7v-8.1824h-7.0058v-14.533h-6.6945v16.426h-3.1529v-0.9376h-30.624v0.49638h-1.2042v-0.49638h-30.907v0.4097h-3.1884v-11.779h-10.805v11.779h-1.2029v-0.4097h-30.677v0.4097h-1.2055v-0.4097h-30.888v0.4097h-3.2238v-26.747h-14.134v25.141h0.14179v9.3984h-0.14179v13.938h0.54365v3.1884h-0.54362v24.565h0.44909v1.2055h-11.82v1.6835h-64.772v0.42546h-1.2042v-0.42546h-5.0202v-0.80367h-6.7484v0.80367h-3.7018v-0.80367h-6.7497v0.80367h-3.5245v-0.80367h-6.7484v0.80367h-3.8791v-0.80367h-6.7484v0.80367h-7.2776v-1.4169h-20.475v1.4169h-7.376v-0.80367h-6.7484v0.80367h-3.8791v-0.80367h-6.7484v0.80367h-3.5245v-0.80367h-6.7484v0.80367h-3.7018v-0.80367h-0.93105v0.29021h-5.816v0.51346h-5.0215v0.42546h-1.2046v-0.35062h-64.768v-1.757h-11.82v-1.2055h0.4491v-24.565h-0.54365v-3.1884h0.54365v-13.939h-0.75901v-1.2042h0.75901v-33.335h-0.67365v-1.2042h0.67365v-56.447h-0.369v-3.1884h0.369v-25.24h-14.206v1.6835h-3.1529v-0.35455h-30.765v0.31909h-1.2042v-0.31909h-30.677v0.31909h-1.2042v-0.31909h-10.928v0.42546h-3.1884v-0.42546h-30.766v0.39001h-1.2029v-0.39001h-30.766v0.39001h-3.1529v-16.189zm605.22 0v13.628h-0.034v2.5607h-3.1529v-0.39001h-30.766v0.39001h-1.2028v-0.39001h-30.768v0.42546h-3.1884v-11.796h-10.928v11.69h-1.2043v-0.31909h-30.677v0.31909h-1.2042v-0.31909h-30.765v0.35455h-3.2238v-2.5686h-14.17v28.719h4.7458v-2.5935h9.4233v-16.513h-9.0346v-1.2042h9.0346v-1.4471h3.2238v0.7078h30.765v-0.7078h1.2042v0.7078h30.677v-0.7078h1.2042v0.7078h10.928v-0.7078h3.1884v0.7078h30.766v-0.7078h1.2042v0.7078h30.766v-0.7078h3.1529v2.541h6.6945v-8.7142h-0.69074v-0.74456h0.69074v-13.628zm-301.49 196 4.537 0.0289 3.1254 1.7544v7.6361l-3.2357 1.9606h-4.4267c-0.95686-0.52235-2.2819-1.4424-3.2212-1.9606v-7.7136z" style="fill-rule:evenodd;fill:#fff6d5;stroke-width:.13447;stroke:#f00"/>
 <path d="m177.25 0.1706v7.0858h-143.79v-4.428h-33.299v41.233h33.299v-5.3144h143.79v7.0488h0.16022v72.781h-143.64v-4.428h-33.374v40.77h33.374v-5.3131h143.64v79.35h-144.21v-4.428h-32.802v39.887h32.802v-4.428h144.21v4.428h28.409v-62.414h65.711v15.3h118.61v-15.3h66.169v62.414h28.534v-4.4609h143.57v4.4609h33.319v-40.187h-33.319v4.6539h-143.57v-79.276h143.4v5.3131h33.483v-40.773h-33.483v4.428h-143.4v-80.062h143.82v5.5455h33.073v-41.235h-33.073v4.6591h-143.82v-7.3158h-41.163v45.613h12.629v136.71h-250.49v-136.7h12.629v-45.626h-41.198z" style="fill:none;stroke-width:.33502;stroke:#000"/>
 <path id="aud-a115" d="m207.74 190.2v5.8292h6.5882v-3.0137h0.28364v7.8107h5.8804v-10.626h-5.8804v1.7531h-0.28364v-1.7531z" style="fill:none;stroke-width:.13447;stroke:#000"/>
 <rect x="207.74" y="196.32" width="6.5881" height="4.5137" style="fill:none;stroke-width:.13447;stroke:#000"/>
 <rect id="aud-a113" x="220.77" y="190.2" width="6.1282" height="10.627" style="fill:none;stroke-width:.13447;stroke:#000"/>
 <rect id="aud-a111" x="227.64" y="189.74" width="16.454" height="11.087" style="fill:none;stroke-width:.13447;stroke:#000"/>
 <rect x="244.38" y="189.74" width="5.2783" height="11.087" style="fill:none;stroke-width:.13447;stroke:#000"/>
 <rect id="aud-g121" x="144.91" y="26.474" width="11.504" height="10.627" style="fill:none;stroke-width:.2017;stroke:#000" ref="aud-g121"/>
 <rect x="156.7" y="26.474" width="3.4361" height="2.1336" style="fill:none;stroke-width:.2017;stroke:#000"/>
 <rect x="160.42" y="26.474" width="5.5616" height="2.1336" style="fill:none;stroke-width:.2017;stroke:#000"/>
 <rect x="166.26" y="26.474" width="5.5616" height="2.1336" style="fill:none;stroke-width:.2017;stroke:#000"/>
 <path d="m172.11 26.474v2.4162h-15.41v8.2112h18.978v-10.627z" style="fill:none;stroke-width:.2017;stroke:#000"/>
 <rect x="34.979" y="26.474" width="5.9331" height="10.627" style="fill:#fff;stroke-width:.20075;stroke:#000"/>
 <rect x="41.187" y="26.474" width="5.9331" height="10.627" style="fill:#fff;stroke-width:.20075;stroke:#000"/>
 <rect x="47.395" y="26.474" width="5.9331" height="10.627" style="fill:#fff;stroke-width:.20075;stroke:#000"/>
 <rect x="53.603" y="26.474" width="5.9331" height="10.627" style="fill:#fff;stroke-width:.20075;stroke:#000"/>
 <rect x="59.811" y="26.474" width="5.9331" height="10.627" style="fill:#fff;stroke-width:.20075;stroke:#000"/>
 <rect x="66.948" y="26.474" width="5.9331" height="10.627" style="fill:#fff;stroke-width:.20075;stroke:#000"/>
 <rect x="73.156" y="26.474" width="5.9331" height="10.627" style="fill:#fff;stroke-width:.20075;stroke:#000"/>
 <rect x="79.364" y="26.474" width="5.9331" height="10.627" style="fill:#fff;stroke-width:.20075;stroke:#000"/>
 <rect x="85.572" y="26.474" width="5.9331" height="10.627" style="fill:#fff;stroke-width:.20075;stroke:#000"/>
 <rect x="91.78" y="26.474" width="5.9331" height="10.627" style="fill:#fff;stroke-width:.20075;stroke:#000"/>
 <rect x="113.03" y="26.474" width="5.9331" height="10.627" style="fill:#fff;stroke-width:.20075;stroke:#000"/>
 <rect x="119.24" y="26.474" width="5.9331" height="10.627" style="fill:#fff;stroke-width:.20075;stroke:#000"/>
 <rect x="125.45" y="26.474" width="5.9331" height="10.627" style="fill:#fff;stroke-width:.20075;stroke:#000"/>
 <rect x="131.66" y="26.474" width="5.9331" height="10.627" style="fill:#fff;stroke-width:.20075;stroke:#000"/>
 <rect x="137.87" y="26.474" width="5.9331" height="10.627" style="fill:#fff;stroke-width:.20075;stroke:#000"/>
 <rect x="100.9" y="26.474" width="5.3403" height="10.627" style="fill:#fff;stroke-width:.19046;stroke:#000"/>
 <rect x="106.49" y="26.474" width="5.3403" height="10.627" style="fill:#fff;stroke-width:.19046;stroke:#000"/>
 <rect x="34.978" y="8.904" width="5.9331" height="10.627" style="fill:#fff;stroke-width:.20075;stroke:#000"/>
 <rect x="41.186" y="8.904" width="5.9331" height="10.627" style="fill:#fff;stroke-width:.20075;stroke:#000"/>
 <rect x="47.394" y="8.904" width="5.9331" height="10.627" style="fill:#fff;stroke-width:.20075;stroke:#000"/>
 <rect x="53.603" y="8.904" width="5.9331" height="10.627" style="fill:#fff;stroke-width:.20075;stroke:#000"/>
 <rect x="59.811" y="8.904" width="5.9331" height="10.627" style="fill:#fff;stroke-width:.20075;stroke:#000"/>
 <rect x="66.947" y="8.904" width="5.9331" height="10.627" style="fill:#fff;stroke-width:.20075;stroke:#000"/>
 <rect x="73.155" y="8.904" width="5.9331" height="10.627" style="fill:#fff;stroke-width:.20075;stroke:#000"/>
 <rect x="79.364" y="8.904" width="5.9331" height="10.627" style="fill:#fff;stroke-width:.20075;stroke:#000"/>
 <rect x="85.572" y="8.904" width="5.9331" height="10.627" style="fill:#fff;stroke-width:.20075;stroke:#000"/>
 <rect x="91.78" y="8.904" width="5.9331" height="10.627" style="fill:#fff;stroke-width:.20075;stroke:#000"/>
 <rect x="113.03" y="8.904" width="5.9331" height="10.627" style="fill:#fff;stroke-width:.20075;stroke:#000"/>
 <rect x="119.24" y="8.904" width="5.9331" height="10.627" style="fill:#fff;stroke-width:.20075;stroke:#000"/>
 <rect x="125.45" y="8.904" width="5.9331" height="10.627" style="fill:#fff;stroke-width:.20075;stroke:#000"/>
 <rect x="131.66" y="8.904" width="5.9331" height="10.627" style="fill:#fff;stroke-width:.20075;stroke:#000"/>
 <rect x="137.87" y="8.904" width="5.9331" height="10.627" style="fill:#fff;stroke-width:.20075;stroke:#000"/>
 <rect x="100.9" y="8.904" width="5.3403" height="10.627" style="fill:#fff;stroke-width:.19046;stroke:#000"/>
 <rect x="106.49" y="8.904" width="5.3403" height="10.627" style="fill:#fff;stroke-width:.19046;stroke:#000"/>
 <rect x="66.947" y="25.731" width="5.9336" height=".74306" style="fill:#fff;stroke-width:.20075;stroke:#000"/>
 <rect x="144.92" y="8.904" width="5.9331" height="10.627" style="fill:#fff;stroke-width:.20075;stroke:#000"/>
 <rect x="151.12" y="8.904" width="5.9331" height="10.627" style="fill:#fff;stroke-width:.20075;stroke:#000"/>
 <rect x="157.33" y="8.904" width="5.9331" height="10.627" style="fill:#fff;stroke-width:.20075;stroke:#000"/>
 <rect x="163.54" y="8.904" width="5.9331" height="10.627" style="fill:#fff;stroke-width:.20075;stroke:#000"/>
 <rect x="169.75" y="8.904" width="5.9331" height="10.627" style="fill:#fff;stroke-width:.20075;stroke:#000"/>
 <rect x="65.744" y="19.531" width="1.2029" height=".74306" style="fill:#fff;stroke-width:.20075;stroke:#000"/>
 <rect id="aud-g121-6" x="144.67" y="137.56" width="11.504" height="10.627" style="fill:none;stroke-width:.2017;stroke:#000" ref="aud-g121"/>
 <rect x="156.46" y="137.56" width="3.4361" height="2.1336" style="fill:none;stroke-width:.2017;stroke:#000"/>
 <rect x="160.18" y="137.56" width="5.5616" height="2.1336" style="fill:none;stroke-width:.2017;stroke:#000"/>
 <rect x="166.02" y="137.56" width="5.5616" height="2.1336" style="fill:none;stroke-width:.2017;stroke:#000"/>
 <path d="m171.87 137.56v2.4162h-15.41v8.2112h18.978v-10.627z" style="fill:none;stroke-width:.2017;stroke:#000"/>
 <rect x="34.736" y="137.56" width="5.9331" height="10.627" style="fill:#fff;stroke-width:.20075;stroke:#000"/>
 <rect x="40.944" y="137.56" width="5.9331" height="10.627" style="fill:#fff;stroke-width:.20075;stroke:#000"/>
 <rect x="47.152" y="137.56" width="5.9331" height="10.627" style="fill:#fff;stroke-width:.20075;stroke:#000"/>
 <rect x="53.36" y="137.56" width="5.9331" height="10.627" style="fill:#fff;stroke-width:.20075;stroke:#000"/>
 <rect x="59.568" y="137.56" width="5.9331" height="10.627" style="fill:#fff;stroke-width:.20075;stroke:#000"/>
 <rect x="66.705" y="137.56" width="5.9331" height="10.627" style="fill:#fff;stroke-width:.20075;stroke:#000"/>
 <rect x="72.913" y="137.56" width="5.9331" height="10.627" style="fill:#fff;stroke-width:.20075;stroke:#000"/>
 <rect x="79.121" y="137.56" width="5.9331" height="10.627" style="fill:#fff;stroke-width:.20075;stroke:#000"/>
 <rect x="85.329" y="137.56" width="5.9331" height="10.627" style="fill:#fff;stroke-width:.20075;stroke:#000"/>
 <rect x="91.538" y="137.56" width="5.9331" height="10.627" style="fill:#fff;stroke-width:.20075;stroke:#000"/>
 <rect x="112.79" y="137.56" width="5.9331" height="10.627" style="fill:#fff;stroke-width:.20075;stroke:#000"/>
 <rect x="119" y="137.56" width="5.9331" height="10.627" style="fill:#fff;stroke-width:.20075;stroke:#000"/>
 <rect x="125.21" y="137.56" width="5.9331" height="10.627" style="fill:#fff;stroke-width:.20075;stroke:#000"/>
 <rect x="131.42" y="137.56" width="5.9331" height="10.627" style="fill:#fff;stroke-width:.20075;stroke:#000"/>
 <rect x="137.62" y="137.56" width="5.9331" height="10.627" style="fill:#fff;stroke-width:.20075;stroke:#000"/>
 <rect x="100.66" y="137.56" width="5.3403" height="10.627" style="fill:#fff;stroke-width:.19046;stroke:#000"/>
 <rect x="106.25" y="137.56" width="5.3403" height="10.627" style="fill:#fff;stroke-width:.19046;stroke:#000"/>
 <rect x="34.735" y="119.99" width="5.9331" height="10.627" style="fill:#fff;stroke-width:.20075;stroke:#000"/>
 <rect x="40.943" y="119.99" width="5.9331" height="10.627" style="fill:#fff;stroke-width:.20075;stroke:#000"/>
 <rect x="47.152" y="119.99" width="5.9331" height="10.627" style="fill:#fff;stroke-width:.20075;stroke:#000"/>
 <rect x="53.36" y="119.99" width="5.9331" height="10.627" style="fill:#fff;stroke-width:.20075;stroke:#000"/>
 <rect x="59.568" y="119.99" width="5.9331" height="10.627" style="fill:#fff;stroke-width:.20075;stroke:#000"/>
 <rect x="66.704" y="119.99" width="5.9331" height="10.627" style="fill:#fff;stroke-width:.20075;stroke:#000"/>
 <rect x="72.913" y="119.99" width="5.9331" height="10.627" style="fill:#fff;stroke-width:.20075;stroke:#000"/>
 <rect x="79.121" y="119.99" width="5.9331" height="10.627" style="fill:#fff;stroke-width:.20075;stroke:#000"/>
 <rect x="85.329" y="119.99" width="5.9331" height="10.627" style="fill:#fff;stroke-width:.20075;stroke:#000"/>
 <rect x="91.537" y="119.99" width="5.9331" height="10.627" style="fill:#fff;stroke-width:.20075;stroke:#000"/>
 <rect x="112.79" y="119.99" width="5.9331" height="10.627" style="fill:#fff;stroke-width:.20075;stroke:#000"/>
 <rect x="119" y="119.99" width="5.9331" height="10.627" style="fill:#fff;stroke-width:.20075;stroke:#000"/>
 <rect x="125.21" y="119.99" width="5.9331" height="10.627" style="fill:#fff;stroke-width:.20075;stroke:#000"/>
 <rect x="131.42" y="119.99" width="5.9331" height="10.627" style="fill:#fff;stroke-width:.20075;stroke:#000"/>
 <rect x="137.62" y="119.99" width="5.9331" height="10.627" style="fill:#fff;stroke-width:.20075;stroke:#000"/>
 <rect x="100.66" y="119.99" width="5.3403" height="10.627" style="fill:#fff;stroke-width:.19046;stroke:#000"/>
 <rect x="106.25" y="119.99" width="5.3403" height="10.627" style="fill:#fff;stroke-width:.19046;stroke:#000"/>
 <rect x="66.704" y="136.82" width="5.9336" height=".74306" style="fill:#fff;stroke-width:.20075;stroke:#000"/>
 <rect x="144.67" y="119.99" width="5.9331" height="10.627" style="fill:#fff;stroke-width:.20075;stroke:#000"/>
 <rect x="150.88" y="119.99" width="5.9331" height="10.627" style="fill:#fff;stroke-width:.20075;stroke:#000"/>
 <rect x="157.09" y="119.99" width="5.9331" height="10.627" style="fill:#fff;stroke-width:.20075;stroke:#000"/>
 <rect x="163.3" y="119.99" width="5.9331" height="10.627" style="fill:#fff;stroke-width:.20075;stroke:#000"/>
 <rect x="169.51" y="119.99" width="5.9331" height="10.627" style="fill:#fff;stroke-width:.20075;stroke:#000"/>
 <rect x="65.501" y="130.62" width="1.2029" height=".74306" style="fill:#fff;stroke-width:.20075;stroke:#000"/>
 <rect id="aud-g121-6-1" x="144.93" y="247.94" width="11.504" height="10.627" style="fill:none;stroke-width:.2017;stroke:#000" ref="aud-g121"/>
 <rect x="156.71" y="247.94" width="3.4361" height="2.1336" style="fill:none;stroke-width:.2017;stroke:#000"/>
 <rect x="160.43" y="247.94" width="5.5616" height="2.1336" style="fill:none;stroke-width:.2017;stroke:#000"/>
 <rect x="166.28" y="247.94" width="5.5616" height="2.1336" style="fill:none;stroke-width:.2017;stroke:#000"/>
 <path d="m172.12 247.94v2.4162h-15.41v8.2112h18.978v-10.627z" style="fill:none;stroke-width:.2017;stroke:#000"/>
 <rect x="34.993" y="247.94" width="5.9331" height="10.627" style="fill:#fff;stroke-width:.20075;stroke:#000"/>
 <rect x="41.201" y="247.94" width="5.9331" height="10.627" style="fill:#fff;stroke-width:.20075;stroke:#000"/>
 <rect x="47.41" y="247.94" width="5.9331" height="10.627" style="fill:#fff;stroke-width:.20075;stroke:#000"/>
 <rect x="53.618" y="247.94" width="5.9331" height="10.627" style="fill:#fff;stroke-width:.20075;stroke:#000"/>
 <rect x="59.826" y="247.94" width="5.9331" height="10.627" style="fill:#fff;stroke-width:.20075;stroke:#000"/>
 <rect x="66.962" y="247.94" width="5.9331" height="10.627" style="fill:#fff;stroke-width:.20075;stroke:#000"/>
 <rect x="73.17" y="247.94" width="5.9331" height="10.627" style="fill:#fff;stroke-width:.20075;stroke:#000"/>
 <rect x="79.379" y="247.94" width="5.9331" height="10.627" style="fill:#fff;stroke-width:.20075;stroke:#000"/>
 <rect x="85.587" y="247.94" width="5.9331" height="10.627" style="fill:#fff;stroke-width:.20075;stroke:#000"/>
 <rect x="91.795" y="247.94" width="5.9331" height="10.627" style="fill:#fff;stroke-width:.20075;stroke:#000"/>
 <rect x="113.05" y="247.94" width="5.9331" height="10.627" style="fill:#fff;stroke-width:.20075;stroke:#000"/>
 <rect x="119.26" y="247.94" width="5.9331" height="10.627" style="fill:#fff;stroke-width:.20075;stroke:#000"/>
 <rect x="125.47" y="247.94" width="5.9331" height="10.627" style="fill:#fff;stroke-width:.20075;stroke:#000"/>
 <rect x="131.67" y="247.94" width="5.9331" height="10.627" style="fill:#fff;stroke-width:.20075;stroke:#000"/>
 <rect x="137.88" y="247.94" width="5.9331" height="10.627" style="fill:#fff;stroke-width:.20075;stroke:#000"/>
 <rect x="100.92" y="247.94" width="5.3403" height="10.627" style="fill:#fff;stroke-width:.19046;stroke:#000"/>
 <rect x="106.5" y="247.94" width="5.3403" height="10.627" style="fill:#fff;stroke-width:.19046;stroke:#000"/>
 <rect x="34.993" y="230.37" width="5.9331" height="10.627" style="fill:#fff;stroke-width:.20075;stroke:#000"/>
 <rect x="41.201" y="230.37" width="5.9331" height="10.627" style="fill:#fff;stroke-width:.20075;stroke:#000"/>
 <rect x="47.409" y="230.37" width="5.9331" height="10.627" style="fill:#fff;stroke-width:.20075;stroke:#000"/>
 <rect x="53.617" y="230.37" width="5.9331" height="10.627" style="fill:#fff;stroke-width:.20075;stroke:#000"/>
 <rect x="59.825" y="230.37" width="5.9331" height="10.627" style="fill:#fff;stroke-width:.20075;stroke:#000"/>
 <rect x="66.962" y="230.37" width="5.9331" height="10.627" style="fill:#fff;stroke-width:.20075;stroke:#000"/>
 <rect x="73.17" y="230.37" width="5.9331" height="10.627" style="fill:#fff;stroke-width:.20075;stroke:#000"/>
 <rect x="79.378" y="230.37" width="5.9331" height="10.627" style="fill:#fff;stroke-width:.20075;stroke:#000"/>
 <rect x="85.586" y="230.37" width="5.9331" height="10.627" style="fill:#fff;stroke-width:.20075;stroke:#000"/>
 <rect x="91.794" y="230.37" width="5.9331" height="10.627" style="fill:#fff;stroke-width:.20075;stroke:#000"/>
 <rect x="113.05" y="230.37" width="5.9331" height="10.627" style="fill:#fff;stroke-width:.20075;stroke:#000"/>
 <rect x="119.26" y="230.37" width="5.9331" height="10.627" style="fill:#fff;stroke-width:.20075;stroke:#000"/>
 <rect x="125.46" y="230.37" width="5.9331" height="10.627" style="fill:#fff;stroke-width:.20075;stroke:#000"/>
 <rect x="131.67" y="230.37" width="5.9331" height="10.627" style="fill:#fff;stroke-width:.20075;stroke:#000"/>
 <rect x="137.88" y="230.37" width="5.9331" height="10.627" style="fill:#fff;stroke-width:.20075;stroke:#000"/>
 <rect x="100.92" y="230.37" width="5.3403" height="10.627" style="fill:#fff;stroke-width:.19046;stroke:#000"/>
 <rect x="106.5" y="230.37" width="5.3403" height="10.627" style="fill:#fff;stroke-width:.19046;stroke:#000"/>
 <rect x="66.962" y="247.19" width="5.9336" height=".74306" style="fill:#fff;stroke-width:.20075;stroke:#000"/>
 <rect x="144.93" y="230.37" width="5.9331" height="10.627" style="fill:#fff;stroke-width:.20075;stroke:#000"/>
 <rect x="151.14" y="230.37" width="5.9331" height="10.627" style="fill:#fff;stroke-width:.20075;stroke:#000"/>
 <rect x="157.35" y="230.37" width="5.9331" height="10.627" style="fill:#fff;stroke-width:.20075;stroke:#000"/>
 <rect x="163.55" y="230.37" width="5.9331" height="10.627" style="fill:#fff;stroke-width:.20075;stroke:#000"/>
 <rect x="169.76" y="230.37" width="5.9331" height="10.627" style="fill:#fff;stroke-width:.20075;stroke:#000"/>
 <rect x="65.759" y="240.99" width="1.2029" height=".74306" style="fill:#fff;stroke-width:.20075;stroke:#000"/>
 <rect id="aud-g121-8" transform="scale(-1,1)" x="-517.23" y="26.473" width="11.504" height="10.627" style="fill:none;stroke-width:.2017;stroke:#000" ref="aud-g121"/>
 <rect transform="scale(-1,1)" x="-505.44" y="26.473" width="3.4361" height="2.1336" style="fill:none;stroke-width:.2017;stroke:#000"/>
 <rect transform="scale(-1,1)" x="-501.72" y="26.473" width="5.5616" height="2.1336" style="fill:none;stroke-width:.2017;stroke:#000"/>
 <rect transform="scale(-1,1)" x="-495.87" y="26.473" width="5.5616" height="2.1336" style="fill:none;stroke-width:.2017;stroke:#000"/>
 <path d="m490.03 26.473v2.4162h15.41v8.2112h-18.978v-10.627z" style="fill:none;stroke-width:.2017;stroke:#000"/>
 <rect transform="scale(-1,1)" x="-627.16" y="26.473" width="5.9331" height="10.627" style="fill:#fff;stroke-width:.20075;stroke:#000"/>
 <rect transform="scale(-1,1)" x="-620.95" y="26.473" width="5.9331" height="10.627" style="fill:#fff;stroke-width:.20075;stroke:#000"/>
 <rect transform="scale(-1,1)" x="-614.74" y="26.473" width="5.9331" height="10.627" style="fill:#fff;stroke-width:.20075;stroke:#000"/>
 <rect transform="scale(-1,1)" x="-608.53" y="26.473" width="5.9331" height="10.627" style="fill:#fff;stroke-width:.20075;stroke:#000"/>
 <rect transform="scale(-1,1)" x="-602.33" y="26.473" width="5.9331" height="10.627" style="fill:#fff;stroke-width:.20075;stroke:#000"/>
 <rect transform="scale(-1,1)" x="-595.19" y="26.473" width="5.9331" height="10.627" style="fill:#fff;stroke-width:.20075;stroke:#000"/>
 <rect transform="scale(-1,1)" x="-588.98" y="26.473" width="5.9331" height="10.627" style="fill:#fff;stroke-width:.20075;stroke:#000"/>
 <rect transform="scale(-1,1)" x="-582.77" y="26.473" width="5.9331" height="10.627" style="fill:#fff;stroke-width:.20075;stroke:#000"/>
 <rect transform="scale(-1,1)" x="-576.56" y="26.473" width="5.9331" height="10.627" style="fill:#fff;stroke-width:.20075;stroke:#000"/>
 <rect transform="scale(-1,1)" x="-570.36" y="26.473" width="5.9331" height="10.627" style="fill:#fff;stroke-width:.20075;stroke:#000"/>
 <rect transform="scale(-1,1)" x="-549.1" y="26.473" width="5.9331" height="10.627" style="fill:#fff;stroke-width:.20075;stroke:#000"/>
 <rect transform="scale(-1,1)" x="-542.89" y="26.473" width="5.9331" height="10.627" style="fill:#fff;stroke-width:.20075;stroke:#000"/>
 <rect transform="scale(-1,1)" x="-536.69" y="26.473" width="5.9331" height="10.627" style="fill:#fff;stroke-width:.20075;stroke:#000"/>
 <rect transform="scale(-1,1)" x="-530.48" y="26.473" width="5.9331" height="10.627" style="fill:#fff;stroke-width:.20075;stroke:#000"/>
 <rect transform="scale(-1,1)" x="-524.27" y="26.473" width="5.9331" height="10.627" style="fill:#fff;stroke-width:.20075;stroke:#000"/>
 <rect transform="scale(-1,1)" x="-561.23" y="26.473" width="5.3403" height="10.627" style="fill:#fff;stroke-width:.19046;stroke:#000"/>
 <rect transform="scale(-1,1)" x="-555.65" y="26.473" width="5.3403" height="10.627" style="fill:#fff;stroke-width:.19046;stroke:#000"/>
 <rect transform="scale(-1,1)" x="-627.16" y="8.9033" width="5.9331" height="10.627" style="fill:#fff;stroke-width:.20075;stroke:#000"/>
 <rect transform="scale(-1,1)" x="-620.95" y="8.9033" width="5.9331" height="10.627" style="fill:#fff;stroke-width:.20075;stroke:#000"/>
 <rect transform="scale(-1,1)" x="-614.74" y="8.9033" width="5.9331" height="10.627" style="fill:#fff;stroke-width:.20075;stroke:#000"/>
 <rect transform="scale(-1,1)" x="-608.53" y="8.9033" width="5.9331" height="10.627" style="fill:#fff;stroke-width:.20075;stroke:#000"/>
 <rect transform="scale(-1,1)" x="-602.33" y="8.9033" width="5.9331" height="10.627" style="fill:#fff;stroke-width:.20075;stroke:#000"/>
 <rect transform="scale(-1,1)" x="-595.19" y="8.9033" width="5.9331" height="10.627" style="fill:#fff;stroke-width:.20075;stroke:#000"/>
 <rect transform="scale(-1,1)" x="-588.98" y="8.9033" width="5.9331" height="10.627" style="fill:#fff;stroke-width:.20075;stroke:#000"/>
 <rect transform="scale(-1,1)" x="-582.77" y="8.9033" width="5.9331" height="10.627" style="fill:#fff;stroke-width:.20075;stroke:#000"/>
 <rect transform="scale(-1,1)" x="-576.56" y="8.9033" width="5.9331" height="10.627" style="fill:#fff;stroke-width:.20075;stroke:#000"/>
 <rect transform="scale(-1,1)" x="-570.36" y="8.9033" width="5.9331" height="10.627" style="fill:#fff;stroke-width:.20075;stroke:#000"/>
 <rect transform="scale(-1,1)" x="-549.1" y="8.9033" width="5.9331" height="10.627" style="fill:#fff;stroke-width:.20075;stroke:#000"/>
 <rect transform="scale(-1,1)" x="-542.89" y="8.9033" width="5.9331" height="10.627" style="fill:#fff;stroke-width:.20075;stroke:#000"/>
 <rect transform="scale(-1,1)" x="-536.69" y="8.9033" width="5.9331" height="10.627" style="fill:#fff;stroke-width:.20075;stroke:#000"/>
 <rect transform="scale(-1,1)" x="-530.48" y="8.9033" width="5.9331" height="10.627" style="fill:#fff;stroke-width:.20075;stroke:#000"/>
 <rect transform="scale(-1,1)" x="-524.27" y="8.9033" width="5.9331" height="10.627" style="fill:#fff;stroke-width:.20075;stroke:#000"/>
 <rect transform="scale(-1,1)" x="-561.24" y="8.9033" width="5.3403" height="10.627" style="fill:#fff;stroke-width:.19046;stroke:#000"/>
 <rect transform="scale(-1,1)" x="-555.65" y="8.9033" width="5.3403" height="10.627" style="fill:#fff;stroke-width:.19046;stroke:#000"/>
 <rect transform="scale(-1,1)" x="-595.19" y="25.73" width="5.9336" height=".74306" style="fill:#fff;stroke-width:.20075;stroke:#000"/>
 <rect transform="scale(-1,1)" x="-517.22" y="8.9033" width="5.9331" height="10.627" style="fill:#fff;stroke-width:.20075;stroke:#000"/>
 <rect transform="scale(-1,1)" x="-511.01" y="8.9033" width="5.9331" height="10.627" style="fill:#fff;stroke-width:.20075;stroke:#000"/>
 <rect transform="scale(-1,1)" x="-504.81" y="8.9033" width="5.9331" height="10.627" style="fill:#fff;stroke-width:.20075;stroke:#000"/>
 <rect transform="scale(-1,1)" x="-498.6" y="8.9033" width="5.9331" height="10.627" style="fill:#fff;stroke-width:.20075;stroke:#000"/>
 <rect transform="scale(-1,1)" x="-492.39" y="8.9033" width="5.9331" height="10.627" style="fill:#fff;stroke-width:.20075;stroke:#000"/>
 <rect transform="scale(-1,1)" x="-596.39" y="19.531" width="1.2029" height=".74306" style="fill:#fff;stroke-width:.20075;stroke:#000"/>
 <rect id="aud-g121-8-8" transform="scale(-1,1)" x="-517.37" y="137.56" width="11.504" height="10.627" style="fill:none;stroke-width:.2017;stroke:#000" ref="aud-g121"/>
 <rect transform="scale(-1,1)" x="-505.58" y="137.56" width="3.4361" height="2.1336" style="fill:none;stroke-width:.2017;stroke:#000"/>
 <rect transform="scale(-1,1)" x="-501.86" y="137.56" width="5.5616" height="2.1336" style="fill:none;stroke-width:.2017;stroke:#000"/>
 <rect transform="scale(-1,1)" x="-496.01" y="137.56" width="5.5616" height="2.1336" style="fill:none;stroke-width:.2017;stroke:#000"/>
 <path d="m490.17 137.56v2.4162h15.41v8.2112h-18.978v-10.627z" style="fill:none;stroke-width:.2017;stroke:#000"/>
 <rect transform="scale(-1,1)" x="-627.3" y="137.56" width="5.9331" height="10.627" style="fill:#fff;stroke-width:.20075;stroke:#000"/>
 <rect transform="scale(-1,1)" x="-621.09" y="137.56" width="5.9331" height="10.627" style="fill:#fff;stroke-width:.20075;stroke:#000"/>
 <rect transform="scale(-1,1)" x="-614.88" y="137.56" width="5.9331" height="10.627" style="fill:#fff;stroke-width:.20075;stroke:#000"/>
 <rect transform="scale(-1,1)" x="-608.67" y="137.56" width="5.9331" height="10.627" style="fill:#fff;stroke-width:.20075;stroke:#000"/>
 <rect transform="scale(-1,1)" x="-602.47" y="137.56" width="5.9331" height="10.627" style="fill:#fff;stroke-width:.20075;stroke:#000"/>
 <rect transform="scale(-1,1)" x="-595.33" y="137.56" width="5.9331" height="10.627" style="fill:#fff;stroke-width:.20075;stroke:#000"/>
 <rect transform="scale(-1,1)" x="-589.12" y="137.56" width="5.9331" height="10.627" style="fill:#fff;stroke-width:.20075;stroke:#000"/>
 <rect transform="scale(-1,1)" x="-582.91" y="137.56" width="5.9331" height="10.627" style="fill:#fff;stroke-width:.20075;stroke:#000"/>
 <rect transform="scale(-1,1)" x="-576.7" y="137.56" width="5.9331" height="10.627" style="fill:#fff;stroke-width:.20075;stroke:#000"/>
 <rect transform="scale(-1,1)" x="-570.5" y="137.56" width="5.9331" height="10.627" style="fill:#fff;stroke-width:.20075;stroke:#000"/>
 <rect transform="scale(-1,1)" x="-549.24" y="137.56" width="5.9331" height="10.627" style="fill:#fff;stroke-width:.20075;stroke:#000"/>
 <rect transform="scale(-1,1)" x="-543.03" y="137.56" width="5.9331" height="10.627" style="fill:#fff;stroke-width:.20075;stroke:#000"/>
 <rect transform="scale(-1,1)" x="-536.83" y="137.56" width="5.9331" height="10.627" style="fill:#fff;stroke-width:.20075;stroke:#000"/>
 <rect transform="scale(-1,1)" x="-530.62" y="137.56" width="5.9331" height="10.627" style="fill:#fff;stroke-width:.20075;stroke:#000"/>
 <rect transform="scale(-1,1)" x="-524.41" y="137.56" width="5.9331" height="10.627" style="fill:#fff;stroke-width:.20075;stroke:#000"/>
 <rect transform="scale(-1,1)" x="-561.38" y="137.56" width="5.3403" height="10.627" style="fill:#fff;stroke-width:.19046;stroke:#000"/>
 <rect transform="scale(-1,1)" x="-555.79" y="137.56" width="5.3403" height="10.627" style="fill:#fff;stroke-width:.19046;stroke:#000"/>
 <rect transform="scale(-1,1)" x="-627.3" y="119.99" width="5.9331" height="10.627" style="fill:#fff;stroke-width:.20075;stroke:#000"/>
 <rect transform="scale(-1,1)" x="-621.09" y="119.99" width="5.9331" height="10.627" style="fill:#fff;stroke-width:.20075;stroke:#000"/>
 <rect transform="scale(-1,1)" x="-614.88" y="119.99" width="5.9331" height="10.627" style="fill:#fff;stroke-width:.20075;stroke:#000"/>
 <rect transform="scale(-1,1)" x="-608.67" y="119.99" width="5.9331" height="10.627" style="fill:#fff;stroke-width:.20075;stroke:#000"/>
 <rect transform="scale(-1,1)" x="-602.47" y="119.99" width="5.9331" height="10.627" style="fill:#fff;stroke-width:.20075;stroke:#000"/>
 <rect transform="scale(-1,1)" x="-595.33" y="119.99" width="5.9331" height="10.627" style="fill:#fff;stroke-width:.20075;stroke:#000"/>
 <rect transform="scale(-1,1)" x="-589.12" y="119.99" width="5.9331" height="10.627" style="fill:#fff;stroke-width:.20075;stroke:#000"/>
 <rect transform="scale(-1,1)" x="-582.91" y="119.99" width="5.9331" height="10.627" style="fill:#fff;stroke-width:.20075;stroke:#000"/>
 <rect transform="scale(-1,1)" x="-576.71" y="119.99" width="5.9331" height="10.627" style="fill:#fff;stroke-width:.20075;stroke:#000"/>
 <rect transform="scale(-1,1)" x="-570.5" y="119.99" width="5.9331" height="10.627" style="fill:#fff;stroke-width:.20075;stroke:#000"/>
 <rect transform="scale(-1,1)" x="-549.24" y="119.99" width="5.9331" height="10.627" style="fill:#fff;stroke-width:.20075;stroke:#000"/>
 <rect transform="scale(-1,1)" x="-543.04" y="119.99" width="5.9331" height="10.627" style="fill:#fff;stroke-width:.20075;stroke:#000"/>
 <rect transform="scale(-1,1)" x="-536.83" y="119.99" width="5.9331" height="10.627" style="fill:#fff;stroke-width:.20075;stroke:#000"/>
 <rect transform="scale(-1,1)" x="-530.62" y="119.99" width="5.9331" height="10.627" style="fill:#fff;stroke-width:.20075;stroke:#000"/>
 <rect transform="scale(-1,1)" x="-524.41" y="119.99" width="5.9331" height="10.627" style="fill:#fff;stroke-width:.20075;stroke:#000"/>
 <rect transform="scale(-1,1)" x="-561.38" y="119.99" width="5.3403" height="10.627" style="fill:#fff;stroke-width:.19046;stroke:#000"/>
 <rect transform="scale(-1,1)" x="-555.79" y="119.99" width="5.3403" height="10.627" style="fill:#fff;stroke-width:.19046;stroke:#000"/>
 <rect transform="scale(-1,1)" x="-595.33" y="136.82" width="5.9336" height=".74306" style="fill:#fff;stroke-width:.20075;stroke:#000"/>
 <rect transform="scale(-1,1)" x="-517.36" y="119.99" width="5.9331" height="10.627" style="fill:#fff;stroke-width:.20075;stroke:#000"/>
 <rect transform="scale(-1,1)" x="-511.15" y="119.99" width="5.9331" height="10.627" style="fill:#fff;stroke-width:.20075;stroke:#000"/>
 <rect transform="scale(-1,1)" x="-504.95" y="119.99" width="5.9331" height="10.627" style="fill:#fff;stroke-width:.20075;stroke:#000"/>
 <rect transform="scale(-1,1)" x="-498.74" y="119.99" width="5.9331" height="10.627" style="fill:#fff;stroke-width:.20075;stroke:#000"/>
 <rect transform="scale(-1,1)" x="-492.53" y="119.99" width="5.9331" height="10.627" style="fill:#fff;stroke-width:.20075;stroke:#000"/>
 <rect transform="scale(-1,1)" x="-596.53" y="130.62" width="1.2029" height=".74306" style="fill:#fff;stroke-width:.20075;stroke:#000"/>
 <rect id="aud-g121-8-8-7" transform="scale(-1,1)" x="-517.26" y="247.94" width="11.504" height="10.627" style="fill:none;stroke-width:.2017;stroke:#000" ref="aud-g121"/>
 <rect transform="scale(-1,1)" x="-505.47" y="247.94" width="3.4361" height="2.1336" style="fill:none;stroke-width:.2017;stroke:#000"/>
 <rect transform="scale(-1,1)" x="-501.75" y="247.94" width="5.5616" height="2.1336" style="fill:none;stroke-width:.2017;stroke:#000"/>
 <rect transform="scale(-1,1)" x="-495.9" y="247.94" width="5.5616" height="2.1336" style="fill:none;stroke-width:.2017;stroke:#000"/>
 <path d="m490.06 247.94v2.4162h15.41v8.2112h-18.978v-10.627z" style="fill:none;stroke-width:.2017;stroke:#000"/>
 <rect transform="scale(-1,1)" x="-627.19" y="247.94" width="5.9331" height="10.627" style="fill:#fff;stroke-width:.20075;stroke:#000"/>
 <rect transform="scale(-1,1)" x="-620.98" y="247.94" width="5.9331" height="10.627" style="fill:#fff;stroke-width:.20075;stroke:#000"/>
 <rect transform="scale(-1,1)" x="-614.77" y="247.94" width="5.9331" height="10.627" style="fill:#fff;stroke-width:.20075;stroke:#000"/>
 <rect transform="scale(-1,1)" x="-608.56" y="247.94" width="5.9331" height="10.627" style="fill:#fff;stroke-width:.20075;stroke:#000"/>
 <rect transform="scale(-1,1)" x="-602.36" y="247.94" width="5.9331" height="10.627" style="fill:#fff;stroke-width:.20075;stroke:#000"/>
 <rect transform="scale(-1,1)" x="-595.22" y="247.94" width="5.9331" height="10.627" style="fill:#fff;stroke-width:.20075;stroke:#000"/>
 <rect transform="scale(-1,1)" x="-589.01" y="247.94" width="5.9331" height="10.627" style="fill:#fff;stroke-width:.20075;stroke:#000"/>
 <rect transform="scale(-1,1)" x="-582.8" y="247.94" width="5.9331" height="10.627" style="fill:#fff;stroke-width:.20075;stroke:#000"/>
 <rect transform="scale(-1,1)" x="-576.6" y="247.94" width="5.9331" height="10.627" style="fill:#fff;stroke-width:.20075;stroke:#000"/>
 <rect transform="scale(-1,1)" x="-570.39" y="247.94" width="5.9331" height="10.627" style="fill:#fff;stroke-width:.20075;stroke:#000"/>
 <rect transform="scale(-1,1)" x="-549.13" y="247.94" width="5.9331" height="10.627" style="fill:#fff;stroke-width:.20075;stroke:#000"/>
 <rect transform="scale(-1,1)" x="-542.93" y="247.94" width="5.9331" height="10.627" style="fill:#fff;stroke-width:.20075;stroke:#000"/>
 <rect transform="scale(-1,1)" x="-536.72" y="247.94" width="5.9331" height="10.627" style="fill:#fff;stroke-width:.20075;stroke:#000"/>
 <rect transform="scale(-1,1)" x="-530.51" y="247.94" width="5.9331" height="10.627" style="fill:#fff;stroke-width:.20075;stroke:#000"/>
 <rect transform="scale(-1,1)" x="-524.3" y="247.94" width="5.9331" height="10.627" style="fill:#fff;stroke-width:.20075;stroke:#000"/>
 <rect transform="scale(-1,1)" x="-561.27" y="247.94" width="5.3403" height="10.627" style="fill:#fff;stroke-width:.19046;stroke:#000"/>
 <rect transform="scale(-1,1)" x="-555.68" y="247.94" width="5.3403" height="10.627" style="fill:#fff;stroke-width:.19046;stroke:#000"/>
 <rect transform="scale(-1,1)" x="-627.19" y="230.37" width="5.9331" height="10.627" style="fill:#fff;stroke-width:.20075;stroke:#000"/>
 <rect transform="scale(-1,1)" x="-620.98" y="230.37" width="5.9331" height="10.627" style="fill:#fff;stroke-width:.20075;stroke:#000"/>
 <rect transform="scale(-1,1)" x="-614.77" y="230.37" width="5.9331" height="10.627" style="fill:#fff;stroke-width:.20075;stroke:#000"/>
 <rect transform="scale(-1,1)" x="-608.57" y="230.37" width="5.9331" height="10.627" style="fill:#fff;stroke-width:.20075;stroke:#000"/>
 <rect transform="scale(-1,1)" x="-602.36" y="230.37" width="5.9331" height="10.627" style="fill:#fff;stroke-width:.20075;stroke:#000"/>
 <rect transform="scale(-1,1)" x="-595.22" y="230.37" width="5.9331" height="10.627" style="fill:#fff;stroke-width:.20075;stroke:#000"/>
 <rect transform="scale(-1,1)" x="-589.01" y="230.37" width="5.9331" height="10.627" style="fill:#fff;stroke-width:.20075;stroke:#000"/>
 <rect transform="scale(-1,1)" x="-582.8" y="230.37" width="5.9331" height="10.627" style="fill:#fff;stroke-width:.20075;stroke:#000"/>
 <rect transform="scale(-1,1)" x="-576.6" y="230.37" width="5.9331" height="10.627" style="fill:#fff;stroke-width:.20075;stroke:#000"/>
 <rect transform="scale(-1,1)" x="-570.39" y="230.37" width="5.9331" height="10.627" style="fill:#fff;stroke-width:.20075;stroke:#000"/>
 <rect transform="scale(-1,1)" x="-549.13" y="230.37" width="5.9331" height="10.627" style="fill:#fff;stroke-width:.20075;stroke:#000"/>
 <rect transform="scale(-1,1)" x="-542.93" y="230.37" width="5.9331" height="10.627" style="fill:#fff;stroke-width:.20075;stroke:#000"/>
 <rect transform="scale(-1,1)" x="-536.72" y="230.37" width="5.9331" height="10.627" style="fill:#fff;stroke-width:.20075;stroke:#000"/>
 <rect transform="scale(-1,1)" x="-530.51" y="230.37" width="5.9331" height="10.627" style="fill:#fff;stroke-width:.20075;stroke:#000"/>
 <rect transform="scale(-1,1)" x="-524.3" y="230.37" width="5.9331" height="10.627" style="fill:#fff;stroke-width:.20075;stroke:#000"/>
 <rect transform="scale(-1,1)" x="-561.27" y="230.37" width="5.3403" height="10.627" style="fill:#fff;stroke-width:.19046;stroke:#000"/>
 <rect transform="scale(-1,1)" x="-555.68" y="230.37" width="5.3403" height="10.627" style="fill:#fff;stroke-width:.19046;stroke:#000"/>
 <rect transform="scale(-1,1)" x="-595.22" y="247.2" width="5.9336" height=".74306" style="fill:#fff;stroke-width:.20075;stroke:#000"/>
 <rect transform="scale(-1,1)" x="-517.25" y="230.37" width="5.9331" height="10.627" style="fill:#fff;stroke-width:.20075;stroke:#000"/>
 <rect transform="scale(-1,1)" x="-511.04" y="230.37" width="5.9331" height="10.627" style="fill:#fff;stroke-width:.20075;stroke:#000"/>
 <rect transform="scale(-1,1)" x="-504.84" y="230.37" width="5.9331" height="10.627" style="fill:#fff;stroke-width:.20075;stroke:#000"/>
 <rect transform="scale(-1,1)" x="-498.63" y="230.37" width="5.9331" height="10.627" style="fill:#fff;stroke-width:.20075;stroke:#000"/>
 <rect transform="scale(-1,1)" x="-492.42" y="230.37" width="5.9331" height="10.627" style="fill:#fff;stroke-width:.20075;stroke:#000"/>
 <rect transform="scale(-1,1)" x="-596.42" y="241" width="1.2029" height=".74306" style="fill:#fff;stroke-width:.20075;stroke:#000"/>
 <rect id="aud-k303a" x="193.76" y="195.35" width="10.646" height="5.7596" style="fill:none;stroke-width:.19322;stroke:#000" ref="aud-k125"/>
 <rect id="aud-i307a" x="457.73" y="130.31" width="10.627" height="8.1981" style="fill:none;stroke-width:.19747;stroke:#000" ref="aud-k109b"/>
 <rect id="aud-i309" transform="scale(-1,1)" x="-468.35" y="139.71" width="10.627" height="13.939" style="fill:none;stroke-width:.2017;stroke:#000" ref="aud-k109a"/>
 <rect id="aud-i315a" x="457.73" y="195.49" width="10.646" height="5.7596" style="fill:none;stroke-width:.19322;stroke:#000" ref="aud-k125"/>
 <rect id="aud-i317" x="457.73" y="220.69" width="10.646" height="17.885" style="fill:none;stroke-width:.13581;stroke:#000"/>
 <rect id="aud-i315" x="457.73" y="201.57" width="10.646" height="17.912" style="fill:none;stroke-width:.13581;stroke:#000"/>
 <rect id="aud-i311" x="457.71" y="156.84" width="10.646" height="24.57" style="fill:none;stroke-width:.13581;stroke:#000"/>
 <rect id="aud-i307" x="457.71" y="117.62" width="10.646" height="12.123" style="fill:none;stroke-width:.13581;stroke:#000"/>
 <rect id="aud-i305" x="457.71" y="105.17" width="10.646" height="12.123" style="fill:none;stroke-width:.13581;stroke:#000"/>
 <rect id="aud-i303" x="457.71" y="73.292" width="25.559" height="30.677" style="fill:none;stroke-width:.13581;stroke:#000"/>
 <path id="aud-j323" d="m474.94 47.504v12.448h-5.8449v11.987h14.169v-24.434z" style="fill:none;stroke-width:.13581;stroke:#000"/>
 <rect x="469.1" y="47.501" width="5.0991" height="11.646" style="fill:none;stroke-width:.13581;stroke:#000"/>
 <rect id="aud-j321" x="457.71" y="47.521" width="10.646" height="24.57" style="fill:none;stroke-width:.13581;stroke:#000"/>
 <rect id="aud-iamf" x="445.33" y="1.8194" width="22.53" height="42.331" style="fill:none;stroke-width:.13581;stroke:#000"/>
 <rect id="aud-k301" x="193.5" y="239.67" width="10.907" height="23.327" style="fill:none;stroke-width:.13581;stroke:#000"/>
 <rect id="aud-k302" x="193.76" y="220.54" width="10.646" height="17.885" style="fill:none;stroke-width:.13581;stroke:#000"/>
 <rect id="aud-k303" x="193.76" y="201.42" width="10.646" height="17.912" style="fill:none;stroke-width:.13581;stroke:#000"/>
 <rect id="aud-k305" x="193.78" y="156.69" width="10.646" height="24.57" style="fill:none;stroke-width:.13581;stroke:#000"/>
 <rect id="aud-k307" x="193.78" y="143.8" width="5.2823" height="9.7017" style="fill:none;stroke-width:.13581;stroke:#000"/>
 <path id="aud-k309" d="m193.78 139.56v4.2363h5.2829v9.7017h5.3433v-13.938z" style="fill:none;stroke-width:.2017;stroke:#000"/>
 <rect id="aud-k313" x="193.78" y="105.03" width="10.646" height="24.57" style="fill:none;stroke-width:.13581;stroke:#000"/>
 <rect id="aud-k315a" x="193.78" y="91.762" width="10.646" height="12.06" style="fill:none;stroke-width:.13581;stroke:#000"/>
 <rect id="aud-k315" x="193.76" y="73.28" width="10.646" height="18.22" style="fill:none;stroke-width:.13581;stroke:#000"/>
 <rect id="aud-k317" x="193.78" y="47.374" width="10.646" height="24.57" style="fill:none;stroke-width:.13581;stroke:#000"/>
</svg>
